<svg width="50" height="50" viewBox="0 0 50 50" fill="none" xmlns="http://www.w3.org/2000/svg" xmlns:xlink="http://www.w3.org/1999/xlink">
<path d="M13.021,15.625C13.021,14.599 13.223,13.583 13.616,12.635C14.008,11.687 14.584,10.826 15.309,10.101C16.035,9.375 16.896,8.8 17.844,8.407C18.791,8.015 19.807,7.813 20.833,7.813C21.859,7.813 22.875,8.015 23.823,8.407C24.771,8.8 25.632,9.375 26.358,10.101C27.083,10.826 27.659,11.687 28.051,12.635C28.444,13.583 28.646,14.599 28.646,15.625C28.646,17.697 27.823,19.684 26.358,21.149C24.893,22.614 22.905,23.438 20.833,23.438C18.761,23.438 16.774,22.614 15.309,21.149C13.844,19.684 13.021,17.697 13.021,15.625ZM4.688,35.417C4.688,33.345 5.511,31.358 6.976,29.892C8.441,28.427 10.428,27.604 12.5,27.604L13.208,27.604C13.594,27.604 13.977,27.667 14.342,27.783L16.146,28.373C18.137,29.024 20.242,29.252 22.327,29.046C22.405,29.039 22.483,29.053 22.554,29.085C22.625,29.117 22.687,29.166 22.733,29.229C22.78,29.292 22.809,29.365 22.82,29.442C22.83,29.52 22.82,29.598 22.792,29.671C22.185,31.165 21.873,32.762 21.875,34.375C21.875,36.983 22.675,39.406 24.042,41.411C24.231,41.69 24.048,42.083 23.708,42.094C18.243,42.282 12.772,41.933 7.375,41.052C6.625,40.93 5.943,40.545 5.45,39.966C4.958,39.387 4.688,38.652 4.688,37.892L4.688,35.417Z" fill="#BD1515"/>
<path d="M25,34.375C25,36.4 25.642,38.275 26.733,39.806C27.598,41.028 28.743,42.024 30.073,42.711C31.403,43.397 32.878,43.753 34.375,43.75C36.229,43.75 38.042,43.2 39.583,42.17C41.125,41.14 42.327,39.676 43.036,37.963C43.746,36.25 43.932,34.365 43.57,32.546C43.208,30.727 42.315,29.057 41.004,27.746C39.693,26.435 38.023,25.542 36.204,25.18C34.385,24.818 32.5,25.004 30.787,25.714C29.074,26.423 27.61,27.625 26.58,29.167C25.55,30.708 25,32.521 25,34.375ZM34.375,40.625C33.258,40.627 32.162,40.328 31.2,39.76L39.76,31.2C40.32,32.149 40.619,33.23 40.627,34.332C40.634,35.434 40.35,36.519 39.804,37.476C39.257,38.433 38.467,39.228 37.513,39.781C36.56,40.334 35.477,40.625 34.375,40.625ZM28.99,37.55L37.55,28.99C36.356,28.284 34.962,27.996 33.586,28.17C32.21,28.344 30.931,28.97 29.951,29.951C28.97,30.931 28.344,32.21 28.17,33.586C27.996,34.962 28.284,36.356 28.99,37.55Z" clip-rule="evenodd" fill-rule="evenodd" fill="#BD1515"/>
</svg>
