<svg width="68" height="58" viewBox="0 0 68 58" fill="none" xmlns="http://www.w3.org/2000/svg" xmlns:xlink="http://www.w3.org/1999/xlink">
<path d="M52.105,10.036C52.135,10.038 52.164,10.04 52.194,10.04C52.245,10.04 52.297,10.036 52.347,10.03C53.685,10.053 54.757,10.939 54.759,12.025C54.759,12.519 55.252,12.919 55.86,12.919C56.469,12.919 56.962,12.519 56.962,12.025C56.959,10.248 55.435,8.711 53.296,8.329L53.296,7.47C53.296,6.976 52.803,6.576 52.194,6.576C51.586,6.576 51.093,6.976 51.093,7.47L51.093,8.369C48.831,8.86 47.368,10.635 47.673,12.518C47.978,14.402 49.956,15.81 52.298,15.81C53.657,15.81 54.759,16.704 54.759,17.807C54.759,18.91 53.657,19.804 52.298,19.804C50.938,19.804 49.837,18.91 49.837,17.807C49.837,17.314 49.343,16.913 48.735,16.913C48.126,16.913 47.633,17.314 47.633,17.807C47.636,19.52 49.054,21.019 51.093,21.463L51.093,22.443C51.093,22.937 51.586,23.337 52.194,23.337C52.803,23.337 53.296,22.937 53.296,22.443L53.296,21.505C55.623,21.091 57.192,19.322 56.935,17.4C56.679,15.479 54.68,14.023 52.298,14.023C50.976,14.023 49.89,13.177 49.838,12.105C49.786,11.034 50.787,10.12 52.105,10.037L52.105,10.036Z" fill="#408A7E"/>
<path d="M52.36,2.205C45.582,2.205 39.798,5.793 37.631,10.598L10.287,10.598C9.681,10.598 9.19,11.041 9.185,11.532L8.925,42.892L1.131,42.892C0.522,42.892 0,43.249 0,43.744L0,47.723C0.014,51.47 3.65,54.547 8.263,54.717L8.263,54.736L42.278,54.736L42.278,54.71C42.553,54.718 42.667,54.736 42.841,54.736L42.865,54.736C47.639,54.73 51.505,51.588 51.505,47.715L51.505,27.594C51.78,27.607 52.072,27.613 52.357,27.613C60.982,27.613 68,21.907 68,14.909C68,7.91 60.985,2.205 52.36,2.205L52.36,2.205ZM8.682,52.948L8.675,52.948C5.111,52.945 2.22,50.606 2.203,47.714L2.203,44.68L34.153,44.68L34.153,47.701C34.154,49.567 35.073,51.355 36.704,52.67C36.819,52.764 36.963,52.837 37.084,52.948L8.682,52.948ZM49.301,47.714C49.302,50.601 46.421,52.943 42.864,52.948L42.843,52.948C39.271,52.943 36.374,50.6 36.356,47.702L36.356,43.744C36.365,43.515 36.258,43.294 36.058,43.132C35.859,42.971 35.586,42.884 35.305,42.892L11.128,42.892L11.381,12.386L37.02,12.386C36.824,13.205 36.723,14.036 36.718,14.869C36.716,16.631 37.169,18.374 38.048,19.985L27.642,19.985C27.033,19.985 26.54,20.385 26.54,20.879C26.54,21.372 27.033,21.773 27.642,21.773L39.243,21.773C41.516,24.673 45.149,26.694 49.301,27.371L49.301,47.714ZM52.36,25.826C44.938,25.826 38.921,20.944 38.922,14.922C38.922,8.9 44.938,4.018 52.36,4.018C59.782,4.018 65.798,8.9 65.798,14.922C65.79,20.941 59.778,25.819 52.36,25.826Z" fill="#408A7E"/>
<path d="M20.569,25.934C18.625,25.934 17.043,27.177 17.043,28.704C17.043,30.232 18.625,31.475 20.569,31.475C22.514,31.475 24.096,30.232 24.096,28.704C24.096,27.177 22.514,25.934 20.569,25.934L20.569,25.934ZM20.569,29.687C19.839,29.687 19.246,29.246 19.246,28.704C19.246,28.162 19.84,27.722 20.569,27.722C21.299,27.722 21.893,28.163 21.893,28.704C21.893,29.246 21.299,29.687 20.569,29.687Z" fill="#408A7E"/>
<path d="M26.539,28.701C26.539,29.194 27.032,29.595 27.641,29.595L42.329,29.595C42.937,29.595 43.43,29.194 43.43,28.701C43.43,28.207 42.937,27.807 42.329,27.807L27.641,27.807C27.032,27.807 26.539,28.207 26.539,28.701Z" fill="#408A7E"/>
<path d="M20.569,18.163C18.625,18.163 17.043,19.406 17.043,20.934C17.043,22.462 18.625,23.704 20.569,23.704C22.514,23.704 24.096,22.462 24.096,20.934C24.096,19.406 22.514,18.163 20.569,18.163ZM20.569,21.917C19.839,21.917 19.246,21.476 19.246,20.934C19.246,20.392 19.84,19.951 20.569,19.951C21.299,19.951 21.893,20.392 21.893,20.934C21.893,21.476 21.299,21.917 20.569,21.917L20.569,21.917Z" fill="#408A7E"/>
<path d="M20.569,33.704C18.625,33.704 17.043,34.947 17.043,36.474C17.043,38.002 18.625,39.245 20.569,39.245C22.514,39.245 24.096,38.002 24.096,36.474C24.096,34.947 22.514,33.704 20.569,33.704ZM20.569,37.457C19.839,37.457 19.246,37.017 19.246,36.474C19.246,35.933 19.84,35.492 20.569,35.492C21.299,35.492 21.893,35.933 21.893,36.474C21.893,37.016 21.299,37.457 20.569,37.457L20.569,37.457Z" fill="#408A7E"/>
<path d="M42.329,35.629L27.641,35.629C27.032,35.629 26.539,36.029 26.539,36.523C26.539,37.016 27.032,37.416 27.641,37.416L42.329,37.416C42.937,37.416 43.43,37.016 43.43,36.523C43.43,36.029 42.937,35.629 42.329,35.629Z" fill="#408A7E"/>
</svg>
