<svg width="68" height="56" viewBox="0 0 68 56" fill="none" xmlns="http://www.w3.org/2000/svg" xmlns:xlink="http://www.w3.org/1999/xlink">
<path d="M52.105,8.801C52.135,8.802 52.164,8.804 52.194,8.804C52.245,8.804 52.297,8.801 52.347,8.795C53.685,8.817 54.757,9.703 54.759,10.79C54.759,11.283 55.252,11.684 55.86,11.684C56.469,11.684 56.962,11.283 56.962,10.79C56.959,9.013 55.435,7.475 53.296,7.093L53.296,6.234C53.296,5.74 52.803,5.34 52.194,5.34C51.586,5.34 51.093,5.74 51.093,6.234L51.093,7.134C48.831,7.624 47.368,9.399 47.673,11.283C47.978,13.166 49.956,14.574 52.298,14.574C53.657,14.574 54.759,15.469 54.759,16.572C54.759,17.674 53.657,18.569 52.298,18.569C50.938,18.569 49.837,17.674 49.837,16.572C49.837,16.078 49.343,15.678 48.735,15.678C48.126,15.678 47.633,16.078 47.633,16.572C47.636,18.285 49.054,19.783 51.093,20.228L51.093,21.207C51.093,21.701 51.586,22.101 52.194,22.101C52.803,22.101 53.296,21.701 53.296,21.207L53.296,20.269C55.623,19.856 57.192,18.086 56.935,16.165C56.679,14.243 54.68,12.787 52.298,12.787C50.976,12.788 49.89,11.941 49.838,10.87C49.786,9.798 50.787,8.884 52.105,8.801L52.105,8.801Z" fill="#000000"/>
<path d="M52.36,0.969C45.582,0.969 39.798,4.558 37.631,9.363L10.287,9.363C9.681,9.363 9.19,9.806 9.185,10.297L8.925,41.656L1.131,41.656C0.522,41.656 0,42.014 0,42.508L0,46.488C0.014,50.234 3.65,53.312 8.263,53.481L8.263,53.501L42.278,53.501L42.278,53.475C42.553,53.483 42.667,53.501 42.841,53.501L42.865,53.501C47.639,53.495 51.505,50.353 51.505,46.479L51.505,26.359C51.78,26.371 52.072,26.378 52.357,26.378C60.982,26.378 68,20.672 68,13.673C68,6.675 60.985,0.969 52.36,0.969L52.36,0.969ZM8.682,51.713L8.675,51.713C5.111,51.709 2.22,49.371 2.203,46.478L2.203,43.444L34.153,43.444L34.153,46.466C34.154,48.331 35.073,50.12 36.704,51.435C36.819,51.529 36.963,51.601 37.084,51.713L8.682,51.713ZM49.301,46.478C49.302,49.365 46.421,51.707 42.864,51.713L42.843,51.713C39.271,51.708 36.374,49.365 36.356,46.467L36.356,42.508C36.365,42.279 36.258,42.058 36.058,41.897C35.859,41.735 35.586,41.648 35.305,41.656L11.128,41.656L11.381,11.151L37.02,11.151C36.824,11.969 36.723,12.8 36.718,13.633C36.716,15.396 37.169,17.138 38.048,18.749L27.642,18.749C27.033,18.749 26.54,19.149 26.54,19.643C26.54,20.137 27.033,20.537 27.642,20.537L39.243,20.537C41.516,23.437 45.149,25.459 49.301,26.135L49.301,46.478ZM52.36,24.59C44.938,24.59 38.921,19.708 38.922,13.686C38.922,7.664 44.938,2.782 52.36,2.782C59.782,2.782 65.798,7.664 65.798,13.686C65.79,19.705 59.778,24.584 52.36,24.59Z" fill="#000000"/>
<path d="M20.573,24.698C18.628,24.698 17.047,25.941 17.047,27.469C17.047,28.997 18.628,30.239 20.573,30.239C22.518,30.239 24.1,28.997 24.1,27.469C24.1,25.941 22.518,24.698 20.573,24.698L20.573,24.698ZM20.573,28.451C19.843,28.451 19.25,28.011 19.25,27.469C19.25,26.927 19.844,26.486 20.573,26.486C21.303,26.486 21.896,26.927 21.896,27.469C21.896,28.011 21.303,28.451 20.573,28.451Z" fill="#000000"/>
<path d="M26.539,27.465C26.539,27.959 27.032,28.359 27.641,28.359L42.329,28.359C42.937,28.359 43.43,27.959 43.43,27.465C43.43,26.971 42.937,26.571 42.329,26.571L27.641,26.571C27.032,26.571 26.539,26.971 26.539,27.465Z" fill="#000000"/>
<path d="M20.573,16.928C18.628,16.928 17.047,18.171 17.047,19.698C17.047,21.226 18.628,22.469 20.573,22.469C22.518,22.469 24.1,21.226 24.1,19.698C24.1,18.171 22.518,16.928 20.573,16.928ZM20.573,20.681C19.843,20.681 19.25,20.24 19.25,19.698C19.25,19.157 19.844,18.715 20.573,18.715C21.303,18.715 21.896,19.156 21.896,19.698C21.896,20.24 21.303,20.681 20.573,20.681L20.573,20.681Z" fill="#000000"/>
<path d="M20.573,32.468C18.628,32.468 17.047,33.711 17.047,35.239C17.047,36.767 18.628,38.009 20.573,38.009C22.518,38.009 24.1,36.767 24.1,35.239C24.1,33.711 22.518,32.468 20.573,32.468ZM20.573,36.221C19.843,36.221 19.25,35.781 19.25,35.239C19.25,34.697 19.844,34.256 20.573,34.256C21.303,34.256 21.896,34.697 21.896,35.239C21.896,35.781 21.303,36.221 20.573,36.221L20.573,36.221Z" fill="#000000"/>
<path d="M42.329,34.393L27.641,34.393C27.032,34.393 26.539,34.793 26.539,35.287C26.539,35.781 27.032,36.181 27.641,36.181L42.329,36.181C42.937,36.181 43.43,35.781 43.43,35.287C43.43,34.793 42.937,34.393 42.329,34.393Z" fill="#000000"/>
</svg>
