<svg width="68" height="78" viewBox="0 0 68 78" fill="none" xmlns="http://www.w3.org/2000/svg" xmlns:xlink="http://www.w3.org/1999/xlink">
<path d="M52.104,12.667C52.134,12.67 52.163,12.672 52.193,12.672C52.244,12.672 52.296,12.667 52.346,12.659C53.685,12.69 54.756,13.917 54.758,15.422C54.758,16.105 55.251,16.659 55.859,16.659C56.468,16.659 56.961,16.105 56.961,15.422C56.958,12.961 55.434,10.832 53.295,10.303L53.295,9.113C53.295,8.429 52.802,7.875 52.193,7.875C51.585,7.875 51.092,8.429 51.092,9.113L51.092,10.359C48.83,11.038 47.367,13.496 47.672,16.105C47.977,18.713 49.955,20.663 52.297,20.663C53.656,20.663 54.758,21.901 54.758,23.429C54.758,24.955 53.656,26.194 52.297,26.194C50.937,26.194 49.836,24.955 49.836,23.429C49.836,22.745 49.342,22.191 48.734,22.191C48.125,22.191 47.632,22.745 47.632,23.429C47.635,25.8 49.053,27.875 51.092,28.491L51.092,29.848C51.092,30.531 51.585,31.086 52.193,31.086C52.802,31.086 53.295,30.531 53.295,29.848L53.295,28.548C55.622,27.976 57.191,25.525 56.934,22.865C56.678,20.204 54.679,18.187 52.297,18.188C50.975,18.189 49.889,17.016 49.837,15.532C49.785,14.048 50.786,12.783 52.104,12.668L52.104,12.667Z" fill="#000000"/>
<path d="M52.36,1.823C45.582,1.823 39.798,6.792 37.631,13.446L10.287,13.446C9.681,13.446 9.19,14.059 9.185,14.739L8.925,58.164L1.131,58.164C0.522,58.164 0,58.659 0,59.344L0,64.855C0.014,70.043 3.65,74.305 8.263,74.539L8.263,74.566L42.278,74.566L42.278,74.53C42.553,74.542 42.667,74.566 42.841,74.566L42.865,74.566C47.639,74.558 51.505,70.207 51.505,64.843L51.505,36.981C51.78,36.998 52.072,37.007 52.357,37.007C60.982,37.007 68,29.106 68,19.414C68,9.723 60.985,1.823 52.36,1.823L52.36,1.823ZM8.682,72.091L8.675,72.091C5.111,72.085 2.22,68.847 2.203,64.842L2.203,60.64L34.153,60.64L34.153,64.825C34.154,67.408 35.073,69.884 36.704,71.706C36.819,71.836 36.963,71.936 37.084,72.091L8.682,72.091ZM49.301,64.842C49.302,68.84 46.421,72.083 42.864,72.091L42.843,72.091C39.271,72.083 36.374,68.839 36.356,64.826L36.356,59.344C36.365,59.027 36.258,58.721 36.058,58.497C35.859,58.274 35.586,58.153 35.305,58.164L11.128,58.164L11.381,15.921L37.02,15.921C36.824,17.055 36.723,18.206 36.718,19.359C36.716,21.8 37.169,24.212 38.048,26.443L27.642,26.443C27.033,26.443 26.54,26.998 26.54,27.681C26.54,28.365 27.033,28.919 27.642,28.919L39.243,28.919C41.516,32.935 45.149,35.735 49.301,36.672L49.301,64.842ZM52.36,34.532C44.938,34.532 38.921,27.772 38.922,19.433C38.922,11.093 44.938,4.333 52.36,4.333C59.782,4.333 65.798,11.094 65.798,19.433C65.79,27.768 59.778,34.523 52.36,34.532Z" fill="#000000"/>
<path d="M20.57,34.682C18.625,34.682 17.044,36.403 17.044,38.518C17.044,40.634 18.625,42.355 20.57,42.355C22.515,42.355 24.097,40.634 24.097,38.518C24.097,36.403 22.515,34.682 20.57,34.682L20.57,34.682ZM20.57,39.879C19.84,39.879 19.247,39.269 19.247,38.518C19.247,37.768 19.841,37.158 20.57,37.158C21.3,37.158 21.893,37.768 21.893,38.518C21.893,39.269 21.3,39.879 20.57,39.879Z" fill="#000000"/>
<path d="M26.54,38.513C26.54,39.197 27.033,39.751 27.642,39.751L42.33,39.751C42.938,39.751 43.431,39.197 43.431,38.513C43.431,37.829 42.938,37.275 42.33,37.275L27.642,37.275C27.033,37.275 26.54,37.829 26.54,38.513Z" fill="#000000"/>
<path d="M20.57,23.921C18.625,23.921 17.044,25.643 17.044,27.758C17.044,29.874 18.625,31.595 20.57,31.595C22.515,31.595 24.097,29.874 24.097,27.758C24.097,25.643 22.515,23.921 20.57,23.921ZM20.57,29.119C19.84,29.119 19.247,28.508 19.247,27.758C19.247,27.008 19.841,26.397 20.57,26.397C21.3,26.397 21.893,27.007 21.893,27.758C21.893,28.508 21.3,29.119 20.57,29.119L20.57,29.119Z" fill="#000000"/>
<path d="M20.57,45.442C18.625,45.442 17.044,47.162 17.044,49.278C17.044,51.394 18.625,53.114 20.57,53.114C22.515,53.114 24.097,51.394 24.097,49.278C24.097,47.162 22.515,45.442 20.57,45.442ZM20.57,50.639C19.84,50.639 19.247,50.029 19.247,49.278C19.247,48.528 19.841,47.917 20.57,47.917C21.3,47.917 21.893,48.528 21.893,49.278C21.893,50.028 21.3,50.639 20.57,50.639L20.57,50.639Z" fill="#000000"/>
<path d="M42.33,48.107L27.642,48.107C27.033,48.107 26.54,48.661 26.54,49.345C26.54,50.028 27.033,50.582 27.642,50.582L42.33,50.582C42.938,50.582 43.431,50.028 43.431,49.345C43.431,48.661 42.938,48.107 42.33,48.107Z" fill="#000000"/>
</svg>
