<svg width="68" height="78" viewBox="0 0 68 78" fill="none" xmlns="http://www.w3.org/2000/svg" xmlns:xlink="http://www.w3.org/1999/xlink">
<path d="M60.917,12.734L54.778,12.734L54.778,16.979L60.445,16.979L60.445,63.671L7.556,63.671L7.556,16.979L13.222,16.979L13.222,12.734L7.083,12.734C6.642,12.743 6.206,12.849 5.801,13.046C5.396,13.244 5.029,13.529 4.722,13.886C4.415,14.242 4.174,14.664 4.012,15.125C3.85,15.587 3.77,16.08 3.778,16.576L3.778,64.075C3.77,64.571 3.85,65.064 4.012,65.525C4.174,65.987 4.415,66.408 4.722,66.765C5.029,67.121 5.396,67.407 5.801,67.604C6.206,67.802 6.642,67.908 7.083,67.916L60.917,67.916C61.358,67.908 61.794,67.802 62.199,67.604C62.604,67.407 62.971,67.121 63.278,66.765C63.585,66.408 63.826,65.987 63.988,65.525C64.15,65.064 64.23,64.571 64.222,64.075L64.222,16.576C64.23,16.08 64.15,15.587 63.988,15.125C63.826,14.664 63.585,14.242 63.278,13.886C62.971,13.529 62.604,13.244 62.199,13.046C61.794,12.849 61.358,12.743 60.917,12.734L60.917,12.734Z" fill="#000000"/>
<rect  x="15.111" y="29.713" width="3.778" height="4.245" fill="#000000"/>
<rect  x="26.444" y="29.713" width="3.778" height="4.245" fill="#000000"/>
<rect  x="37.778" y="29.713" width="3.778" height="4.245" fill="#000000"/>
<rect  x="49.111" y="29.713" width="3.778" height="4.245" fill="#000000"/>
<rect  x="15.111" y="40.325" width="3.778" height="4.245" fill="#000000"/>
<rect  x="26.444" y="40.325" width="3.778" height="4.245" fill="#000000"/>
<rect  x="37.778" y="40.325" width="3.778" height="4.245" fill="#000000"/>
<rect  x="49.111" y="40.325" width="3.778" height="4.245" fill="#000000"/>
<rect  x="15.111" y="50.937" width="3.778" height="4.245" fill="#000000"/>
<rect  x="26.444" y="50.937" width="3.778" height="4.245" fill="#000000"/>
<rect  x="37.778" y="50.937" width="3.778" height="4.245" fill="#000000"/>
<rect  x="49.111" y="50.937" width="3.778" height="4.245" fill="#000000"/>
<path d="M18.889,21.224C19.39,21.224 19.87,21 20.225,20.602C20.579,20.204 20.778,19.664 20.778,19.101L20.778,6.367C20.778,5.804 20.579,5.264 20.225,4.866C19.87,4.468 19.39,4.245 18.889,4.245C18.388,4.245 17.907,4.468 17.553,4.866C17.199,5.264 17,5.804 17,6.367L17,19.101C17,19.664 17.199,20.204 17.553,20.602C17.907,21 18.388,21.224 18.889,21.224Z" fill="#000000"/>
<path d="M49.111,21.224C49.612,21.224 50.092,21 50.447,20.602C50.801,20.204 51,19.664 51,19.101L51,6.367C51,5.804 50.801,5.264 50.447,4.866C50.092,4.468 49.612,4.245 49.111,4.245C48.61,4.245 48.13,4.468 47.775,4.866C47.421,5.264 47.222,5.804 47.222,6.367L47.222,19.101C47.222,19.664 47.421,20.204 47.775,20.602C48.13,21 48.61,21.224 49.111,21.224Z" fill="#000000"/>
<rect  x="24.556" y="12.734" width="18.889" height="4.245" fill="#000000"/>
</svg>
