<svg width="68" height="56" viewBox="0 0 68 56" fill="none" xmlns="http://www.w3.org/2000/svg" xmlns:xlink="http://www.w3.org/1999/xlink">
<path d="M60.917,9.453L54.778,9.453L54.778,12.518L60.445,12.518L60.445,46.237L7.556,46.237L7.556,12.518L13.222,12.518L13.222,9.453L7.083,9.453C6.642,9.459 6.206,9.535 5.801,9.678C5.396,9.821 5.029,10.027 4.722,10.284C4.415,10.542 4.174,10.846 4.012,11.179C3.85,11.513 3.77,11.869 3.778,12.227L3.778,46.528C3.77,46.886 3.85,47.242 4.012,47.576C4.174,47.909 4.415,48.213 4.722,48.471C5.029,48.728 5.396,48.934 5.801,49.077C6.206,49.22 6.642,49.296 7.083,49.302L60.917,49.302C61.358,49.296 61.794,49.22 62.199,49.077C62.604,48.934 62.971,48.728 63.278,48.471C63.585,48.213 63.826,47.909 63.988,47.576C64.15,47.242 64.23,46.886 64.222,46.528L64.222,12.227C64.23,11.869 64.15,11.513 63.988,11.179C63.826,10.846 63.585,10.542 63.278,10.284C62.971,10.027 62.604,9.821 62.199,9.678C61.794,9.535 61.358,9.459 60.917,9.453L60.917,9.453Z" fill="#000000"/>
<rect  x="15.111" y="21.714" width="3.778" height="3.065" fill="#000000"/>
<rect  x="26.444" y="21.714" width="3.778" height="3.065" fill="#000000"/>
<rect  x="37.777" y="21.714" width="3.778" height="3.065" fill="#000000"/>
<rect  x="49.111" y="21.714" width="3.778" height="3.065" fill="#000000"/>
<rect  x="15.111" y="29.377" width="3.778" height="3.065" fill="#000000"/>
<rect  x="26.444" y="29.377" width="3.778" height="3.065" fill="#000000"/>
<rect  x="37.777" y="29.377" width="3.778" height="3.065" fill="#000000"/>
<rect  x="49.111" y="29.377" width="3.778" height="3.065" fill="#000000"/>
<rect  x="15.111" y="37.041" width="3.778" height="3.065" fill="#000000"/>
<rect  x="26.444" y="37.041" width="3.778" height="3.065" fill="#000000"/>
<rect  x="37.777" y="37.041" width="3.778" height="3.065" fill="#000000"/>
<rect  x="49.111" y="37.041" width="3.778" height="3.065" fill="#000000"/>
<path d="M18.889,15.584C19.39,15.584 19.87,15.422 20.225,15.135C20.579,14.847 20.778,14.457 20.778,14.051L20.778,4.855C20.778,4.448 20.579,4.059 20.225,3.771C19.87,3.484 19.39,3.322 18.889,3.322C18.388,3.322 17.907,3.484 17.553,3.771C17.199,4.059 17,4.448 17,4.855L17,14.051C17,14.457 17.199,14.847 17.553,15.135C17.907,15.422 18.388,15.584 18.889,15.584Z" fill="#000000"/>
<path d="M49.112,15.584C49.613,15.584 50.093,15.422 50.447,15.135C50.801,14.847 51,14.457 51,14.051L51,4.855C51,4.448 50.801,4.059 50.447,3.771C50.093,3.484 49.613,3.322 49.112,3.322C48.611,3.322 48.13,3.484 47.776,3.771C47.422,4.059 47.223,4.448 47.223,4.855L47.223,14.051C47.223,14.457 47.422,14.847 47.776,15.135C48.13,15.422 48.611,15.584 49.112,15.584Z" fill="#000000"/>
<rect  x="24.556" y="9.453" width="18.889" height="3.065" fill="#000000"/>
</svg>
