<svg width="72" height="60" viewBox="0 0 72 60" fill="none" xmlns="http://www.w3.org/2000/svg" xmlns:xlink="http://www.w3.org/1999/xlink">
<path d="M8.383,7.227L8.383,57.834C8.383,58.371 8.92,58.807 9.582,58.807L55.159,58.807C55.821,58.807 56.359,58.371 56.359,57.834L56.359,16.959C56.359,16.938 56.346,16.919 56.343,16.898C56.337,16.813 56.317,16.728 56.282,16.648C56.269,16.617 56.259,16.587 56.242,16.556C56.184,16.45 56.103,16.354 56.002,16.271L44.009,6.539C43.907,6.457 43.787,6.391 43.656,6.344C43.62,6.332 43.583,6.321 43.546,6.312C43.445,6.284 43.341,6.267 43.235,6.262C43.215,6.265 43.191,6.254 43.166,6.254L9.582,6.254C8.92,6.254 8.383,6.689 8.383,7.227ZM52.264,15.986L44.365,15.986L44.365,9.577L52.264,15.986ZM10.781,8.2L41.966,8.2L41.966,16.959C41.966,17.496 42.503,17.932 43.165,17.932L53.96,17.932L53.96,56.861L10.781,56.861L10.781,8.2Z" fill="#000000"/>
<path d="M58.757,51.021L58.757,52.967L62.355,52.967C63.017,52.967 63.554,52.532 63.554,51.994L63.554,1.388C63.554,0.85 63.017,0.415 62.355,0.415L16.778,0.415C16.115,0.415 15.578,0.85 15.578,1.388L15.578,4.308L17.977,4.308L17.977,2.361L61.155,2.361L61.155,51.021L58.757,51.021Z" fill="#000000"/>
<rect  x="17.977" y="19.879" width="28.785" height="1.946" fill="#000000"/>
<rect  x="17.977" y="14.039" width="9.595" height="1.947" fill="#000000"/>
<rect  x="17.977" y="25.718" width="19.19" height="1.947" fill="#000000"/>
<rect  x="39.563" y="25.718" width="7.196" height="1.947" fill="#000000"/>
<rect  x="17.977" y="31.557" width="28.785" height="1.947" fill="#000000"/>
<rect  x="17.977" y="43.236" width="28.785" height="1.947" fill="#000000"/>
<rect  x="28.766" y="37.396" width="17.991" height="1.946" fill="#000000"/>
<rect  x="17.977" y="37.396" width="8.396" height="1.946" fill="#000000"/>
<rect  x="17.977" y="49.075" width="4.798" height="1.946" fill="#000000"/>
<rect  x="25.172" y="49.075" width="21.589" height="1.946" fill="#000000"/>
</svg>
