<svg width="36" height="36" viewBox="0 0 36 36" fill="none" xmlns="http://www.w3.org/2000/svg" xmlns:xlink="http://www.w3.org/1999/xlink">
<path d="M4.189,4.198L4.189,35.382C4.189,35.713 4.458,35.982 4.789,35.982L27.578,35.982C27.909,35.982 28.177,35.713 28.177,35.382L28.177,10.195C28.177,10.182 28.171,10.17 28.17,10.157C28.167,10.105 28.156,10.053 28.139,10.003C28.132,9.984 28.128,9.965 28.119,9.947C28.09,9.881 28.05,9.822 27.999,9.771L22.002,3.774C21.951,3.723 21.892,3.683 21.826,3.654C21.808,3.646 21.79,3.64 21.771,3.634C21.721,3.617 21.669,3.606 21.615,3.603C21.605,3.605 21.593,3.598 21.581,3.598L4.789,3.598C4.458,3.598 4.189,3.867 4.189,4.198ZM26.13,9.595L22.18,9.595L22.18,5.646L26.13,9.595ZM5.389,4.798L20.981,4.798L20.981,10.195C20.981,10.526 21.25,10.795 21.581,10.795L26.978,10.795L26.978,34.783L5.389,34.783L5.389,4.798Z" fill="#5B40C5"/>
<path d="M29.377,31.184L29.377,32.384L31.176,32.384C31.508,32.384 31.776,32.115 31.776,31.784L31.776,0.6C31.776,0.269 31.508,0 31.176,0L8.388,0C8.057,0 7.788,0.269 7.788,0.6L7.788,2.399L8.988,2.399L8.988,1.199L30.577,1.199L30.577,31.184L29.377,31.184Z" fill="#5B40C5"/>
<rect  x="8.987" y="11.994" width="14.393" height="1.199" fill="#5B40C5"/>
<rect  x="8.987" y="8.396" width="4.798" height="1.2" fill="#5B40C5"/>
<rect  x="8.987" y="15.592" width="9.595" height="1.2" fill="#5B40C5"/>
<rect  x="19.782" y="15.592" width="3.598" height="1.2" fill="#5B40C5"/>
<rect  x="8.987" y="19.19" width="14.393" height="1.2" fill="#5B40C5"/>
<rect  x="8.987" y="26.387" width="14.393" height="1.2" fill="#5B40C5"/>
<rect  x="14.385" y="22.789" width="8.995" height="1.199" fill="#5B40C5"/>
<rect  x="8.987" y="22.789" width="4.198" height="1.199" fill="#5B40C5"/>
<rect  x="8.987" y="29.985" width="2.399" height="1.199" fill="#5B40C5"/>
<rect  x="12.585" y="29.985" width="10.795" height="1.199" fill="#5B40C5"/>
</svg>
