<svg width="36" height="36" viewBox="0 0 36 36" fill="none" xmlns="http://www.w3.org/2000/svg" xmlns:xlink="http://www.w3.org/1999/xlink">
<path d="M4.191,4.198L4.191,35.382C4.191,35.713 4.46,35.982 4.791,35.982L27.58,35.982C27.911,35.982 28.179,35.713 28.179,35.382L28.179,10.195C28.179,10.182 28.173,10.17 28.172,10.157C28.169,10.105 28.158,10.053 28.141,10.003C28.134,9.984 28.13,9.965 28.121,9.947C28.092,9.881 28.052,9.822 28.001,9.771L22.004,3.774C21.953,3.723 21.894,3.683 21.828,3.654C21.81,3.646 21.792,3.64 21.773,3.634C21.723,3.617 21.671,3.606 21.617,3.603C21.607,3.605 21.595,3.598 21.583,3.598L4.791,3.598C4.46,3.598 4.191,3.867 4.191,4.198ZM26.132,9.595L22.182,9.595L22.182,5.646L26.132,9.595ZM5.391,4.798L20.983,4.798L20.983,10.195C20.983,10.526 21.252,10.795 21.583,10.795L26.98,10.795L26.98,34.783L5.391,34.783L5.391,4.798Z" fill="#5B40C5"/>
<path d="M29.378,31.184L29.378,32.384L31.177,32.384C31.509,32.384 31.777,32.115 31.777,31.784L31.777,0.6C31.777,0.269 31.509,0 31.177,0L8.389,0C8.058,0 7.789,0.269 7.789,0.6L7.789,2.399L8.989,2.399L8.989,1.199L30.578,1.199L30.578,31.184L29.378,31.184Z" fill="#5B40C5"/>
<rect  x="8.988" y="11.994" width="14.393" height="1.199" fill="#5B40C5"/>
<rect  x="8.988" y="8.396" width="4.798" height="1.2" fill="#5B40C5"/>
<rect  x="8.988" y="15.592" width="9.595" height="1.2" fill="#5B40C5"/>
<rect  x="19.781" y="15.592" width="3.598" height="1.2" fill="#5B40C5"/>
<rect  x="8.988" y="19.19" width="14.393" height="1.2" fill="#5B40C5"/>
<rect  x="8.988" y="26.387" width="14.393" height="1.2" fill="#5B40C5"/>
<rect  x="14.383" y="22.789" width="8.995" height="1.199" fill="#5B40C5"/>
<rect  x="8.988" y="22.789" width="4.198" height="1.199" fill="#5B40C5"/>
<rect  x="8.988" y="29.985" width="2.399" height="1.199" fill="#5B40C5"/>
<rect  x="12.586" y="29.985" width="10.795" height="1.199" fill="#5B40C5"/>
</svg>
