<svg width="36" height="36" viewBox="0 0 36 36" fill="none" xmlns="http://www.w3.org/2000/svg" xmlns:xlink="http://www.w3.org/1999/xlink">
<path d="M16.625,26.244C16.4,26.244 16.227,26.244 16.054,26.244C11.706,26.244 7.367,26.244 3.02,26.244C1.132,26.244 -0.002,25.113 -0.011,23.24C-0.011,21.341 -0.011,19.441 -0.011,17.542C-0.011,17.43 -0.02,17.309 -0.002,17.197C0.058,16.826 0.275,16.601 0.665,16.575C1.02,16.549 1.331,16.826 1.366,17.197C1.392,17.464 1.375,17.741 1.375,18.017C1.375,19.813 1.366,21.617 1.375,23.413C1.375,24.276 1.946,24.854 2.812,24.854C7.315,24.863 11.819,24.854 16.322,24.854C16.409,24.854 16.487,24.846 16.616,24.837C16.616,23.724 16.59,22.636 16.625,21.548C16.634,21.159 16.72,20.736 16.894,20.391C17.301,19.58 18.201,19.182 19.171,19.372C19.699,19.476 20.202,19.7 20.747,19.882C20.747,19.864 20.765,19.795 20.765,19.718C20.765,18.535 20.756,17.361 20.773,16.178C20.773,15.936 20.713,15.841 20.47,15.755C19.292,15.375 18.548,14.253 18.712,13.157C18.885,11.957 19.916,11.059 21.189,11.05C23.224,11.033 25.259,11.033 27.294,11.05C28.645,11.059 29.745,12.138 29.771,13.441C29.797,14.702 28.723,15.807 27.381,15.867C26.809,15.893 26.238,15.876 25.64,15.876C25.64,17.11 25.64,18.302 25.64,19.528C26.87,19.087 27.892,19.372 28.689,20.443C29.762,19.804 30.81,19.864 31.824,20.702C31.824,16.083 31.824,11.516 31.824,6.932C21.683,6.932 11.559,6.932 1.366,6.932C1.366,7.079 1.366,7.226 1.366,7.381C1.366,9.651 1.366,11.931 1.366,14.201C1.366,14.331 1.375,14.46 1.357,14.59C1.288,14.961 1.063,15.185 0.682,15.194C0.301,15.194 0.067,14.969 -0.002,14.598C-0.028,14.469 -0.011,14.339 -0.011,14.21C-0.011,10.472 -0.011,6.725 -0.011,2.987C0.006,1.139 1.15,0 3.003,0C7.22,0 11.429,0 15.646,0C15.776,0 15.906,-0.009 16.036,0.008C16.383,0.06 16.642,0.362 16.625,0.699C16.608,1.062 16.4,1.286 16.054,1.364C15.915,1.39 15.768,1.381 15.621,1.381C11.438,1.381 7.246,1.381 3.063,1.381C1.886,1.381 1.383,1.882 1.383,3.064C1.383,3.867 1.383,4.67 1.383,5.499C11.542,5.499 21.674,5.499 31.832,5.499C31.841,5.404 31.867,5.292 31.867,5.188C31.867,4.454 31.867,3.721 31.867,2.987C31.867,1.899 31.339,1.381 30.239,1.381C27.424,1.381 24.61,1.381 21.795,1.381C21.648,1.381 21.501,1.39 21.362,1.364C21.016,1.303 20.765,1.001 20.791,0.664C20.817,0.302 21.024,0.086 21.379,0.017C21.518,-0.009 21.665,0 21.812,0C24.61,0 27.416,0 30.213,0C32.118,0 33.252,1.122 33.252,3.021C33.252,8.961 33.252,14.909 33.252,20.849C33.252,21.021 33.252,21.185 33.252,21.384C33.521,21.401 33.763,21.401 34.006,21.444C35.071,21.643 35.98,22.523 35.989,23.603C36.006,25.511 35.92,27.418 35.842,29.326C35.825,29.749 35.66,30.164 35.521,30.578C35.392,30.975 35.028,31.157 34.673,31.044C34.326,30.941 34.093,30.604 34.214,30.233C34.759,28.584 34.621,26.875 34.638,25.182C34.638,24.768 34.647,24.345 34.638,23.931C34.629,23.292 34.196,22.817 33.625,22.791C33.071,22.765 32.638,23.18 32.56,23.81C32.499,24.259 32.222,24.526 31.841,24.518C31.46,24.5 31.183,24.207 31.174,23.758C31.165,23.352 31.174,22.955 31.174,22.549C31.165,21.911 30.741,21.436 30.169,21.41C29.607,21.384 29.182,21.781 29.096,22.42C29.035,22.869 28.767,23.145 28.385,23.128C27.987,23.119 27.727,22.808 27.71,22.334C27.701,22.135 27.719,21.928 27.701,21.729C27.658,21.159 27.199,20.719 26.662,20.711C26.125,20.702 25.71,21.099 25.632,21.677C25.562,22.195 25.285,22.472 24.878,22.437C24.48,22.403 24.246,22.1 24.246,21.608C24.246,19.605 24.246,17.611 24.246,15.608C24.246,15.082 24.003,14.728 23.562,14.564C23.155,14.417 22.679,14.503 22.445,14.883C22.28,15.151 22.176,15.496 22.176,15.807C22.159,18.898 22.168,21.997 22.168,25.088C22.168,25.2 22.168,25.321 22.168,25.433C22.159,25.934 21.882,26.244 21.466,26.244C21.05,26.236 20.791,25.925 20.782,25.416C20.773,24.535 20.791,23.663 20.773,22.782C20.756,21.755 20.046,20.935 19.05,20.745C18.357,20.616 18.011,20.909 18.002,21.617C18.002,23.585 17.976,25.562 18.011,27.531C18.054,30.388 19.249,32.685 21.527,34.429C21.639,34.515 21.769,34.584 21.873,34.688C22.15,34.955 22.185,35.275 21.968,35.585C21.752,35.896 21.431,35.957 21.085,35.793C20.981,35.741 20.886,35.672 20.799,35.603C18.115,33.608 16.72,30.941 16.616,27.608C16.616,27.168 16.625,26.745 16.625,26.244ZM21.007,14.469C21.033,14.451 21.059,14.434 21.076,14.417C22.133,12.595 24.497,12.803 25.337,14.339C25.38,14.417 25.51,14.495 25.606,14.495C26.212,14.503 26.818,14.521 27.424,14.486C28.022,14.451 28.455,13.977 28.437,13.45C28.42,12.932 27.987,12.44 27.442,12.44C25.354,12.423 23.259,12.423 21.172,12.44C20.591,12.449 20.141,12.889 20.106,13.39C20.063,13.899 20.427,14.322 21.007,14.469Z" fill="#298AFF"/>
<path d="M10.02,17.266C8.14,17.266 6.27,17.266 4.39,17.266C3.689,17.266 3.464,17.042 3.464,16.334C3.464,14.193 3.464,12.043 3.464,9.902C3.464,9.194 3.68,8.978 4.399,8.978C8.166,8.978 11.933,8.978 15.701,8.978C16.411,8.978 16.627,9.203 16.627,9.911C16.627,12.052 16.627,14.201 16.627,16.342C16.627,17.05 16.402,17.266 15.692,17.266C13.804,17.266 11.916,17.266 10.02,17.266ZM4.875,10.386C4.875,12.224 4.875,14.037 4.875,15.859C8.34,15.859 11.778,15.859 15.207,15.859C15.207,14.012 15.207,12.199 15.207,10.386C11.752,10.386 8.322,10.386 4.875,10.386Z" fill="#298AFF"/>
<path d="M10.003,20.029C8.401,20.029 6.799,20.029 5.196,20.029C5.084,20.029 4.963,20.037 4.85,20.029C4.443,20.003 4.157,19.709 4.157,19.338C4.157,18.967 4.443,18.665 4.85,18.656C5.439,18.639 6.036,18.647 6.625,18.647C9.379,18.647 12.142,18.647 14.896,18.647C15.026,18.647 15.156,18.639 15.285,18.656C15.666,18.691 15.935,18.984 15.935,19.338C15.935,19.692 15.666,19.986 15.285,20.02C15.173,20.029 15.052,20.029 14.939,20.029C13.294,20.029 11.648,20.029 10.003,20.029Z" fill="#298AFF"/>
<path d="M7.968,21.41C8.946,21.41 9.934,21.41 10.912,21.41C11.449,21.41 11.778,21.678 11.778,22.101C11.778,22.524 11.458,22.791 10.912,22.791C8.946,22.791 6.989,22.791 5.023,22.791C4.486,22.791 4.157,22.524 4.157,22.101C4.157,21.669 4.478,21.41 5.023,21.41C6.01,21.41 6.989,21.41 7.968,21.41Z" fill="#298AFF"/>
<path d="M31.09,36C30.9,35.81 30.657,35.655 30.545,35.43C30.389,35.128 30.562,34.86 30.813,34.645C31.393,34.153 31.965,33.652 32.519,33.134C32.718,32.953 32.857,32.702 33.047,32.512C33.307,32.236 33.628,32.201 33.948,32.409C34.242,32.599 34.329,33.022 34.113,33.324C33.402,34.334 32.51,35.163 31.471,35.827C31.393,35.879 31.281,35.896 31.194,35.922C31.159,35.948 31.125,35.974 31.09,36Z" fill="#298AFF"/>
<path d="M19.399,0.708C19.39,1.079 19.061,1.39 18.688,1.381C18.316,1.373 18.004,1.045 18.013,0.673C18.022,0.302 18.342,-0.009 18.723,0C19.095,0.017 19.407,0.337 19.399,0.708Z" fill="#298AFF"/>
<path d="M4.85,3.462C4.85,3.833 4.529,4.144 4.157,4.144C3.784,4.144 3.473,3.824 3.473,3.453C3.473,3.082 3.793,2.771 4.165,2.771C4.538,2.771 4.85,3.091 4.85,3.462Z" fill="#298AFF"/>
<path d="M7.621,2.771C7.993,2.771 8.314,3.091 8.305,3.462C8.305,3.833 7.984,4.153 7.612,4.144C7.24,4.144 6.919,3.824 6.928,3.453C6.937,3.082 7.248,2.771 7.621,2.771Z" fill="#298AFF"/>
<path d="M11.076,2.771C11.448,2.763 11.769,3.073 11.778,3.445C11.786,3.816 11.474,4.135 11.102,4.144C10.73,4.153 10.409,3.842 10.401,3.471C10.392,3.099 10.695,2.78 11.076,2.771Z" fill="#298AFF"/>
</svg>
