<svg width="1590" height="198" viewBox="0 0 1590 198" fill="none" xmlns="http://www.w3.org/2000/svg" xmlns:xlink="http://www.w3.org/1999/xlink">
<path d="M0,7.691C0,3.273 3.582,-0.309 8,-0.309L1582,-0.309C1586.418,-0.309 1590,3.273 1590,7.691L1590,196.958L0,196.958Z" fill="#F2F5F5"/>
<g filter="url(#filter30_4260)">
<rect  x="338.531" y="32.569" width="1199.052" height="117.127" rx="54" fill="#FFFFFF"/>
</g>
<path d="M1493.405,68.098C1493.046,67.822 1492.592,67.631 1492.097,67.547C1491.602,67.463 1491.086,67.49 1490.61,67.625L1432.05,84.064C1431.545,84.212 1431.11,84.475 1430.803,84.818C1430.496,85.161 1430.332,85.568 1430.332,85.985C1430.332,86.402 1430.496,86.809 1430.803,87.152C1431.11,87.496 1431.545,87.759 1432.05,87.906L1454.915,94.955L1471.791,81.886L1475.544,84.783L1458.588,97.873L1467.745,115.524C1467.942,115.906 1468.284,116.234 1468.725,116.465C1469.166,116.696 1469.687,116.819 1470.22,116.818C1470.758,116.81 1471.28,116.676 1471.717,116.434C1472.155,116.191 1472.487,115.853 1472.669,115.462L1493.964,70.255C1494.145,69.892 1494.189,69.496 1494.09,69.114C1493.991,68.732 1493.754,68.379 1493.405,68.098Z" fill="#285D54"/>
<path d="M299.739,98.672C300.41,98.186 300.561,97.248 300.075,96.577C299.589,95.906 298.651,95.756 297.98,96.241L299.739,98.672ZM266.243,121.062L267.123,122.277L267.123,122.277L266.243,121.062ZM229.871,110.158L228.371,110.158L229.871,110.158ZM236.112,99.255L236.991,100.47L236.112,99.255ZM268.728,75.649L267.848,74.434L268.728,75.649ZM278.772,72.638L278.772,74.138L278.772,72.638ZM292.976,82.918L291.476,82.918L292.976,82.918ZM288.816,90.187L289.695,91.403L289.695,91.403L288.816,90.187ZM256.164,113.793L255.285,112.577L255.285,112.577L256.164,113.793ZM251.142,115.298L251.142,116.798L251.142,115.298ZM244.04,110.158L242.54,110.158L244.04,110.158ZM246.12,106.524L245.241,105.308L245.241,105.308L246.12,106.524ZM277.131,85.958C277.802,85.472 277.953,84.535 277.468,83.863C276.982,83.192 276.045,83.041 275.373,83.526L277.131,85.958ZM297.98,96.241L265.364,119.847L267.123,122.277L299.739,98.672L297.98,96.241ZM265.364,119.847C261.66,122.527 256.56,124.078 251.177,124.078L251.177,127.078C257.096,127.078 262.835,125.38 267.123,122.277L265.364,119.847ZM251.177,124.078C245.795,124.078 240.695,122.527 236.991,119.847L235.232,122.277C239.52,125.38 245.259,127.078 251.177,127.078L251.177,124.078ZM236.991,119.847C233.294,117.171 231.371,113.665 231.371,110.158L228.371,110.158C228.371,114.831 230.937,119.169 235.232,122.277L236.991,119.847ZM231.371,110.158C231.371,106.652 233.294,103.145 236.991,100.47L235.232,98.039C230.937,101.148 228.371,105.485 228.371,110.158L231.371,110.158ZM236.991,100.47L269.607,76.864L267.848,74.434L235.232,98.039L236.991,100.47ZM269.607,76.864C271.979,75.148 275.273,74.138 278.772,74.138L278.772,71.138C274.737,71.138 270.804,72.295 267.848,74.434L269.607,76.864ZM278.772,74.138C282.271,74.138 285.565,75.148 287.936,76.864L289.695,74.434C286.739,72.295 282.807,71.138 278.772,71.138L278.772,74.138ZM287.936,76.864C290.301,78.576 291.476,80.775 291.476,82.918L294.476,82.918C294.476,79.609 292.658,76.578 289.695,74.434L287.936,76.864ZM291.476,82.918C291.476,85.062 290.301,87.261 287.936,88.972L289.695,91.403C292.658,89.258 294.476,86.228 294.476,82.918L291.476,82.918ZM287.937,88.972L255.285,112.577L257.043,115.008L289.695,91.403L287.937,88.972ZM255.285,112.577C254.775,112.946 254.147,113.255 253.429,113.47L254.291,116.344C255.296,116.042 256.234,115.593 257.043,115.008L255.285,112.577ZM253.429,113.47C252.712,113.685 251.934,113.798 251.142,113.798L251.142,116.798C252.215,116.798 253.284,116.645 254.291,116.344L253.429,113.47ZM251.142,113.798C250.35,113.798 249.572,113.685 248.855,113.47L247.993,116.344C249,116.645 250.069,116.798 251.142,116.798L251.142,113.798ZM248.855,113.47C248.137,113.255 247.509,112.946 247,112.577L245.241,115.008C246.05,115.593 246.988,116.042 247.993,116.344L248.855,113.47ZM247,112.577C246.49,112.208 246.12,111.796 245.882,111.38L243.279,112.87C243.755,113.702 244.432,114.422 245.241,115.008L247,112.577ZM245.882,111.38C245.647,110.968 245.54,110.555 245.54,110.158L242.54,110.158C242.54,111.111 242.801,112.035 243.279,112.87L245.882,111.38ZM245.54,110.158C245.54,109.761 245.647,109.348 245.882,108.936L243.279,107.446C242.801,108.281 242.54,109.205 242.54,110.158L245.54,110.158ZM245.882,108.936C246.12,108.521 246.49,108.108 247,107.739L245.241,105.308C244.432,105.894 243.755,106.614 243.279,107.446L245.882,108.936ZM246.999,107.739L277.131,85.958L275.373,83.526L245.241,105.308L246.999,107.739Z" fill="#408A7E"/>
<path d="M105.999,102.884C107.357,102.884 108.659,102.376 109.619,101.473C110.579,100.57 111.118,99.345 111.118,98.068C111.118,96.79 110.579,95.565 109.619,94.662C108.659,93.759 107.357,93.252 105.999,93.252C104.642,93.252 103.34,93.759 102.38,94.662C101.42,95.565 100.88,96.79 100.88,98.068C100.88,99.345 101.42,100.57 102.38,101.473C103.34,102.376 104.642,102.884 105.999,102.884ZM105.221,115.194C104.924,114.875 104.562,114.615 104.157,114.429C103.752,114.242 103.312,114.133 102.862,114.108C102.412,114.083 101.961,114.142 101.535,114.281C101.109,114.421 100.717,114.638 100.381,114.921C100.046,115.204 99.773,115.547 99.578,115.929C99.384,116.312 99.272,116.727 99.25,117.151C99.227,117.574 99.293,117.998 99.446,118.397C99.598,118.797 99.833,119.163 100.136,119.477C102.376,121.835 105.12,123.722 108.189,125.012C111.258,126.303 114.582,126.968 117.943,126.964C121.305,126.968 124.629,126.303 127.698,125.012C130.767,123.722 133.511,121.835 135.75,119.477C136.344,118.841 136.647,118.01 136.593,117.165C136.54,116.321 136.133,115.53 135.463,114.965C134.793,114.401 133.913,114.108 133.014,114.151C132.116,114.194 131.272,114.568 130.666,115.194C129.067,116.88 127.106,118.228 124.913,119.15C122.721,120.072 120.345,120.547 117.943,120.543C112.893,120.543 108.354,118.481 105.221,115.194ZM135.006,98.068C135.006,99.345 134.467,100.57 133.507,101.473C132.547,102.376 131.245,102.884 129.888,102.884C128.53,102.884 127.228,102.376 126.268,101.473C125.308,100.57 124.769,99.345 124.769,98.068C124.769,96.79 125.308,95.565 126.268,94.662C127.228,93.759 128.53,93.252 129.888,93.252C131.245,93.252 132.547,93.759 133.507,94.662C134.467,95.565 135.006,96.79 135.006,98.068ZM158.895,104.489C158.895,99.43 157.835,94.419 155.777,89.745C153.719,85.07 150.703,80.823 146.9,77.245C143.098,73.668 138.583,70.83 133.615,68.893C128.646,66.957 123.321,65.961 117.943,65.961C112.566,65.961 107.241,66.957 102.272,68.893C97.304,70.83 92.789,73.668 88.987,77.245C85.184,80.823 82.167,85.07 80.109,89.745C78.051,94.419 76.992,99.43 76.992,104.489C76.992,114.708 81.307,124.507 88.987,131.733C96.666,138.958 107.082,143.018 117.943,143.018C128.804,143.018 139.22,138.958 146.9,131.733C154.58,124.507 158.895,114.708 158.895,104.489ZM83.817,104.489C83.817,95.974 87.413,87.807 93.813,81.786C100.213,75.765 108.893,72.382 117.943,72.382C126.994,72.382 135.674,75.765 142.074,81.786C148.474,87.807 152.069,95.974 152.069,104.489C152.069,113.005 148.474,121.171 142.074,127.192C135.674,133.214 126.994,136.596 117.943,136.596C108.893,136.596 100.213,133.214 93.813,127.192C87.413,121.171 83.817,113.005 83.817,104.489Z" fill="#408A7E"/>
<defs>
<filter id="filter30_4260" x="288.53125" y="-17.430847" width="699.526123" height="158.563427" filterUnits="userSpaceOnUse" color-interpolation-filters="sRGB">
<feFlood flood-opacity="0" result="BackgroundImageFix"/>
<feColorMatrix in="SourceAlpha" type="matrix" values="0 0 0 0 0 0 0 0 0 0 0 0 0 0 0 0 0 0 127 0" result="hardAlpha"/>
<feMorphology radius="0" operator="dilate" in="SourceAlpha" result="0dropshadow"/>
<feOffset dx="4" dy="4"/>
<feGaussianBlur stdDeviation="25"/>
<feComposite in2="hardAlpha" operator="out"/>
<feColorMatrix type="matrix" values="0 0 0 0 0 0 0 0 0 0 0 0 0 0 0 0 0 0 0.2 0"/>
<feBlend mode="normal" in2="BackgroundImageFix" result="0dropshadow"/>
<feBlend mode="normal" in="SourceGraphic" in2="0dropshadow" result="shape"/>
</filter>
</defs>
</svg>
