<svg width="132" height="124" viewBox="0 0 132 124" fill="none" xmlns="http://www.w3.org/2000/svg" xmlns:xlink="http://www.w3.org/1999/xlink">
<path d="M131.044,61.646C131.044,95.692 101.709,123.291 65.522,123.291C29.335,123.291 0,95.692 0,61.646C0,27.6 29.335,0 65.522,0C101.709,0 131.044,27.6 131.044,61.646Z" fill="#FFFFFF" stroke="#000000" stroke-width="1" stroke-miterlimit="3.999327"/>
<path d="M48.414,82.023C48.414,77.482 50.332,73.126 53.745,69.915C57.158,66.704 61.788,64.899 66.615,64.899C71.442,64.899 76.071,66.704 79.484,69.915C82.898,73.126 84.815,77.482 84.815,82.023L48.414,82.023ZM66.615,62.759C59.073,62.759 52.964,57.012 52.964,49.916C52.964,42.82 59.073,37.073 66.615,37.073C74.156,37.073 80.265,42.82 80.265,49.916C80.265,57.012 74.156,62.759 66.615,62.759Z" fill="#408A7E"/>
</svg>
