<svg width="136" height="136" viewBox="0 0 136 136" fill="none" xmlns="http://www.w3.org/2000/svg" xmlns:xlink="http://www.w3.org/1999/xlink">
<path d="M134.326,70.083C134.326,105.734 104.256,134.634 67.163,134.634C30.07,134.634 0,105.734 0,70.083C0,34.433 30.07,5.533 67.163,5.533C104.256,5.533 134.326,34.433 134.326,70.083Z" fill="#EFEFEF"/>
<path d="M67.164,22.439C72.763,22.439 78.132,24.803 82.09,29.011C86.049,33.219 88.273,38.927 88.273,44.878C88.273,50.829 86.049,56.537 82.09,60.745C78.132,64.953 72.763,67.317 67.164,67.317C61.566,67.317 56.197,64.953 52.239,60.745C48.28,56.537 46.056,50.829 46.056,44.878C46.056,38.927 48.28,33.219 52.239,29.011C56.197,24.803 61.566,22.439 67.164,22.439ZM67.164,78.537C90.489,78.537 111.3,87.195 111.3,99.593L112.259,118.036C112.259,118.036 100.297,127.641 91.151,130.946C82.271,134.155 67.164,134.634 67.164,134.634C67.164,134.634 52.057,134.155 43.178,130.946C34.032,127.641 22.069,118.036 22.069,118.036L23.029,101.437C23.029,89.039 43.84,78.537 67.164,78.537Z" fill="#FFFFFF"/>
</svg>
