<svg width="46" height="34" viewBox="0 0 46 34" fill="none" xmlns="http://www.w3.org/2000/svg" xmlns:xlink="http://www.w3.org/1999/xlink">
<path d="M16.747,17L16.747,18.563C17.61,18.563 18.31,17.863 18.31,17L16.747,17ZM15.92,9.05L16.868,7.808L16.867,7.807L15.92,9.05ZM12.629,9.127L12.196,7.626L12.195,7.626L12.629,9.127ZM6.852,12.79C6.852,14.854 8.469,16.312 10.149,17.161C11.918,18.055 14.253,18.563 16.747,18.563L16.747,15.438C14.638,15.438 12.806,15.002 11.559,14.372C10.223,13.697 9.977,13.05 9.977,12.79L6.852,12.79ZM18.31,17L18.31,12.79L15.185,12.79L15.185,17L18.31,17ZM18.31,12.79C18.31,11.811 18.315,10.874 18.184,10.113C18.036,9.26 17.687,8.433 16.868,7.808L14.972,10.292C14.981,10.298 15.045,10.306 15.104,10.647C15.179,11.08 15.185,11.698 15.185,12.79L18.31,12.79ZM16.867,7.807C16.108,7.229 15.303,7.052 14.461,7.117C13.75,7.171 12.956,7.407 12.196,7.626L13.061,10.629C13.943,10.374 14.381,10.257 14.698,10.233C14.822,10.223 14.87,10.235 14.879,10.238C14.883,10.239 14.909,10.244 14.974,10.293L16.867,7.807ZM12.195,7.626C10.795,8.031 9.521,8.639 8.565,9.452C7.61,10.264 6.852,11.396 6.852,12.79L9.977,12.79C9.977,12.612 10.067,12.277 10.59,11.832C11.112,11.388 11.946,10.951 13.062,10.628L12.195,7.626Z" fill="#408A7E"/>
<path d="M29.768,9.708C29.768,10.811 28.833,12.23 26.361,13.467C23.981,14.657 20.585,15.438 16.747,15.438L16.747,18.563C20.964,18.563 24.859,17.711 27.758,16.262C30.563,14.859 32.893,12.633 32.893,9.708L29.768,9.708ZM16.747,15.438C12.91,15.438 9.514,14.657 7.134,13.467C4.661,12.23 3.727,10.811 3.727,9.708L0.602,9.708C0.602,12.633 2.931,14.859 5.737,16.262C8.635,17.711 12.53,18.563 16.747,18.563L16.747,15.438ZM3.727,9.708C3.727,8.605 4.661,7.186 7.134,5.95C9.514,4.76 12.91,3.979 16.747,3.979L16.747,0.854C12.53,0.854 8.635,1.706 5.737,3.155C2.931,4.557 0.602,6.784 0.602,9.708L3.727,9.708ZM16.747,3.979C20.585,3.979 23.981,4.76 26.361,5.95C28.833,7.186 29.768,8.605 29.768,9.708L32.893,9.708C32.893,6.784 30.563,4.557 27.758,3.155C24.859,1.706 20.964,0.854 16.747,0.854L16.747,3.979Z" fill="#408A7E"/>
<path d="M3.727,10.75C3.727,9.887 3.027,9.188 2.164,9.188C1.301,9.188 0.602,9.887 0.602,10.75L3.727,10.75ZM16.747,15.438C15.884,15.438 15.185,16.137 15.185,17C15.185,17.863 15.884,18.563 16.747,18.563L16.747,15.438ZM33.935,31.583C33.935,32.446 34.634,33.146 35.497,33.146C36.36,33.146 37.06,32.446 37.06,31.583L33.935,31.583ZM37.06,27.417C37.06,26.554 36.36,25.854 35.497,25.854C34.634,25.854 33.935,26.554 33.935,27.417L37.06,27.417ZM25.602,31.583C25.602,32.446 26.301,33.146 27.164,33.146C28.027,33.146 28.726,32.446 28.726,31.583L25.602,31.583ZM28.726,27.417C28.726,26.554 28.027,25.854 27.164,25.854C26.301,25.854 25.602,26.554 25.602,27.417L28.726,27.417ZM17.268,31.583C17.268,32.446 17.968,33.146 18.831,33.146C19.694,33.146 20.393,32.446 20.393,31.583L17.268,31.583ZM20.393,27.417C20.393,26.554 19.694,25.854 18.831,25.854C17.968,25.854 17.268,26.554 17.268,27.417L20.393,27.417ZM8.935,30.542C8.935,31.405 9.634,32.104 10.497,32.104C11.36,32.104 12.06,31.405 12.06,30.542L8.935,30.542ZM12.06,26.375C12.06,25.512 11.36,24.813 10.497,24.813C9.634,24.813 8.935,25.512 8.935,26.375L12.06,26.375ZM0.602,10.75L0.602,24.64L3.727,24.64L3.727,10.75L0.602,10.75ZM0.602,24.64C0.602,27.507 2.989,29.638 5.764,30.96C8.655,32.337 12.54,33.146 16.747,33.146L16.747,30.021C12.9,30.021 9.494,29.275 7.107,28.138C4.604,26.946 3.727,25.605 3.727,24.64L0.602,24.64ZM16.747,33.146L39.664,33.146L39.664,30.021L16.747,30.021L16.747,33.146ZM39.664,33.146C40.602,33.146 41.463,33.149 42.158,33.056C42.899,32.956 43.681,32.721 44.325,32.078L42.115,29.868C42.114,29.869 42.114,29.869 42.115,29.869C42.116,29.868 42.116,29.868 42.116,29.868C42.116,29.868 42.114,29.869 42.11,29.871C42.106,29.873 42.099,29.877 42.089,29.881C42.043,29.9 41.943,29.931 41.742,29.958C41.303,30.018 40.691,30.021 39.664,30.021L39.664,33.146ZM44.325,32.078C44.969,31.434 45.203,30.652 45.303,29.911C45.396,29.215 45.393,28.355 45.393,27.417L42.268,27.417C42.268,28.443 42.265,29.055 42.206,29.494C42.179,29.695 42.147,29.796 42.128,29.841C42.124,29.852 42.121,29.859 42.118,29.863C42.116,29.867 42.115,29.868 42.115,29.869C42.115,29.869 42.115,29.868 42.116,29.868C42.116,29.867 42.116,29.867 42.115,29.868L44.325,32.078ZM45.393,27.417L45.393,21.167L42.268,21.167L42.268,27.417L45.393,27.417ZM45.393,21.167C45.393,20.229 45.396,19.368 45.303,18.672C45.203,17.932 44.969,17.149 44.325,16.506L42.115,18.715C42.116,18.716 42.116,18.716 42.116,18.716C42.115,18.715 42.115,18.715 42.115,18.715C42.115,18.715 42.116,18.717 42.118,18.721C42.121,18.725 42.124,18.732 42.128,18.742C42.147,18.787 42.179,18.888 42.206,19.089C42.265,19.528 42.268,20.14 42.268,21.167L45.393,21.167ZM44.325,16.506C43.681,15.862 42.899,15.627 42.158,15.528C41.463,15.434 40.602,15.438 39.664,15.438L39.664,18.563C40.691,18.563 41.303,18.566 41.742,18.625C41.943,18.652 42.043,18.684 42.089,18.702C42.099,18.707 42.106,18.71 42.11,18.712C42.114,18.714 42.116,18.715 42.116,18.716C42.116,18.716 42.116,18.715 42.115,18.715C42.114,18.714 42.114,18.714 42.115,18.715L44.325,16.506ZM39.664,15.438L16.747,15.438L16.747,18.563L39.664,18.563L39.664,15.438ZM37.06,31.583L37.06,27.417L33.935,27.417L33.935,31.583L37.06,31.583ZM28.726,31.583L28.726,27.417L25.602,27.417L25.602,31.583L28.726,31.583ZM20.393,31.583L20.393,27.417L17.268,27.417L17.268,31.583L20.393,31.583ZM12.06,30.542L12.06,26.375L8.935,26.375L8.935,30.542L12.06,30.542Z" fill="#408A7E"/>
</svg>
