<svg width="64" height="72" viewBox="0 0 64 72" fill="none" xmlns="http://www.w3.org/2000/svg" xmlns:xlink="http://www.w3.org/1999/xlink">
<path d="M53.541,44.844C56.215,40.281 57.774,34.822 57.774,28.961C57.774,12.992 46.211,0 31.999,0C17.787,0 6.224,12.992 6.224,28.961C6.224,34.822 7.783,40.281 10.457,44.844L0.375,61.365L11.912,58.949L14.063,71.911L23.571,56.33C26.213,57.361 29.049,57.922 31.999,57.922C34.95,57.922 37.785,57.361 40.427,56.33L49.936,71.911L52.086,58.949L63.623,61.365L53.541,44.844ZM16.102,61.076L14.928,54.005L8.636,55.324L12.882,48.365C14.916,50.892 17.34,53.014 20.046,54.613L16.102,61.076ZM9.996,28.961C9.996,15.329 19.867,4.238 31.999,4.238C44.132,4.238 54.002,15.329 54.002,28.961C54.002,42.594 44.132,53.684 31.999,53.684C19.867,53.684 9.996,42.594 9.996,28.961L9.996,28.961ZM49.07,54.005L47.896,61.076L43.953,54.613C46.659,53.014 49.083,50.892 51.117,48.365L55.363,55.323L49.07,54.005Z" fill="#000000"/>
<path d="M27.404,35.321L21.271,28.431L18.604,31.428L27.404,41.315L45.394,21.102L42.727,18.106L27.404,35.321Z" fill="#000000"/>
</svg>
