<svg width="36" height="40" viewBox="0 0 36 40" fill="none" xmlns="http://www.w3.org/2000/svg" xmlns:xlink="http://www.w3.org/1999/xlink">
<path d="M35.365,7.5L18.424,0.088C18.29,0.03 18.146,0 18,0C17.854,0 17.71,0.03 17.576,0.088L0.635,7.5C0.447,7.583 0.286,7.718 0.173,7.89C0.06,8.063 0,8.264 0,8.47L0,29.647C0,29.842 0.054,30.033 0.156,30.2C0.258,30.366 0.404,30.501 0.578,30.59L17.519,39.209C17.668,39.285 17.833,39.324 18,39.324C18.165,39.324 18.328,39.285 18.475,39.212L35.417,30.699C35.592,30.611 35.74,30.476 35.843,30.308C35.946,30.141 36,29.949 36,29.752L36,8.47C36,8.264 35.94,8.063 35.827,7.89C35.714,7.718 35.553,7.583 35.365,7.5L35.365,7.5ZM18,2.213L32.299,8.47L18,14.727L14.284,13.1L19.939,10.626C20.127,10.543 20.288,10.408 20.4,10.235C20.513,10.063 20.573,9.862 20.573,9.656C20.573,9.45 20.513,9.249 20.4,9.077C20.288,8.904 20.127,8.769 19.939,8.686L15.395,6.705C15.262,6.647 15.118,6.617 14.972,6.617C14.826,6.617 14.682,6.647 14.548,6.705L7.104,9.959L3.706,8.47L18,2.213ZM8.471,12.868L10.588,13.795L10.588,18.404L8.471,17.345L8.471,12.868ZM9.741,11.115L14.968,8.831L16.863,9.658L11.647,11.944L9.741,11.115ZM2.118,10.089L6.353,11.942L6.353,17.999C6.353,18.196 6.408,18.389 6.511,18.557C6.614,18.724 6.762,18.859 6.938,18.947L11.174,21.065C11.335,21.145 11.515,21.184 11.695,21.175C11.875,21.167 12.051,21.113 12.204,21.018C12.358,20.923 12.484,20.791 12.572,20.633C12.66,20.475 12.706,20.298 12.706,20.117L12.706,14.717L16.941,16.57L16.941,36.538L2.118,28.997L2.118,10.089ZM19.059,36.548L19.059,16.574L33.882,10.089L33.882,29.099L19.059,36.548Z" fill="#298AFF"/>
<path d="M24.943,28.834L20.7,30.967C20.449,31.093 20.259,31.314 20.171,31.581C20.083,31.848 20.104,32.138 20.23,32.389C20.357,32.64 20.578,32.831 20.844,32.919C21.111,33.007 21.402,32.985 21.653,32.859L25.896,30.727C26.147,30.6 26.337,30.379 26.425,30.113C26.513,29.846 26.492,29.555 26.365,29.304C26.239,29.053 26.018,28.863 25.751,28.775C25.484,28.687 25.194,28.708 24.943,28.834Z" fill="#298AFF"/>
<path d="M21.177,28.736C21.342,28.736 21.504,28.697 21.651,28.624L25.834,26.522C26.085,26.396 26.275,26.175 26.363,25.908C26.451,25.641 26.43,25.35 26.303,25.099C26.177,24.848 25.956,24.658 25.689,24.57C25.423,24.482 25.132,24.503 24.881,24.63L20.699,26.732C20.487,26.839 20.316,27.015 20.216,27.231C20.115,27.447 20.091,27.691 20.146,27.923C20.201,28.154 20.333,28.361 20.52,28.508C20.707,28.656 20.939,28.736 21.177,28.736Z" fill="#298AFF"/>
</svg>
