<svg width="36" height="40" viewBox="0 0 36 40" fill="none" xmlns="http://www.w3.org/2000/svg" xmlns:xlink="http://www.w3.org/1999/xlink">
<path d="M35.365,7.5L18.424,0.088C18.29,0.03 18.146,0 18,0C17.854,0 17.71,0.03 17.576,0.088L0.635,7.5C0.447,7.583 0.286,7.718 0.173,7.89C0.06,8.063 0,8.264 0,8.47L0,29.647C0,29.842 0.054,30.033 0.156,30.2C0.258,30.366 0.404,30.501 0.578,30.59L17.519,39.209C17.668,39.285 17.833,39.324 18,39.324C18.165,39.324 18.328,39.285 18.475,39.212L35.417,30.699C35.592,30.611 35.74,30.476 35.843,30.308C35.946,30.141 36,29.949 36,29.752L36,8.47C36,8.264 35.94,8.063 35.827,7.89C35.714,7.718 35.553,7.583 35.365,7.5L35.365,7.5ZM18,2.213L32.299,8.47L18,14.727L14.284,13.1L19.939,10.626C20.127,10.543 20.288,10.408 20.4,10.235C20.513,10.063 20.573,9.862 20.573,9.656C20.573,9.45 20.513,9.249 20.4,9.077C20.288,8.904 20.127,8.769 19.939,8.686L15.395,6.705C15.262,6.647 15.118,6.617 14.972,6.617C14.826,6.617 14.682,6.647 14.548,6.705L7.104,9.959L3.706,8.47L18,2.213ZM8.471,12.868L10.588,13.795L10.588,18.404L8.471,17.345L8.471,12.868ZM9.741,11.115L14.968,8.831L16.863,9.658L11.647,11.944L9.741,11.115ZM2.118,10.089L6.353,11.942L6.353,17.999C6.353,18.196 6.408,18.389 6.511,18.557C6.614,18.724 6.762,18.859 6.938,18.947L11.174,21.065C11.335,21.145 11.515,21.184 11.695,21.175C11.875,21.167 12.051,21.113 12.204,21.018C12.358,20.923 12.484,20.791 12.572,20.633C12.66,20.475 12.706,20.298 12.706,20.117L12.706,14.717L16.941,16.57L16.941,36.538L2.118,28.997L2.118,10.089ZM19.059,36.548L19.059,16.574L33.882,10.089L33.882,29.099L19.059,36.548Z" fill="#298AFF"/>
<path d="M24.944,28.834L20.701,30.967C20.45,31.093 20.26,31.314 20.172,31.581C20.083,31.848 20.105,32.138 20.231,32.389C20.358,32.64 20.579,32.831 20.845,32.919C21.112,33.007 21.403,32.985 21.654,32.859L25.897,30.727C26.148,30.6 26.338,30.379 26.426,30.113C26.514,29.846 26.493,29.555 26.366,29.304C26.24,29.053 26.019,28.863 25.752,28.775C25.485,28.687 25.195,28.708 24.944,28.834Z" fill="#298AFF"/>
<path d="M21.176,28.736C21.341,28.736 21.503,28.697 21.65,28.624L25.833,26.522C26.084,26.396 26.274,26.175 26.362,25.908C26.45,25.641 26.429,25.35 26.302,25.099C26.176,24.848 25.955,24.658 25.688,24.57C25.422,24.482 25.131,24.503 24.88,24.63L20.699,26.732C20.486,26.839 20.315,27.015 20.215,27.231C20.114,27.447 20.09,27.691 20.145,27.923C20.2,28.154 20.332,28.361 20.519,28.508C20.706,28.656 20.938,28.736 21.176,28.736Z" fill="#298AFF"/>
</svg>
