<svg width="62" height="54" viewBox="0 0 62 54" fill="none" xmlns="http://www.w3.org/2000/svg" xmlns:xlink="http://www.w3.org/1999/xlink">
<path d="M60.906,9.499L31.729,-0.858C31.499,-0.94 31.251,-0.982 31,-0.982C30.749,-0.982 30.501,-0.94 30.271,-0.858L1.094,9.499C0.769,9.614 0.492,9.804 0.298,10.045C0.104,10.285 0,10.567 0,10.855L0,40.447C0,40.72 0.093,40.988 0.269,41.22C0.444,41.453 0.696,41.642 0.996,41.766L30.172,53.81C30.429,53.916 30.712,53.971 31,53.971C31.284,53.971 31.564,53.917 31.819,53.814L60.995,41.918C61.297,41.795 61.551,41.606 61.729,41.372C61.906,41.139 62,40.87 62,40.595L62,10.855C62,10.567 61.896,10.285 61.702,10.045C61.508,9.804 61.231,9.614 60.906,9.499L60.906,9.499ZM31,2.111L55.627,10.855L31,19.598L24.599,17.325L34.339,13.867C34.664,13.752 34.94,13.562 35.134,13.321C35.328,13.081 35.431,12.799 35.431,12.512C35.431,12.224 35.328,11.943 35.134,11.702C34.94,11.461 34.664,11.272 34.339,11.156L26.514,8.388C26.284,8.307 26.036,8.265 25.785,8.265C25.534,8.265 25.285,8.307 25.055,8.388L12.234,12.935L6.382,10.855L31,2.111ZM14.588,17.001L18.235,18.296L18.235,24.737L14.588,23.257L14.588,17.001ZM16.776,14.551L25.777,11.359L29.042,12.515L20.059,15.709L16.776,14.551ZM3.647,13.117L10.941,15.706L10.941,24.171C10.941,24.446 11.035,24.716 11.213,24.95C11.392,25.184 11.646,25.373 11.95,25.496L19.244,28.455C19.522,28.568 19.831,28.621 20.141,28.609C20.452,28.598 20.754,28.522 21.018,28.39C21.282,28.257 21.501,28.072 21.652,27.851C21.803,27.631 21.882,27.383 21.882,27.131L21.882,19.585L29.176,22.174L29.176,50.078L3.647,39.54L3.647,13.117ZM32.824,50.092L32.824,22.18L58.353,13.117L58.353,39.682L32.824,50.092Z" fill="#000000"/>
<path d="M42.959,39.312L35.652,42.292C35.22,42.469 34.892,42.778 34.74,43.15C34.589,43.523 34.626,43.93 34.843,44.28C35.061,44.631 35.441,44.897 35.901,45.02C36.36,45.143 36.861,45.113 37.293,44.936L44.6,41.956C45.032,41.78 45.36,41.471 45.512,41.098C45.664,40.726 45.627,40.319 45.409,39.969C45.191,39.618 44.811,39.352 44.351,39.229C43.892,39.106 43.391,39.136 42.959,39.312Z" fill="#000000"/>
<path d="M36.471,39.175C36.754,39.175 37.034,39.121 37.288,39.018L44.491,36.081C44.923,35.904 45.251,35.596 45.402,35.223C45.554,34.85 45.517,34.444 45.299,34.093C45.082,33.742 44.701,33.476 44.242,33.353C43.782,33.23 43.282,33.26 42.849,33.437L35.648,36.374C35.282,36.524 34.988,36.769 34.815,37.072C34.642,37.374 34.6,37.714 34.695,38.038C34.79,38.362 35.017,38.65 35.34,38.857C35.662,39.063 36.06,39.175 36.471,39.175Z" fill="#000000"/>
</svg>
