<svg width="62" height="56" viewBox="0 0 62 56" fill="none" xmlns="http://www.w3.org/2000/svg" xmlns:xlink="http://www.w3.org/1999/xlink">
<path d="M60.906,11.147L31.729,0.789C31.499,0.708 31.251,0.666 31,0.666C30.749,0.666 30.501,0.708 30.271,0.789L1.094,11.147C0.769,11.262 0.492,11.451 0.298,11.692C0.104,11.933 0,12.214 0,12.502L0,42.095C0,42.368 0.093,42.635 0.269,42.868C0.444,43.1 0.696,43.289 0.996,43.413L30.172,55.457C30.429,55.563 30.712,55.619 31,55.619C31.284,55.618 31.564,55.564 31.819,55.462L60.995,43.565C61.297,43.442 61.551,43.253 61.729,43.02C61.906,42.786 62,42.517 62,42.243L62,12.502C62,12.214 61.896,11.933 61.702,11.692C61.508,11.451 61.231,11.262 60.906,11.147L60.906,11.147ZM31,3.759L55.627,12.502L31,21.245L24.599,18.972L34.339,15.515C34.664,15.399 34.94,15.21 35.134,14.969C35.328,14.728 35.431,14.447 35.431,14.159C35.431,13.872 35.328,13.59 35.134,13.35C34.94,13.109 34.664,12.919 34.339,12.804L26.514,10.036C26.284,9.954 26.036,9.912 25.785,9.912C25.534,9.912 25.285,9.954 25.055,10.036L12.234,14.582L6.382,12.502L31,3.759ZM14.588,18.648L18.235,19.943L18.235,26.384L14.588,24.904L14.588,18.648ZM16.776,16.198L25.777,13.007L29.042,14.162L20.059,17.357L16.776,16.198ZM3.647,14.764L10.941,17.354L10.941,25.819C10.941,26.094 11.035,26.363 11.213,26.597C11.392,26.831 11.646,27.02 11.95,27.143L19.244,30.102C19.522,30.215 19.831,30.268 20.141,30.257C20.452,30.245 20.754,30.17 21.018,30.037C21.282,29.904 21.501,29.719 21.652,29.499C21.803,29.278 21.882,29.03 21.882,28.778L21.882,21.232L29.176,23.821L29.176,51.726L3.647,41.188L3.647,14.764ZM32.824,51.739L32.824,23.827L58.353,14.764L58.353,41.33L32.824,51.739Z" fill="#408A7E"/>
<path d="M42.959,40.96L35.652,43.94C35.22,44.116 34.892,44.425 34.74,44.798C34.589,45.171 34.626,45.577 34.843,45.928C35.061,46.278 35.441,46.544 35.901,46.667C36.36,46.79 36.861,46.76 37.293,46.584L44.6,43.604C45.032,43.427 45.36,43.119 45.512,42.746C45.664,42.373 45.627,41.967 45.409,41.616C45.191,41.265 44.811,40.999 44.351,40.876C43.892,40.753 43.391,40.783 42.959,40.96Z" fill="#408A7E"/>
<path d="M36.471,40.822C36.754,40.822 37.034,40.769 37.288,40.665L44.491,37.728C44.923,37.552 45.251,37.243 45.402,36.87C45.554,36.497 45.517,36.091 45.299,35.74C45.082,35.39 44.701,35.124 44.242,35.001C43.782,34.878 43.282,34.908 42.849,35.084L35.648,38.021C35.282,38.171 34.988,38.417 34.815,38.719C34.642,39.021 34.6,39.362 34.695,39.686C34.79,40.009 35.017,40.298 35.34,40.504C35.662,40.711 36.06,40.823 36.471,40.822Z" fill="#408A7E"/>
</svg>
