<svg width="70" height="60" viewBox="0 0 70 60" fill="none" xmlns="http://www.w3.org/2000/svg" xmlns:xlink="http://www.w3.org/1999/xlink">
<path d="M52.4,-1C53.298,-1 54.187,-0.796 55.012,-0.4C55.838,-0.005 56.585,0.574 57.207,1.303L57.607,1.816L67.774,16.111C70.297,19.662 68.22,24.864 64.307,25.231L63.867,25.25L60.667,25.25L60.667,55.25C60.666,56.206 60.341,57.125 59.757,57.82C59.174,58.515 58.377,58.933 57.529,58.989C56.681,59.045 55.846,58.735 55.194,58.122C54.543,57.508 54.124,56.638 54.024,55.689L54,55.25L54,25.25L47.334,25.25L47.334,51.5C47.334,53.392 46.699,55.215 45.555,56.602C44.412,57.989 42.844,58.839 41.167,58.981L40.667,59L14,59C12.319,59 10.7,58.285 9.467,56.998C8.235,55.712 7.48,53.949 7.354,52.062L7.334,51.5L7.334,25.25L4.134,25.25C0.094,25.25 -2.22,20.176 -0.033,16.513L0.234,16.111L10.397,1.816C10.957,1.027 11.654,0.374 12.444,-0.105C13.235,-0.584 14.103,-0.878 14.997,-0.97L15.607,-1L52.4,-1ZM17.334,25.25L14,25.25L14,51.5L40.667,51.5L40.667,25.25L37.334,25.25L37.334,40.25C37.334,41.245 36.982,42.198 36.357,42.902C35.732,43.605 34.884,44 34,44L20.667,44C19.783,44 18.935,43.605 18.31,42.902C17.685,42.198 17.334,41.245 17.334,40.25L17.334,25.25ZM30.667,25.25L24,25.25L24,36.5L30.667,36.5L30.667,25.25ZM52.4,6.5L15.6,6.5L7.6,17.75L60.4,17.75L52.4,6.5Z" clip-rule="evenodd" fill-rule="evenodd" fill="#000000"/>
</svg>
