<svg width="42" height="42" viewBox="0 0 42 42" fill="none" xmlns="http://www.w3.org/2000/svg" xmlns:xlink="http://www.w3.org/1999/xlink">
<path d="M31.416,2.462C34.583,4.291 37.213,6.921 39.042,10.088C40.87,13.255 41.833,16.848 41.833,20.505C41.833,24.162 40.87,27.754 39.041,30.921C37.213,34.088 34.583,36.718 31.416,38.547C28.249,40.375 24.656,41.338 20.999,41.338C17.342,41.338 13.749,40.375 10.582,38.546C7.415,36.718 4.785,34.088 2.957,30.921C1.128,27.754 0.166,24.161 0.166,20.504L0.176,19.829C0.293,16.231 1.34,12.725 3.215,9.652C5.09,6.579 7.73,4.045 10.876,2.295C14.023,0.546 17.568,-0.358 21.168,-0.328C24.768,-0.299 28.299,0.662 31.416,2.462ZM20.999,8.004C20.447,8.004 19.917,8.223 19.526,8.614C19.136,9.005 18.916,9.535 18.916,10.087L18.916,19.387L13.593,22.937C13.168,23.221 12.863,23.65 12.734,24.144C12.605,24.638 12.661,25.162 12.893,25.616L13.016,25.825C13.168,26.053 13.363,26.248 13.59,26.401C13.817,26.553 14.072,26.659 14.341,26.713C14.609,26.767 14.885,26.767 15.154,26.714C15.422,26.661 15.678,26.556 15.906,26.404L22.212,22.2L22.393,22.054L22.547,21.898L22.703,21.702L22.812,21.535L22.885,21.389L22.991,21.114L23.056,20.833L23.076,20.662L23.083,20.504L23.083,10.087C23.083,9.535 22.863,9.005 22.472,8.614C22.082,8.223 21.552,8.004 20.999,8.004Z" fill="#408A7E"/>
</svg>
