<svg width="38" height="36" viewBox="0 0 38 36" fill="none" xmlns="http://www.w3.org/2000/svg" xmlns:xlink="http://www.w3.org/1999/xlink">
<path d="M26.488,22.888L25.54,23.831C25.54,23.831 23.284,26.073 17.128,19.952C10.972,13.831 13.228,11.59 13.228,11.59L13.824,10.994C15.297,9.531 15.436,7.181 14.151,5.465L11.526,1.958C9.934,-0.167 6.861,-0.448 5.038,1.365L1.767,4.615C0.865,5.515 0.261,6.677 0.334,7.969C0.522,11.275 2.017,18.385 10.359,26.681C19.207,35.477 27.509,35.827 30.903,35.511C31.978,35.411 32.911,34.865 33.663,34.115L36.622,31.173C38.622,29.188 38.059,25.781 35.501,24.392L31.522,22.227C29.842,21.317 27.801,21.583 26.488,22.888Z" fill="#408A7E"/>
</svg>
