<svg width="22" height="40" viewBox="0 0 22 40" fill="none" xmlns="http://www.w3.org/2000/svg" xmlns:xlink="http://www.w3.org/1999/xlink">
<path d="M14.335,0.997C11.779,0.997 9.328,2.012 7.521,3.819C5.714,5.626 4.699,8.077 4.699,10.632L4.699,15.997L-0.457,15.997C-0.715,15.997 -0.926,16.205 -0.926,16.466L-0.926,23.549C-0.926,23.807 -0.717,24.018 -0.457,24.018L4.699,24.018L4.699,38.549C4.699,38.807 4.908,39.018 5.168,39.018L12.251,39.018C12.51,39.018 12.72,38.809 12.72,38.549L12.72,24.018L17.922,24.018C18.137,24.018 18.324,23.872 18.376,23.663L20.147,16.58C20.165,16.511 20.166,16.439 20.151,16.369C20.137,16.299 20.106,16.234 20.062,16.178C20.019,16.121 19.963,16.076 19.899,16.045C19.835,16.013 19.764,15.997 19.693,15.997L12.72,15.997L12.72,10.632C12.72,10.42 12.762,10.21 12.843,10.014C12.924,9.818 13.043,9.64 13.193,9.491C13.343,9.341 13.521,9.222 13.717,9.141C13.913,9.059 14.123,9.018 14.335,9.018L19.751,9.018C20.01,9.018 20.22,8.809 20.22,8.549L20.22,1.466C20.22,1.207 20.012,0.997 19.751,0.997L14.335,0.997Z" fill="#408A7E"/>
</svg>
