<svg width="28" height="24" viewBox="0 0 28 24" fill="none" xmlns="http://www.w3.org/2000/svg" xmlns:xlink="http://www.w3.org/1999/xlink">
<path d="M22.958,22.563L3.625,22.563C1.626,22.563 0,20.736 0,18.49L0,4.913C0,2.667 1.626,0.84 3.625,0.84L22.958,0.84C24.957,0.84 26.583,2.667 26.583,4.913L26.583,18.49C26.583,20.736 24.957,22.563 22.958,22.563ZM3.625,3.555C2.96,3.555 2.417,4.164 2.417,4.913L2.417,18.49C2.417,19.239 2.96,19.848 3.625,19.848L22.958,19.848C23.623,19.848 24.167,19.239 24.167,18.49L24.167,4.913C24.167,4.164 23.623,3.555 22.958,3.555L3.625,3.555Z" fill="#408A7E"/>
</svg>
