<svg width="32" height="28" viewBox="0 0 32 28" fill="none" xmlns="http://www.w3.org/2000/svg" xmlns:xlink="http://www.w3.org/1999/xlink">
<path d="M29,15.996L18.166,15.996L18.166,25.996C18.166,26.526 17.938,27.035 17.532,27.41C17.125,27.785 16.574,27.996 16,27.996C15.425,27.996 14.874,27.785 14.468,27.41C14.061,27.035 13.833,26.526 13.833,25.996L13.833,15.996L3,15.996C2.425,15.996 1.874,15.785 1.468,15.41C1.061,15.035 0.833,14.527 0.833,13.996C0.833,13.466 1.061,12.957 1.468,12.582C1.874,12.207 2.425,11.996 3,11.996L13.833,11.996L13.833,1.996C13.833,1.466 14.061,0.957 14.468,0.582C14.874,0.207 15.425,-0.004 16,-0.004C16.574,-0.004 17.125,0.207 17.532,0.582C17.938,0.957 18.166,1.466 18.166,1.996L18.166,11.996L29,11.996C29.574,11.996 30.125,12.207 30.532,12.582C30.938,12.957 31.166,13.466 31.166,13.996C31.166,14.527 30.938,15.035 30.532,15.41C30.125,15.785 29.574,15.996 29,15.996Z" fill="#408A7E"/>
</svg>
