<svg width="62" height="68" viewBox="0 0 62 68" fill="none" xmlns="http://www.w3.org/2000/svg" xmlns:xlink="http://www.w3.org/1999/xlink">
<path d="M0.639,39.815C-0.224,35.237 -0.224,30.506 0.639,25.928C3.969,26.366 6.879,25.129 7.827,22.553C8.778,19.975 7.503,16.789 4.869,14.453C7.14,10.531 10.117,7.186 13.608,4.634C15.684,7.59 18.522,9.026 20.817,7.958C23.112,6.889 24.213,3.623 23.82,-0.119C27.895,-1.088 32.105,-1.088 36.18,-0.119C35.79,3.623 36.891,6.892 39.183,7.958C41.478,9.026 44.313,7.594 46.392,4.634C49.883,7.186 52.86,10.531 55.131,14.453C52.5,16.786 51.222,19.975 52.173,22.553C53.124,25.132 56.031,26.369 59.361,25.928C60.223,30.506 60.223,35.237 59.361,39.815C56.031,39.377 53.121,40.614 52.173,43.19C51.222,45.768 52.497,48.954 55.131,51.29C52.86,55.212 49.883,58.557 46.392,61.109C44.316,58.153 41.478,56.717 39.183,57.785C36.888,58.854 35.787,62.12 36.18,65.862C32.105,66.831 27.895,66.831 23.82,65.862C24.21,62.12 23.109,58.851 20.817,57.785C18.522,56.717 15.687,58.149 13.608,61.109C10.117,58.557 7.14,55.212 4.869,51.29C7.5,48.957 8.778,45.768 7.827,43.19C6.876,40.611 3.969,39.374 0.639,39.815L0.639,39.815ZM6,33.579C9.3,34.607 12.021,36.957 13.371,40.611C14.718,44.268 14.271,48.094 12.585,51.438C12.873,51.782 13.17,52.116 13.476,52.439C16.455,50.545 19.857,50.046 23.112,51.556C26.364,53.073 28.455,56.13 29.37,59.838C29.79,59.852 30.21,59.852 30.63,59.838C31.545,56.13 33.636,53.073 36.888,51.556C40.143,50.043 43.548,50.545 46.524,52.439C46.83,52.116 47.127,51.782 47.415,51.438C45.729,48.091 45.285,44.268 46.629,40.611C47.979,36.957 50.7,34.607 54,33.579C54.012,33.107 54.012,32.636 54,32.164C50.7,31.135 47.979,28.786 46.629,25.132C45.282,21.475 45.729,17.649 47.415,14.305C47.126,13.962 46.828,13.629 46.524,13.304C43.545,15.198 40.143,15.697 36.888,14.187C33.636,12.67 31.545,9.613 30.63,5.905C30.21,5.892 29.79,5.892 29.37,5.905C28.455,9.613 26.364,12.67 23.112,14.187C19.857,15.7 16.452,15.198 13.476,13.304C13.17,13.627 12.873,13.961 12.585,14.305C14.271,17.652 14.715,21.475 13.371,25.132C12.021,28.786 9.3,31.135 6,32.164C5.988,32.636 5.988,33.107 6,33.579L6,33.579ZM30,42.984C27.613,42.984 25.324,41.919 23.636,40.022C21.948,38.126 21,35.553 21,32.871C21,30.189 21.948,27.617 23.636,25.721C25.324,23.824 27.613,22.759 30,22.759C32.387,22.759 34.676,23.824 36.364,25.721C38.051,27.617 39,30.189 39,32.871C39,35.553 38.051,38.126 36.364,40.022C34.676,41.919 32.387,42.984 30,42.984ZM30,36.242C30.795,36.242 31.558,35.887 32.121,35.255C32.684,34.623 33,33.765 33,32.871C33,31.977 32.684,31.12 32.121,30.488C31.558,29.856 30.795,29.501 30,29.501C29.204,29.501 28.441,29.856 27.878,30.488C27.316,31.12 27,31.977 27,32.871C27,33.765 27.316,34.623 27.878,35.255C28.441,35.887 29.204,36.242 30,36.242L30,36.242Z" fill="#000000"/>
</svg>
