<svg width="66" height="72" viewBox="0 0 66 72" fill="none" xmlns="http://www.w3.org/2000/svg" xmlns:xlink="http://www.w3.org/1999/xlink">
<path d="M11.544,70.333C9.453,70.333 7.674,69.638 6.205,68.249C4.737,66.859 4.003,65.176 4.003,63.2L4.003,8.5L-0.664,8.5L-0.664,4.083L18.003,4.083L18.003,0.682L46.003,0.682L46.003,4.083L64.669,4.083L64.669,8.5L60.003,8.5L60.003,63.2C60.003,65.232 59.284,66.929 57.847,68.293C56.409,69.656 54.614,70.336 52.461,70.333L11.544,70.333ZM55.336,8.5L8.669,8.5L8.669,63.2C8.669,63.992 8.938,64.643 9.477,65.152C10.015,65.662 10.704,65.917 11.544,65.917L52.466,65.917C53.182,65.917 53.84,65.634 54.44,65.069C55.04,64.503 55.339,63.879 55.336,63.196L55.336,8.5ZM21.773,57.083L26.44,57.083L26.44,17.333L21.773,17.333L21.773,57.083ZM37.565,57.083L42.232,57.083L42.232,17.333L37.565,17.333L37.565,57.083Z" fill="#000000"/>
</svg>
