<svg width="42" height="46" viewBox="0 0 42 46" fill="none" xmlns="http://www.w3.org/2000/svg" xmlns:xlink="http://www.w3.org/1999/xlink">
<path d="M40.855,28.145L36.625,23.916L36.625,18.313C36.62,14.44 35.18,10.708 32.582,7.836C29.985,4.964 26.415,3.158 22.563,2.766L22.563,-0.438L19.438,-0.438L19.438,2.766C15.585,3.158 12.015,4.964 9.418,7.836C6.82,10.708 5.38,14.44 5.375,18.313L5.375,23.916L1.145,28.145C0.852,28.438 0.688,28.836 0.688,29.25L0.688,33.938C0.688,34.352 0.852,34.749 1.145,35.042C1.438,35.335 1.836,35.5 2.25,35.5L13.188,35.5L13.188,36.714C13.153,38.697 13.851,40.622 15.149,42.121C16.446,43.62 18.252,44.587 20.219,44.837C21.305,44.945 22.402,44.824 23.439,44.483C24.475,44.141 25.429,43.587 26.238,42.854C27.048,42.122 27.695,41.228 28.138,40.231C28.582,39.233 28.811,38.154 28.813,37.063L28.813,35.5L39.75,35.5C40.164,35.5 40.562,35.335 40.855,35.042C41.148,34.749 41.313,34.352 41.313,33.938L41.313,29.25C41.313,28.836 41.148,28.438 40.855,28.145ZM25.688,37.063C25.688,38.306 25.194,39.498 24.315,40.377C23.435,41.256 22.243,41.75 21,41.75C19.757,41.75 18.565,41.256 17.685,40.377C16.806,39.498 16.313,38.306 16.313,37.063L16.313,35.5L25.688,35.5L25.688,37.063ZM38.188,32.375L3.813,32.375L3.813,29.897L8.042,25.667C8.335,25.374 8.5,24.977 8.5,24.563L8.5,18.313C8.5,14.997 9.817,11.818 12.161,9.474C14.505,7.129 17.685,5.813 21,5.813C24.315,5.813 27.495,7.129 29.839,9.474C32.183,11.818 33.5,14.997 33.5,18.313L33.5,24.563C33.5,24.977 33.665,25.374 33.958,25.667L38.188,29.897L38.188,32.375Z" fill="#FFFFFF"/>
</svg>
