<svg width="28" height="28" viewBox="0 0 28 28" fill="none" xmlns="http://www.w3.org/2000/svg" xmlns:xlink="http://www.w3.org/1999/xlink">
<path d="M22.376,27.684L3.043,27.684C1.044,27.684 -0.582,26.364 -0.582,24.743L-0.582,3.173C-0.582,1.551 1.044,0.231 3.043,0.231L22.376,0.231C24.375,0.231 26.001,1.551 26.001,3.173L26.001,24.743C26.001,26.364 24.375,27.684 22.376,27.684ZM3.043,2.192C2.378,2.192 1.835,2.632 1.835,3.173L1.835,24.743C1.835,25.284 2.378,25.723 3.043,25.723L22.376,25.723C23.041,25.723 23.585,25.284 23.585,24.743L23.585,3.173C23.585,2.632 23.041,2.192 22.376,2.192L3.043,2.192Z" fill="#000000"/>
</svg>
