<svg width="42" height="40" viewBox="0 0 42 40" fill="none" xmlns="http://www.w3.org/2000/svg" xmlns:xlink="http://www.w3.org/1999/xlink">
<path d="M17.057,35.667C17.057,36.496 17.406,37.29 18.026,37.876C18.646,38.462 19.487,38.792 20.364,38.792C21.241,38.792 22.082,38.462 22.702,37.876C23.322,37.29 23.67,36.496 23.67,35.667L23.67,22.125L37.999,22.125C38.876,22.125 39.717,21.796 40.337,21.21C40.957,20.624 41.306,19.829 41.306,19C41.306,18.171 40.957,17.376 40.337,16.79C39.717,16.204 38.876,15.875 37.999,15.875L23.67,15.875L23.67,2.333C23.67,1.505 23.322,0.71 22.702,0.124C22.082,-0.462 21.241,-0.792 20.364,-0.792C19.487,-0.792 18.646,-0.462 18.026,0.124C17.406,0.71 17.057,1.505 17.057,2.333L17.057,15.875L2.728,15.875C1.852,15.875 1.01,16.204 0.39,16.79C-0.23,17.376 -0.578,18.171 -0.578,19C-0.578,19.829 -0.23,20.624 0.39,21.21C1.01,21.796 1.852,22.125 2.728,22.125L17.057,22.125L17.057,35.667Z" fill="#000000"/>
</svg>
