<svg width="26" height="16" viewBox="0 0 26 16" fill="none" xmlns="http://www.w3.org/2000/svg" xmlns:xlink="http://www.w3.org/1999/xlink">
<path d="M22.375,15.293L3.042,15.293C1.043,15.293 -0.583,13.973 -0.583,12.352L-0.583,2.547C-0.583,0.926 1.043,-0.394 3.042,-0.394L22.375,-0.394C24.374,-0.394 26,0.926 26,2.547L26,12.352C26,13.973 24.374,15.293 22.375,15.293ZM3.042,1.567C2.377,1.567 1.834,2.006 1.834,2.547L1.834,12.352C1.834,12.893 2.377,13.332 3.042,13.332L22.375,13.332C23.04,13.332 23.584,12.893 23.584,12.352L23.584,2.547C23.584,2.006 23.04,1.567 22.375,1.567L3.042,1.567Z" fill="#000000"/>
</svg>
