<svg width="36" height="40" viewBox="0 0 36 40" fill="none" xmlns="http://www.w3.org/2000/svg" xmlns:xlink="http://www.w3.org/1999/xlink">
<path d="M15,14.945C8.866,14.649 4.602,16.836 2.208,21.505C-1.381,28.511 1.585,39.973 13.563,39.973C25.542,39.973 25.888,28.398 25.888,27.186L25.888,13.627C28.45,15.249 30.61,16.226 32.367,16.557C34.126,16.888 35.244,17.034 35.721,16.997L35.721,10.251C34.094,10.055 32.688,9.682 31.502,9.13C29.722,8.303 26.194,6.008 26.194,2.645C26.196,2.662 26.196,1.794 26.194,0.042L18.779,0.042C18.758,16.517 18.758,25.565 18.779,27.186C18.812,29.617 16.925,33.019 13.102,33.019C9.277,33.019 7.391,29.62 7.391,27.428C7.391,26.087 7.852,24.142 9.757,22.701C10.888,21.847 12.455,21.505 15,21.505L15,14.945Z" fill="#408A7E" stroke="#408A7E" stroke-width="1.996" stroke-miterlimit="3.999327" stroke-linejoin="round"/>
</svg>
