<svg width="34" height="44" viewBox="0 0 34 44" fill="none" xmlns="http://www.w3.org/2000/svg" xmlns:xlink="http://www.w3.org/1999/xlink">
<path d="M17.001,33.417C18.106,33.417 19.166,32.978 19.947,32.196C20.728,31.415 21.167,30.355 21.167,29.25C21.167,28.145 20.728,27.085 19.947,26.304C19.166,25.522 18.106,25.083 17.001,25.083C15.896,25.083 14.836,25.522 14.054,26.304C13.273,27.085 12.834,28.145 12.834,29.25C12.834,30.355 13.273,31.415 14.054,32.196C14.836,32.978 15.896,33.417 17.001,33.417ZM29.501,14.667C30.606,14.667 31.666,15.106 32.447,15.887C33.228,16.668 33.667,17.728 33.667,18.833L33.667,39.667C33.667,40.772 33.228,41.832 32.447,42.613C31.666,43.394 30.606,43.833 29.501,43.833L4.501,43.833C3.396,43.833 2.336,43.394 1.554,42.613C0.773,41.832 0.334,40.772 0.334,39.667L0.334,18.833C0.334,17.728 0.773,16.668 1.554,15.887C2.336,15.106 3.396,14.667 4.501,14.667L6.584,14.667L6.584,10.5C6.584,7.737 7.681,5.088 9.635,3.134C11.588,1.181 14.238,0.083 17.001,0.083C18.369,0.083 19.723,0.353 20.987,0.876C22.251,1.4 23.399,2.167 24.366,3.134C25.334,4.102 26.101,5.25 26.624,6.514C27.148,7.778 27.417,9.132 27.417,10.5L27.417,14.667L29.501,14.667ZM17.001,4.25C15.343,4.25 13.753,4.908 12.581,6.081C11.409,7.253 10.751,8.842 10.751,10.5L10.751,14.667L23.251,14.667L23.251,10.5C23.251,8.842 22.592,7.253 21.42,6.081C20.248,4.908 18.658,4.25 17.001,4.25Z" fill="#408A7E"/>
</svg>
