<svg width="26" height="8" viewBox="0 0 26 8" fill="none" xmlns="http://www.w3.org/2000/svg" xmlns:xlink="http://www.w3.org/1999/xlink">
<path d="M2.859,0.787C1.785,0.528 0.705,1.189 0.446,2.263C0.188,3.337 0.849,4.417 1.923,4.676L2.859,0.787ZM9.588,4.463L9.12,6.408C9.413,6.478 9.717,6.482 10.011,6.418L9.588,4.463ZM23.606,3.474C24.686,3.24 25.372,2.175 25.138,1.096C24.904,0.016 23.839,-0.67 22.76,-0.436L23.606,3.474ZM1.923,4.676L9.12,6.408L10.056,2.519L2.859,0.787L1.923,4.676ZM10.011,6.418L23.606,3.474L22.76,-0.436L9.165,2.509L10.011,6.418Z" fill="#FFFFFF"/>
</svg>
