<svg width="26" height="28" viewBox="0 0 26 28" fill="none" xmlns="http://www.w3.org/2000/svg" xmlns:xlink="http://www.w3.org/1999/xlink">
<path d="M22.372,27.684L3.039,27.684C1.04,27.684 -0.586,26.364 -0.586,24.743L-0.586,3.173C-0.586,1.551 1.04,0.231 3.039,0.231L22.372,0.231C24.371,0.231 25.997,1.551 25.997,3.173L25.997,24.743C25.997,26.364 24.371,27.684 22.372,27.684ZM3.039,2.192C2.374,2.192 1.831,2.632 1.831,3.173L1.831,24.743C1.831,25.284 2.374,25.723 3.039,25.723L22.372,25.723C23.037,25.723 23.581,25.284 23.581,24.743L23.581,3.173C23.581,2.632 23.037,2.192 22.372,2.192L3.039,2.192Z" fill="#000000"/>
</svg>
