<svg width="26" height="8" viewBox="0 0 26 8" fill="none" xmlns="http://www.w3.org/2000/svg" xmlns:xlink="http://www.w3.org/1999/xlink">
<path d="M3.027,0.787C1.953,0.528 0.873,1.189 0.614,2.263C0.356,3.337 1.017,4.417 2.091,4.676L3.027,0.787ZM9.756,4.463L9.288,6.408C9.581,6.478 9.885,6.482 10.179,6.418L9.756,4.463ZM23.774,3.474C24.854,3.24 25.54,2.175 25.306,1.096C25.072,0.016 24.007,-0.67 22.928,-0.436L23.774,3.474ZM2.091,4.676L9.288,6.408L10.224,2.519L3.027,0.787L2.091,4.676ZM10.179,6.418L23.774,3.474L22.928,-0.436L9.333,2.509L10.179,6.418Z" fill="#FFFFFF"/>
</svg>
