<svg width="28" height="28" viewBox="0 0 28 28" fill="none" xmlns="http://www.w3.org/2000/svg" xmlns:xlink="http://www.w3.org/1999/xlink">
<path d="M21.56,12.318C21.279,12.037 20.898,11.879 20.5,11.879C20.102,11.879 19.721,12.037 19.44,12.318L15.5,16.258L15.5,1.5C15.5,1.102 15.342,0.721 15.061,0.439C14.779,0.158 14.398,0 14,0C13.602,0 13.221,0.158 12.939,0.439C12.658,0.721 12.5,1.102 12.5,1.5L12.5,16.258L8.56,12.318C8.276,12.053 7.9,11.909 7.511,11.916C7.122,11.923 6.752,12.08 6.477,12.355C6.202,12.63 6.045,13 6.038,13.389C6.031,13.778 6.175,14.154 6.44,14.438L12.94,20.938L14,22L15.06,20.94L21.56,14.44C21.699,14.301 21.81,14.135 21.885,13.953C21.961,13.771 22,13.576 22,13.379C22,13.182 21.961,12.987 21.885,12.805C21.81,12.623 21.699,12.457 21.56,12.318ZM3,17.5C3,17.303 2.961,17.108 2.886,16.926C2.81,16.744 2.7,16.579 2.561,16.439C2.421,16.3 2.256,16.19 2.074,16.114C1.892,16.039 1.697,16 1.5,16C1.303,16 1.108,16.039 0.926,16.114C0.744,16.19 0.579,16.3 0.439,16.439C0.3,16.579 0.19,16.744 0.114,16.926C0.039,17.108 0,17.303 0,17.5L0,24C0,25.061 0.421,26.078 1.172,26.828C1.922,27.579 2.939,28 4,28L24,28C25.061,28 26.078,27.579 26.828,26.828C27.579,26.078 28,25.061 28,24L28,17.5C28,17.102 27.842,16.721 27.561,16.439C27.279,16.158 26.898,16 26.5,16C26.102,16 25.721,16.158 25.439,16.439C25.158,16.721 25,17.102 25,17.5L25,24C25,24.265 24.895,24.52 24.707,24.707C24.52,24.895 24.265,25 24,25L4,25C3.735,25 3.48,24.895 3.293,24.707C3.105,24.52 3,24.265 3,24L3,17.5Z" clip-rule="evenodd" fill-rule="evenodd" transform="rotate(0 14 14)" fill="#408A7E"/>
</svg>
