<svg width="32" height="42" viewBox="0 0 32 42" fill="none" xmlns="http://www.w3.org/2000/svg" xmlns:xlink="http://www.w3.org/1999/xlink">
<path d="M25.835,13.686L27.249,15.217C27.269,15.198 27.289,15.179 27.309,15.16L25.835,13.686ZM24.25,13.709L25.618,12.138C25.61,12.131 25.602,12.124 25.594,12.117L24.25,13.709ZM16.627,10.918L16.629,8.834L16.627,8.834L16.627,10.918ZM17.338,17.686L16.607,19.637C16.63,19.646 16.654,19.655 16.678,19.663L17.338,17.686ZM15.585,35.655L15.461,33.575C14.528,33.631 13.747,34.301 13.549,35.215L15.585,35.655ZM14.971,38.497L12.935,38.056L12.933,38.061L14.971,38.497ZM13.833,39.42L13.833,41.503L13.839,41.503L13.833,39.42ZM9.596,39.42L9.372,41.491C9.447,41.499 9.521,41.503 9.596,41.503L9.596,39.42ZM9.383,39.397L8.921,41.428C9,41.446 9.08,41.459 9.16,41.468L9.383,39.397ZM8.483,38.001L6.449,37.553C6.447,37.563 6.444,37.573 6.442,37.584L8.483,38.001ZM9.146,34.993L11.18,35.441C11.423,34.339 10.745,33.244 9.65,32.971L9.146,34.993ZM2.327,31.276L0.244,31.276C0.244,31.851 0.482,32.401 0.901,32.795L2.327,31.276ZM2.327,31.253L4.41,31.253C4.41,30.698 4.189,30.167 3.796,29.776L2.327,31.253ZM2.327,29.643L0.877,28.146L0.858,28.165L2.327,29.643ZM4.696,27.347L3.273,25.825C3.264,25.833 3.255,25.842 3.246,25.851L4.696,27.347ZM6.281,27.347L7.711,25.832L7.704,25.825L6.281,27.347ZM14.306,30.472L14.306,28.388C14.297,28.388 14.287,28.388 14.277,28.389L14.306,30.472ZM13.431,23.038L14.16,21.086L14.133,21.077L13.431,23.038ZM15.704,5.732L15.8,7.813C16.754,7.769 17.556,7.083 17.746,6.147L15.704,5.732ZM16.296,2.82L14.258,2.388L14.254,2.405L16.296,2.82ZM17.431,1.92L17.386,4.003C17.401,4.003 17.416,4.003 17.431,4.003L17.431,1.92ZM21.646,1.92L21.864,-0.152C21.791,-0.16 21.719,-0.164 21.646,-0.164L21.646,1.92ZM21.883,1.945L22.311,-0.094C22.242,-0.109 22.172,-0.12 22.101,-0.127L21.883,1.945ZM22.758,3.293L20.722,2.854C20.719,2.866 20.717,2.878 20.714,2.89L22.758,3.293ZM22.119,6.536L20.075,6.133C19.872,7.164 20.467,8.184 21.464,8.514L22.119,6.536ZM27.99,9.828L29.43,8.323C29.399,8.293 29.368,8.265 29.335,8.238L27.99,9.828ZM28.038,9.874L29.55,8.441C29.526,8.416 29.502,8.392 29.478,8.368L28.038,9.874ZM28.038,11.484L26.607,9.97C26.593,9.983 26.578,9.997 26.564,10.011L28.038,11.484ZM24.422,12.156C24.585,12.006 24.796,11.921 25.017,11.918L25.077,16.084C25.883,16.073 26.656,15.764 27.249,15.217L24.422,12.156ZM25.017,11.918C25.238,11.915 25.452,11.993 25.618,12.138L22.882,15.28C23.49,15.81 24.271,16.096 25.077,16.084L25.017,11.918ZM25.594,12.117C23.086,10 19.911,8.837 16.629,8.834L16.625,13.001C18.925,13.003 21.149,13.818 22.906,15.301L25.594,12.117ZM16.627,8.834C15.304,8.834 13.777,9.044 12.501,9.715C11.124,10.437 9.95,11.778 9.95,13.78L14.117,13.78C14.117,13.656 14.143,13.627 14.147,13.621C14.164,13.597 14.234,13.511 14.438,13.404C14.884,13.169 15.655,13.001 16.627,13.001L16.627,8.834ZM9.95,13.78C9.95,15.887 11.271,17.16 12.555,17.924C13.734,18.625 15.326,19.158 16.607,19.637L18.068,15.735C16.507,15.151 15.447,14.796 14.684,14.342C14.027,13.952 14.117,13.804 14.117,13.78L9.95,13.78ZM16.678,19.663C19.136,20.482 21.097,21.323 22.435,22.407C23.666,23.405 24.344,24.578 24.344,26.305L28.51,26.305C28.51,23.155 27.129,20.848 25.058,19.17C23.094,17.579 20.51,16.549 17.997,15.71L16.678,19.663ZM24.344,26.305C24.344,28.37 23.563,30.027 22.161,31.245C20.723,32.494 18.49,33.394 15.461,33.575L15.71,37.735C19.403,37.514 22.592,36.39 24.894,34.39C27.232,32.359 28.51,29.542 28.51,26.305L24.344,26.305ZM13.549,35.215L12.935,38.056L17.007,38.937L17.622,36.095L13.549,35.215ZM12.933,38.061C12.977,37.857 13.09,37.673 13.252,37.541L15.878,40.777C16.454,40.309 16.853,39.658 17.008,38.932L12.933,38.061ZM13.252,37.541C13.415,37.409 13.618,37.337 13.827,37.336L13.839,41.503C14.582,41.501 15.301,41.245 15.878,40.777L13.252,37.541ZM13.833,37.336L9.596,37.336L9.596,41.503L13.833,41.503L13.833,37.336ZM9.819,37.348L9.607,37.325L9.16,41.468L9.372,41.491L9.819,37.348ZM9.845,37.365C10.074,37.417 10.273,37.557 10.4,37.753L6.898,40.011C7.361,40.73 8.087,41.239 8.921,41.428L9.845,37.365ZM10.4,37.753C10.527,37.95 10.571,38.189 10.524,38.418L6.442,37.584C6.271,38.421 6.434,39.293 6.898,40.011L10.4,37.753ZM10.518,38.449L11.18,35.441L7.111,34.545L6.449,37.553L10.518,38.449ZM9.65,32.971C7.442,32.42 5.412,31.314 3.753,29.757L0.901,32.795C3.079,34.839 5.744,36.291 8.642,37.014L9.65,32.971ZM4.41,31.276L4.41,31.253L0.244,31.253L0.244,31.276L4.41,31.276ZM3.796,29.776C3.885,29.864 3.955,29.968 4.003,30.084L0.156,31.684C0.319,32.076 0.557,32.431 0.858,32.73L3.796,29.776ZM4.003,30.084C4.051,30.199 4.076,30.323 4.076,30.448L-0.091,30.448C-0.091,30.872 -0.007,31.292 0.156,31.684L4.003,30.084ZM4.076,30.448C4.076,30.573 4.051,30.696 4.003,30.812L0.156,29.212C-0.007,29.603 -0.091,30.024 -0.091,30.448L4.076,30.448ZM4.003,30.812C3.955,30.927 3.885,31.032 3.796,31.12L0.858,28.165C0.557,28.464 0.319,28.82 0.156,29.212L4.003,30.812ZM3.777,31.139L6.146,28.843L3.246,25.851L0.877,28.147L3.777,31.139ZM6.118,28.869C5.763,29.2 5.214,29.2 4.859,28.869L7.704,25.825C6.457,24.66 4.52,24.66 3.273,25.825L6.118,28.869ZM4.851,28.862C7.412,31.279 10.814,32.604 14.335,32.555L14.277,28.389C11.839,28.423 9.484,27.505 7.711,25.832L4.851,28.862ZM14.306,32.555C16.105,32.555 17.823,32.18 19.163,31.311C20.568,30.4 21.527,28.943 21.527,27.109L17.36,27.109C17.36,27.336 17.29,27.56 16.896,27.815C16.437,28.113 15.587,28.388 14.306,28.388L14.306,32.555ZM21.527,27.109C21.527,26.209 21.289,25.359 20.759,24.609C20.259,23.901 19.59,23.41 18.943,23.041C17.738,22.355 15.975,21.764 14.16,21.087L12.703,24.99C14.817,25.779 16.06,26.194 16.879,26.661C17.244,26.869 17.341,26.993 17.355,27.012C17.357,27.015 17.357,27.015 17.355,27.011C17.354,27.009 17.353,27.007 17.352,27.006C17.352,27.004 17.352,27.003 17.352,27.003C17.352,27.003 17.352,27.005 17.353,27.008C17.353,27.011 17.355,27.017 17.356,27.025C17.358,27.041 17.36,27.068 17.36,27.109L21.527,27.109ZM14.133,21.077C12.099,20.349 10.383,19.555 9.185,18.5C8.076,17.524 7.394,16.317 7.394,14.516L3.227,14.516C3.227,17.637 4.522,19.946 6.432,21.627C8.252,23.23 10.597,24.237 12.729,25L14.133,21.077ZM7.394,14.516C7.394,12.31 8.273,10.788 9.659,9.729C11.118,8.614 13.264,7.931 15.8,7.813L15.608,3.651C12.509,3.794 9.458,4.638 7.129,6.418C4.727,8.253 3.227,10.992 3.227,14.516L7.394,14.516ZM17.746,6.147L18.337,3.234L14.254,2.405L13.663,5.317L17.746,6.147ZM18.334,3.251C18.288,3.467 18.169,3.661 17.995,3.798L15.407,0.532C14.82,0.998 14.413,1.655 14.258,2.388L18.334,3.251ZM17.995,3.798C17.822,3.935 17.607,4.007 17.386,4.003L17.476,-0.163C16.727,-0.179 15.995,0.067 15.407,0.532L17.995,3.798ZM17.431,4.003L21.646,4.003L21.646,-0.164L17.431,-0.164L17.431,4.003ZM21.428,3.992L21.665,4.017L22.101,-0.127L21.864,-0.152L21.428,3.992ZM21.455,3.984C21.333,3.958 21.217,3.908 21.113,3.837L23.469,0.401C23.12,0.161 22.726,-0.007 22.311,-0.094L21.455,3.984ZM21.113,3.837C21.01,3.767 20.922,3.676 20.854,3.571L24.349,1.302C24.118,0.947 23.819,0.64 23.469,0.401L21.113,3.837ZM20.854,3.571C20.785,3.466 20.739,3.349 20.716,3.226L24.814,2.472C24.738,2.056 24.579,1.658 24.349,1.302L20.854,3.571ZM20.716,3.226C20.693,3.102 20.695,2.976 20.722,2.854L24.795,3.732C24.884,3.317 24.891,2.889 24.814,2.472L20.716,3.226ZM20.714,2.89L20.075,6.133L24.163,6.939L24.802,3.696L20.714,2.89ZM21.464,8.514C23.36,9.142 25.119,10.128 26.644,11.418L29.335,8.238C27.403,6.603 25.176,5.354 22.774,4.559L21.464,8.514ZM26.55,11.334L26.597,11.379L29.478,8.368L29.43,8.323L26.55,11.334ZM26.525,11.307C26.259,11.026 26.141,10.41 26.607,9.97L29.468,12.999C30.834,11.709 30.716,9.672 29.55,8.441L26.525,11.307ZM26.564,10.011L24.362,12.213L27.309,15.16L29.511,12.957L26.564,10.011Z" fill="#000000"/>
</svg>
