<svg width="26" height="16" viewBox="0 0 26 16" fill="none" xmlns="http://www.w3.org/2000/svg" xmlns:xlink="http://www.w3.org/1999/xlink">
<path d="M22.374,15.293L3.041,15.293C1.042,15.293 -0.584,13.973 -0.584,12.352L-0.584,2.547C-0.584,0.926 1.042,-0.394 3.041,-0.394L22.374,-0.394C24.373,-0.394 25.999,0.926 25.999,2.547L25.999,12.352C25.999,13.973 24.373,15.293 22.374,15.293ZM3.041,1.567C2.376,1.567 1.833,2.006 1.833,2.547L1.833,12.352C1.833,12.893 2.376,13.332 3.041,13.332L22.374,13.332C23.039,13.332 23.583,12.893 23.583,12.352L23.583,2.547C23.583,2.006 23.039,1.567 22.374,1.567L3.041,1.567Z" fill="#000000"/>
</svg>
