<svg width="38" height="36" viewBox="0 0 38 36" fill="none" xmlns="http://www.w3.org/2000/svg" xmlns:xlink="http://www.w3.org/1999/xlink">
<path d="M25.244,22.391L24.296,23.335C24.296,23.335 22.04,25.577 15.884,19.456C9.727,13.335 11.984,11.093 11.984,11.093L12.58,10.497C14.052,9.035 14.192,6.685 12.907,4.968L10.282,1.462C8.69,-0.663 5.617,-0.944 3.794,0.868L0.523,4.118C-0.379,5.018 -0.983,6.181 -0.91,7.472C-0.723,10.779 0.773,17.889 9.115,26.185C17.963,34.981 26.265,35.331 29.659,35.014C30.734,34.914 31.667,34.368 32.419,33.618L35.377,30.677C37.377,28.691 36.815,25.285 34.257,23.895L30.277,21.731C28.598,20.82 26.557,21.087 25.244,22.391Z" fill="#408A7E"/>
</svg>
