<svg width="44" height="42" viewBox="0 0 44 42" fill="none" xmlns="http://www.w3.org/2000/svg" xmlns:xlink="http://www.w3.org/1999/xlink">
<path d="M23.894,-0.826C26.238,-0.82 27.428,-0.807 28.455,-0.778L28.859,-0.763C29.325,-0.747 29.786,-0.726 30.342,-0.701C32.559,-0.597 34.071,-0.247 35.398,0.268C36.773,0.797 37.932,1.514 39.09,2.67C40.15,3.711 40.97,4.971 41.492,6.362C42.007,7.689 42.357,9.201 42.461,11.42C42.486,11.974 42.507,12.434 42.523,12.903L42.536,13.307C42.567,14.332 42.58,15.522 42.584,17.866L42.586,19.42L42.586,22.149C42.591,23.669 42.575,25.188 42.538,26.707L42.525,27.111C42.509,27.58 42.488,28.041 42.463,28.595C42.359,30.814 42.005,32.324 41.492,33.653C40.97,35.044 40.15,36.304 39.09,37.345C38.049,38.405 36.789,39.224 35.398,39.747C34.071,40.261 32.559,40.612 30.342,40.716L28.859,40.778L28.455,40.791C27.428,40.82 26.238,40.834 23.894,40.839L22.34,40.841L19.613,40.841C18.093,40.846 16.572,40.83 15.052,40.793L14.648,40.78C14.154,40.762 13.659,40.74 13.165,40.716C10.948,40.612 9.436,40.261 8.107,39.747C6.717,39.224 5.458,38.404 4.417,37.345C3.357,36.304 2.536,35.044 2.013,33.653C1.498,32.326 1.148,30.814 1.044,28.595L0.982,27.111L0.971,26.707C0.933,25.188 0.915,23.669 0.919,22.149L0.919,17.866C0.913,16.346 0.929,14.827 0.965,13.307L0.98,12.903C0.996,12.434 1.017,11.974 1.042,11.42C1.146,9.201 1.496,7.691 2.011,6.362C2.535,4.97 3.357,3.71 4.419,2.67C5.459,1.611 6.717,0.791 8.107,0.268C9.436,-0.247 10.946,-0.597 13.165,-0.701C13.719,-0.726 14.182,-0.747 14.648,-0.763L15.052,-0.776C16.572,-0.813 18.091,-0.829 19.611,-0.824L23.894,-0.826ZM21.753,9.591C18.99,9.591 16.34,10.688 14.387,12.642C12.433,14.595 11.336,17.245 11.336,20.007C11.336,22.77 12.433,25.42 14.387,27.373C16.34,29.327 18.99,30.424 21.753,30.424C24.515,30.424 27.165,29.327 29.118,27.373C31.072,25.42 32.169,22.77 32.169,20.007C32.169,17.245 31.072,14.595 29.118,12.642C27.165,10.688 24.515,9.591 21.753,9.591ZM21.753,13.757C22.573,13.757 23.386,13.919 24.144,14.233C24.903,14.547 25.592,15.007 26.172,15.587C26.753,16.168 27.213,16.856 27.527,17.615C27.842,18.373 28.003,19.186 28.004,20.006C28.004,20.827 27.842,21.64 27.528,22.398C27.214,23.156 26.754,23.846 26.174,24.426C25.593,25.006 24.905,25.467 24.146,25.781C23.388,26.095 22.575,26.257 21.755,26.257C20.097,26.257 18.507,25.599 17.335,24.427C16.163,23.255 15.505,21.665 15.505,20.007C15.505,18.35 16.163,16.76 17.335,15.588C18.507,14.416 20.097,13.757 21.755,13.757M32.692,6.466C32.001,6.466 31.339,6.74 30.851,7.228C30.362,7.717 30.088,8.379 30.088,9.07C30.088,9.761 30.362,10.423 30.851,10.911C31.339,11.4 32.001,11.674 32.692,11.674C33.383,11.674 34.045,11.4 34.534,10.911C35.022,10.423 35.296,9.761 35.296,9.07C35.296,8.379 35.022,7.717 34.534,7.228C34.045,6.74 33.383,6.466 32.692,6.466Z" fill="#408A7E"/>
</svg>
