<svg width="40" height="40" viewBox="0 0 40 40" fill="none" xmlns="http://www.w3.org/2000/svg" xmlns:xlink="http://www.w3.org/1999/xlink">
<path d="M30.649,6.632C30.667,6.633 30.684,6.634 30.702,6.634C30.732,6.634 30.762,6.632 30.791,6.627C31.579,6.644 32.209,7.286 32.21,8.074C32.21,8.431 32.5,8.722 32.858,8.722C33.216,8.722 33.506,8.431 33.506,8.074C33.505,6.785 32.608,5.671 31.35,5.394L31.35,4.771C31.35,4.413 31.06,4.123 30.702,4.123C30.344,4.123 30.054,4.413 30.054,4.771L30.054,5.423C28.723,5.779 27.863,7.066 28.042,8.431C28.222,9.797 29.385,10.817 30.763,10.817C31.562,10.817 32.21,11.466 32.21,12.265C32.21,13.065 31.562,13.713 30.763,13.713C29.963,13.713 29.315,13.065 29.315,12.265C29.315,11.907 29.025,11.617 28.667,11.617C28.309,11.617 28.019,11.907 28.019,12.265C28.02,13.507 28.854,14.593 30.054,14.916L30.054,15.626C30.054,15.984 30.344,16.274 30.702,16.274C31.06,16.274 31.35,15.984 31.35,15.626L31.35,14.946C32.718,14.646 33.641,13.363 33.491,11.97C33.34,10.577 32.164,9.522 30.763,9.522C29.985,9.522 29.346,8.908 29.315,8.131C29.285,7.355 29.874,6.692 30.649,6.632L30.649,6.632Z" fill="#A66DD4"/>
<path d="M30.8,0.954C26.813,0.954 23.411,3.556 22.136,7.039L6.051,7.039C5.695,7.039 5.406,7.36 5.403,7.716L5.25,30.45L0.665,30.45C0.307,30.45 0,30.71 0,31.068L0,33.953C0.008,36.669 2.147,38.9 4.86,39.023L4.86,39.037L24.869,39.037L24.869,39.018C25.031,39.024 25.098,39.037 25.201,39.037L25.215,39.037C28.023,39.033 30.297,36.755 30.297,33.947L30.297,19.36C30.459,19.369 30.63,19.374 30.798,19.374C35.872,19.374 40,15.238 40,10.164C40,5.09 35.873,0.954 30.8,0.954L30.8,0.954ZM5.107,37.741L5.103,37.741C3.006,37.738 1.306,36.043 1.296,33.946L1.296,31.747L20.09,31.747L20.09,33.937C20.091,35.29 20.631,36.586 21.59,37.54C21.659,37.608 21.743,37.66 21.814,37.741L5.107,37.741ZM29.001,33.946C29.001,36.039 27.307,37.737 25.214,37.741L25.202,37.741C23.101,37.737 21.396,36.039 21.386,33.938L21.386,31.068C21.391,30.902 21.328,30.742 21.211,30.625C21.093,30.508 20.933,30.445 20.767,30.45L6.546,30.45L6.695,8.335L21.776,8.335C21.661,8.929 21.602,9.531 21.599,10.135C21.597,11.413 21.864,12.676 22.381,13.844L16.26,13.844C15.902,13.844 15.612,14.134 15.612,14.492C15.612,14.85 15.902,15.14 16.26,15.14L23.084,15.14C24.421,17.242 26.558,18.708 29.001,19.198L29.001,33.946ZM30.8,18.078C26.434,18.078 22.895,14.539 22.895,10.173C22.895,5.808 26.434,2.268 30.8,2.268C35.166,2.268 38.705,5.808 38.705,10.173C38.7,14.537 35.164,18.074 30.8,18.078Z" fill="#A66DD4"/>
<path d="M12.1,18.157C10.956,18.157 10.025,19.058 10.025,20.165C10.025,21.273 10.956,22.174 12.1,22.174C13.244,22.174 14.174,21.273 14.174,20.165C14.174,19.058 13.244,18.157 12.1,18.157L12.1,18.157ZM12.1,20.877C11.67,20.877 11.322,20.558 11.322,20.165C11.322,19.772 11.671,19.453 12.1,19.453C12.529,19.453 12.878,19.772 12.878,20.165C12.878,20.558 12.529,20.877 12.1,20.877Z" fill="#A66DD4"/>
<path d="M15.611,20.162C15.611,20.52 15.901,20.81 16.259,20.81L24.899,20.81C25.257,20.81 25.547,20.52 25.547,20.162C25.547,19.804 25.257,19.514 24.899,19.514L16.259,19.514C15.901,19.514 15.611,19.804 15.611,20.162Z" fill="#A66DD4"/>
<path d="M12.1,12.523C10.956,12.523 10.025,13.424 10.025,14.532C10.025,15.64 10.956,16.54 12.1,16.54C13.244,16.54 14.174,15.64 14.174,14.532C14.174,13.424 13.244,12.523 12.1,12.523ZM12.1,15.244C11.67,15.244 11.322,14.925 11.322,14.532C11.322,14.139 11.671,13.819 12.1,13.819C12.529,13.819 12.878,14.139 12.878,14.532C12.878,14.925 12.529,15.245 12.1,15.245L12.1,15.244Z" fill="#A66DD4"/>
<path d="M12.1,23.79C10.956,23.79 10.025,24.691 10.025,25.798C10.025,26.906 10.956,27.806 12.1,27.806C13.244,27.806 14.174,26.906 14.174,25.798C14.174,24.691 13.244,23.79 12.1,23.79ZM12.1,26.51C11.67,26.51 11.322,26.191 11.322,25.798C11.322,25.405 11.671,25.086 12.1,25.086C12.529,25.086 12.878,25.405 12.878,25.798C12.878,26.191 12.529,26.51 12.1,26.51L12.1,26.51Z" fill="#A66DD4"/>
<path d="M24.899,25.185L16.259,25.185C15.901,25.185 15.611,25.475 15.611,25.833C15.611,26.191 15.901,26.481 16.259,26.481L24.899,26.481C25.257,26.481 25.547,26.191 25.547,25.833C25.547,25.475 25.257,25.185 24.899,25.185Z" fill="#A66DD4"/>
</svg>
