<svg width="68" height="56" viewBox="0 0 68 56" fill="none" xmlns="http://www.w3.org/2000/svg" xmlns:xlink="http://www.w3.org/1999/xlink">
<path d="M60.913,9.453L54.774,9.453L54.774,12.518L60.441,12.518L60.441,46.237L7.552,46.237L7.552,12.518L13.218,12.518L13.218,9.453L7.079,9.453C6.638,9.459 6.202,9.535 5.797,9.678C5.392,9.821 5.025,10.027 4.718,10.284C4.412,10.542 4.17,10.846 4.008,11.179C3.846,11.513 3.766,11.869 3.774,12.227L3.774,46.528C3.766,46.886 3.846,47.242 4.008,47.575C4.17,47.909 4.412,48.213 4.718,48.47C5.025,48.728 5.392,48.934 5.797,49.077C6.202,49.219 6.638,49.296 7.079,49.302L60.913,49.302C61.354,49.296 61.79,49.219 62.195,49.077C62.6,48.934 62.967,48.728 63.274,48.47C63.581,48.213 63.822,47.909 63.984,47.575C64.146,47.242 64.226,46.886 64.218,46.528L64.218,12.227C64.226,11.869 64.146,11.513 63.984,11.179C63.822,10.846 63.581,10.542 63.274,10.284C62.967,10.027 62.6,9.821 62.195,9.678C61.79,9.535 61.354,9.459 60.913,9.453L60.913,9.453Z" fill="#408A7E"/>
<rect  x="15.109" y="21.714" width="3.778" height="3.065" fill="#408A7E"/>
<rect  x="26.445" y="21.714" width="3.778" height="3.065" fill="#408A7E"/>
<rect  x="37.781" y="21.714" width="3.778" height="3.065" fill="#408A7E"/>
<rect  x="49.109" y="21.714" width="3.778" height="3.065" fill="#408A7E"/>
<rect  x="15.109" y="29.377" width="3.778" height="3.065" fill="#408A7E"/>
<rect  x="26.445" y="29.377" width="3.778" height="3.065" fill="#408A7E"/>
<rect  x="37.781" y="29.377" width="3.778" height="3.065" fill="#408A7E"/>
<rect  x="49.109" y="29.377" width="3.778" height="3.065" fill="#408A7E"/>
<rect  x="15.109" y="37.041" width="3.778" height="3.065" fill="#408A7E"/>
<rect  x="26.445" y="37.041" width="3.778" height="3.065" fill="#408A7E"/>
<rect  x="37.781" y="37.041" width="3.778" height="3.065" fill="#408A7E"/>
<rect  x="49.109" y="37.041" width="3.778" height="3.065" fill="#408A7E"/>
<path d="M18.889,15.583C19.39,15.583 19.87,15.422 20.225,15.134C20.579,14.847 20.778,14.457 20.778,14.051L20.778,4.855C20.778,4.448 20.579,4.058 20.225,3.771C19.87,3.484 19.39,3.322 18.889,3.322C18.388,3.322 17.907,3.484 17.553,3.771C17.199,4.058 17,4.448 17,4.855L17,14.051C17,14.457 17.199,14.847 17.553,15.134C17.907,15.422 18.388,15.583 18.889,15.583Z" fill="#408A7E"/>
<path d="M49.108,15.583C49.609,15.583 50.089,15.422 50.443,15.134C50.798,14.847 50.997,14.457 50.997,14.051L50.997,4.855C50.997,4.448 50.798,4.058 50.443,3.771C50.089,3.484 49.609,3.322 49.108,3.322C48.607,3.322 48.126,3.484 47.772,3.771C47.418,4.058 47.219,4.448 47.219,4.855L47.219,14.051C47.219,14.457 47.418,14.847 47.772,15.134C48.126,15.422 48.607,15.583 49.108,15.583Z" fill="#408A7E"/>
<rect  x="24.555" y="9.453" width="18.889" height="3.065" fill="#408A7E"/>
</svg>
