<svg width="52" height="50" viewBox="0 0 52 50" fill="none" xmlns="http://www.w3.org/2000/svg" xmlns:xlink="http://www.w3.org/1999/xlink">
<path d="M45.655,7.837C45.466,7.818 45.275,7.818 45.086,7.837L6.197,7.837C5.948,7.841 5.7,7.878 5.461,7.948L25.53,27.934L45.655,7.837Z" fill="#408A7E"/>
<path d="M47.709,9.768L27.487,29.906C26.967,30.424 26.263,30.714 25.529,30.714C24.795,30.714 24.091,30.424 23.57,29.906L3.529,9.92C3.467,10.147 3.435,10.38 3.432,10.615L3.432,38.393C3.432,39.129 3.724,39.836 4.245,40.357C4.766,40.878 5.473,41.17 6.209,41.17L45.098,41.17C45.835,41.17 46.542,40.878 47.062,40.357C47.583,39.836 47.876,39.129 47.876,38.393L47.876,10.615C47.865,10.325 47.809,10.04 47.709,9.768ZM8.112,38.393L6.182,38.393L6.182,36.406L16.279,26.393L18.237,28.351L8.112,38.393ZM45.07,38.393L43.126,38.393L33.001,28.351L34.959,26.393L45.057,36.406L45.07,38.393Z" fill="#408A7E"/>
</svg>
