<svg width="72" height="60" viewBox="0 0 72 60" fill="none" xmlns="http://www.w3.org/2000/svg" xmlns:xlink="http://www.w3.org/1999/xlink">
<path d="M8.379,7.227L8.379,57.834C8.379,58.371 8.916,58.807 9.578,58.807L55.156,58.807C55.818,58.807 56.355,58.371 56.355,57.834L56.355,16.959C56.355,16.938 56.342,16.919 56.339,16.898C56.333,16.813 56.313,16.728 56.278,16.648C56.265,16.617 56.255,16.587 56.239,16.556C56.18,16.45 56.099,16.354 55.999,16.271L44.005,6.539C43.903,6.457 43.783,6.391 43.652,6.344C43.616,6.332 43.579,6.321 43.542,6.312C43.442,6.284 43.337,6.267 43.231,6.262C43.211,6.265 43.187,6.254 43.162,6.254L9.578,6.254C8.916,6.254 8.379,6.689 8.379,7.227ZM52.26,15.986L44.361,15.986L44.361,9.577L52.26,15.986ZM10.777,8.2L41.962,8.2L41.962,16.959C41.962,17.496 42.499,17.932 43.161,17.932L53.956,17.932L53.956,56.861L10.777,56.861L10.777,8.2Z" fill="#408A7E"/>
<path d="M58.753,51.021L58.753,52.967L62.351,52.967C63.013,52.967 63.55,52.532 63.55,51.994L63.55,1.388C63.55,0.85 63.013,0.415 62.351,0.415L16.774,0.415C16.111,0.415 15.574,0.85 15.574,1.388L15.574,4.308L17.973,4.308L17.973,2.361L61.151,2.361L61.151,51.021L58.753,51.021Z" fill="#408A7E"/>
<rect  x="17.973" y="19.879" width="28.785" height="1.946" fill="#408A7E"/>
<rect  x="17.973" y="14.039" width="9.595" height="1.947" fill="#408A7E"/>
<rect  x="17.973" y="25.718" width="19.19" height="1.947" fill="#408A7E"/>
<rect  x="39.563" y="25.718" width="7.196" height="1.947" fill="#408A7E"/>
<rect  x="17.973" y="31.557" width="28.785" height="1.947" fill="#408A7E"/>
<rect  x="17.973" y="43.236" width="28.785" height="1.947" fill="#408A7E"/>
<rect  x="28.77" y="37.396" width="17.991" height="1.946" fill="#408A7E"/>
<rect  x="17.973" y="37.396" width="8.396" height="1.946" fill="#408A7E"/>
<rect  x="17.973" y="49.075" width="4.798" height="1.946" fill="#408A7E"/>
<rect  x="25.172" y="49.075" width="21.589" height="1.946" fill="#408A7E"/>
</svg>
