<svg width="72" height="82" viewBox="0 0 72 82" fill="none" xmlns="http://www.w3.org/2000/svg" xmlns:xlink="http://www.w3.org/1999/xlink">
<path d="M8.379,9.434L8.379,79.512C8.379,80.256 8.916,80.86 9.579,80.86L55.156,80.86C55.818,80.86 56.355,80.256 56.355,79.512L56.355,22.911C56.355,22.881 56.342,22.855 56.34,22.826C56.334,22.707 56.313,22.591 56.279,22.479C56.265,22.436 56.256,22.394 56.239,22.352C56.181,22.206 56.1,22.072 55.999,21.957L44.005,8.481C43.903,8.367 43.784,8.276 43.652,8.211C43.616,8.194 43.58,8.18 43.542,8.167C43.442,8.128 43.338,8.105 43.231,8.097C43.211,8.101 43.187,8.086 43.162,8.086L9.579,8.086C8.916,8.086 8.379,8.689 8.379,9.434ZM52.261,21.563L44.361,21.563L44.361,12.687L52.261,21.563ZM10.778,10.781L41.963,10.781L41.963,22.911C41.963,23.654 42.5,24.258 43.162,24.258L53.957,24.258L53.957,78.165L10.778,78.165L10.778,10.781Z" fill="#000000"/>
<path d="M58.754,70.078L58.754,72.773L62.352,72.773C63.014,72.773 63.551,72.17 63.551,71.426L63.551,1.348C63.551,0.603 63.014,0 62.352,0L16.775,0C16.112,0 15.575,0.603 15.575,1.348L15.575,5.391L17.974,5.391L17.974,2.695L61.152,2.695L61.152,70.078L58.754,70.078Z" fill="#000000"/>
<rect  x="17.975" y="26.953" width="28.785" height="2.695" fill="#000000"/>
<rect  x="17.975" y="18.867" width="9.595" height="2.696" fill="#000000"/>
<rect  x="17.975" y="35.039" width="19.19" height="2.696" fill="#000000"/>
<rect  x="39.563" y="35.039" width="7.196" height="2.696" fill="#000000"/>
<rect  x="17.975" y="43.125" width="28.785" height="2.696" fill="#000000"/>
<rect  x="17.975" y="59.297" width="28.785" height="2.696" fill="#000000"/>
<rect  x="28.769" y="51.211" width="17.991" height="2.695" fill="#000000"/>
<rect  x="17.975" y="51.211" width="8.396" height="2.695" fill="#000000"/>
<rect  x="17.975" y="67.383" width="4.798" height="2.695" fill="#000000"/>
<rect  x="25.171" y="67.383" width="21.589" height="2.695" fill="#000000"/>
</svg>
