<svg width="140" height="146" viewBox="0 0 140 146" fill="none" xmlns="http://www.w3.org/2000/svg" xmlns:xlink="http://www.w3.org/1999/xlink">
<circle cx="70" cy="76" r="70" fill="#EFEFEF"/>
<path d="M70,24.333C75.835,24.333 81.431,26.897 85.556,31.46C89.682,36.024 92,42.213 92,48.667C92,55.12 89.682,61.31 85.556,65.873C81.431,70.436 75.835,73 70,73C64.165,73 58.569,70.436 54.444,65.873C50.318,61.31 48,55.12 48,48.667C48,42.213 50.318,36.024 54.444,31.46C58.569,26.897 64.165,24.333 70,24.333ZM70,85.167C94.31,85.167 116,94.556 116,108L117,128C117,128 104.532,138.416 95,142C85.745,145.48 70,146 70,146C70,146 54.255,145.48 45,142C35.468,138.416 23,128 23,128L24,110C24,96.556 45.69,85.167 70,85.167Z" fill="#FFFFFF"/>
</svg>
