<svg width="68" height="70" viewBox="0 0 68 70" fill="none" xmlns="http://www.w3.org/2000/svg" xmlns:xlink="http://www.w3.org/1999/xlink">
<path d="M31.427,50.657C31.002,50.657 30.675,50.657 30.348,50.657C22.138,50.657 13.945,50.657 5.735,50.657C2.169,50.657 0.027,48.475 0.011,44.861C0.011,41.197 0.011,37.533 0.011,33.869C0.011,33.652 -0.006,33.419 0.027,33.203C0.142,32.487 0.55,32.054 1.286,32.004C1.957,31.954 2.546,32.487 2.611,33.203C2.66,33.719 2.627,34.252 2.627,34.785C2.627,38.249 2.611,41.73 2.627,45.194C2.627,46.86 3.707,47.976 5.342,47.976C13.846,47.992 22.351,47.976 30.855,47.976C31.019,47.976 31.166,47.959 31.411,47.942C31.411,45.794 31.362,43.695 31.427,41.597C31.444,40.847 31.607,40.031 31.934,39.365C32.703,37.8 34.404,37.033 36.236,37.4C37.233,37.6 38.182,38.033 39.212,38.382C39.212,38.349 39.245,38.216 39.245,38.066C39.245,35.784 39.228,33.519 39.261,31.238C39.261,30.771 39.147,30.588 38.689,30.421C36.465,29.689 35.058,27.523 35.369,25.408C35.696,23.093 37.642,21.361 40.046,21.345C43.889,21.311 47.733,21.311 51.576,21.345C54.127,21.361 56.204,23.443 56.253,25.958C56.302,28.39 54.274,30.521 51.74,30.638C50.66,30.688 49.581,30.655 48.452,30.655C48.452,33.036 48.452,35.335 48.452,37.7C50.775,36.85 52.704,37.4 54.209,39.465C56.237,38.233 58.216,38.349 60.129,39.965C60.129,31.054 60.129,22.244 60.129,13.4C40.978,13.4 21.86,13.4 2.611,13.4C2.611,13.683 2.611,13.966 2.611,14.266C2.611,18.646 2.611,23.043 2.611,27.424C2.611,27.673 2.627,27.923 2.595,28.173C2.464,28.889 2.039,29.322 1.319,29.339C0.599,29.339 0.158,28.906 0.027,28.19C-0.022,27.94 0.011,27.69 0.011,27.44C0.011,20.229 0.011,13 0.011,5.789C0.043,2.225 2.202,0.026 5.702,0.026C13.667,0.026 21.615,0.026 29.579,0.026C29.825,0.026 30.07,0.01 30.315,0.043C30.969,0.143 31.46,0.726 31.427,1.375C31.395,2.075 31.002,2.508 30.348,2.658C30.086,2.708 29.808,2.691 29.53,2.691C21.631,2.691 13.716,2.691 5.816,2.691C3.592,2.691 2.644,3.657 2.644,5.939C2.644,7.488 2.644,9.037 2.644,10.636C21.827,10.636 40.962,10.636 60.146,10.636C60.162,10.452 60.211,10.236 60.211,10.036C60.211,8.62 60.211,7.205 60.211,5.789C60.211,3.69 59.213,2.691 57.136,2.691C51.821,2.691 46.506,2.691 41.191,2.691C40.913,2.691 40.635,2.708 40.373,2.658C39.719,2.541 39.245,1.958 39.294,1.309C39.343,0.609 39.735,0.193 40.406,0.06C40.668,0.01 40.946,0.026 41.224,0.026C46.506,0.026 51.805,0.026 57.087,0.026C60.685,0.026 62.828,2.192 62.828,5.856C62.828,17.314 62.828,28.789 62.828,40.248C62.828,40.581 62.828,40.897 62.828,41.28C63.335,41.314 63.793,41.314 64.251,41.397C66.262,41.78 67.979,43.479 67.996,45.561C68.028,49.241 67.865,52.922 67.718,56.603C67.685,57.419 67.374,58.218 67.113,59.018C66.867,59.784 66.18,60.134 65.51,59.917C64.856,59.717 64.414,59.068 64.643,58.352C65.673,55.171 65.412,51.873 65.444,48.609C65.444,47.809 65.461,46.993 65.444,46.194C65.428,44.961 64.61,44.045 63.531,43.995C62.484,43.945 61.667,44.745 61.519,45.96C61.405,46.826 60.882,47.343 60.162,47.326C59.442,47.293 58.919,46.727 58.903,45.86C58.886,45.078 58.903,44.312 58.903,43.529C58.886,42.296 58.085,41.38 57.006,41.33C55.943,41.28 55.141,42.047 54.978,43.279C54.863,44.145 54.356,44.678 53.637,44.645C52.884,44.628 52.394,44.028 52.361,43.112C52.345,42.729 52.377,42.33 52.345,41.947C52.263,40.847 51.396,39.998 50.382,39.981C49.368,39.965 48.583,40.731 48.436,41.847C48.305,42.846 47.782,43.379 47.013,43.312C46.261,43.246 45.819,42.663 45.819,41.713C45.819,37.849 45.819,34.002 45.819,30.138C45.819,29.122 45.361,28.44 44.527,28.123C43.759,27.84 42.859,28.006 42.418,28.739C42.107,29.256 41.911,29.922 41.911,30.521C41.878,36.484 41.894,42.463 41.894,48.425C41.894,48.642 41.894,48.875 41.894,49.092C41.878,50.057 41.355,50.657 40.57,50.657C39.784,50.64 39.294,50.041 39.278,49.058C39.261,47.359 39.294,45.677 39.261,43.978C39.228,41.997 37.887,40.414 36.007,40.048C34.698,39.798 34.044,40.364 34.028,41.73C34.028,45.527 33.979,49.341 34.044,53.139C34.126,58.651 36.383,63.082 40.684,66.446C40.897,66.612 41.142,66.746 41.338,66.945C41.862,67.462 41.927,68.078 41.518,68.678C41.109,69.277 40.504,69.394 39.85,69.077C39.654,68.977 39.474,68.844 39.31,68.711C34.24,64.864 31.607,59.717 31.411,53.289C31.411,52.439 31.427,51.623 31.427,50.657ZM39.703,27.94C39.752,27.907 39.801,27.873 39.834,27.84C41.829,24.326 46.294,24.725 47.88,27.69C47.962,27.84 48.207,27.99 48.387,27.99C49.532,28.006 50.677,28.04 51.821,27.973C52.95,27.907 53.767,26.991 53.735,25.975C53.702,24.975 52.884,24.026 51.854,24.026C47.913,23.993 43.955,23.993 40.013,24.026C38.918,24.043 38.067,24.892 38.002,25.858C37.92,26.841 38.607,27.657 39.703,27.94Z" fill="#408A7E"/>
<path d="M18.952,33.336C15.403,33.336 11.87,33.336 8.321,33.336C6.997,33.336 6.571,32.903 6.571,31.538C6.571,27.407 6.571,23.26 6.571,19.13C6.571,17.764 6.98,17.348 8.338,17.348C15.452,17.348 22.566,17.348 29.68,17.348C31.021,17.348 31.43,17.781 31.43,19.147C31.43,23.277 31.43,27.424 31.43,31.554C31.43,32.92 31.005,33.336 29.664,33.336C26.098,33.336 22.533,33.336 18.952,33.336ZM9.237,20.063C9.237,23.61 9.237,27.108 9.237,30.622C15.779,30.622 22.271,30.622 28.748,30.622C28.748,27.058 28.748,23.56 28.748,20.063C22.222,20.063 15.746,20.063 9.237,20.063Z" fill="#408A7E"/>
<path d="M18.919,38.666C15.894,38.666 12.868,38.666 9.842,38.666C9.63,38.666 9.401,38.683 9.188,38.666C8.42,38.616 7.88,38.05 7.88,37.334C7.88,36.617 8.42,36.034 9.188,36.018C10.3,35.985 11.429,36.001 12.541,36.001C17.742,36.001 22.959,36.001 28.159,36.001C28.405,36.001 28.65,35.985 28.895,36.018C29.615,36.084 30.122,36.651 30.122,37.334C30.122,38.016 29.615,38.583 28.895,38.649C28.683,38.666 28.454,38.666 28.241,38.666C25.134,38.666 22.026,38.666 18.919,38.666Z" fill="#408A7E"/>
<path d="M15.076,41.331C16.924,41.331 18.788,41.331 20.636,41.331C21.65,41.331 22.272,41.847 22.272,42.663C22.272,43.479 21.667,43.996 20.636,43.996C16.924,43.996 13.228,43.996 9.515,43.996C8.501,43.996 7.88,43.479 7.88,42.663C7.88,41.83 8.485,41.331 9.515,41.331C11.38,41.331 13.228,41.331 15.076,41.331Z" fill="#408A7E"/>
<path d="M58.741,69.477C58.381,69.111 57.923,68.811 57.711,68.378C57.416,67.795 57.743,67.279 58.218,66.863C59.313,65.913 60.393,64.947 61.439,63.948C61.815,63.598 62.077,63.115 62.437,62.749C62.928,62.216 63.533,62.149 64.138,62.549C64.694,62.915 64.857,63.731 64.449,64.314C63.107,66.263 61.423,67.862 59.46,69.144C59.313,69.244 59.101,69.278 58.937,69.328C58.872,69.377 58.806,69.427 58.741,69.477Z" fill="#408A7E"/>
<path d="M36.663,1.392C36.647,2.108 36.025,2.708 35.322,2.691C34.619,2.674 34.03,2.041 34.046,1.325C34.063,0.609 34.668,0.01 35.387,0.026C36.09,0.06 36.679,0.676 36.663,1.392Z" fill="#408A7E"/>
<path d="M9.188,6.705C9.188,7.421 8.583,8.021 7.88,8.021C7.177,8.021 6.588,7.405 6.588,6.689C6.588,5.972 7.193,5.373 7.896,5.373C8.599,5.373 9.188,5.989 9.188,6.705Z" fill="#408A7E"/>
<path d="M14.421,5.373C15.124,5.373 15.729,5.989 15.713,6.705C15.713,7.421 15.108,8.038 14.405,8.021C13.701,8.021 13.096,7.405 13.113,6.689C13.129,5.972 13.718,5.373 14.421,5.373Z" fill="#408A7E"/>
<path d="M20.947,5.373C21.65,5.356 22.255,5.956 22.272,6.672C22.288,7.388 21.699,8.004 20.996,8.021C20.293,8.038 19.688,7.438 19.671,6.722C19.655,6.006 20.227,5.39 20.947,5.373Z" fill="#408A7E"/>
</svg>
