<svg width="82" height="80" viewBox="0 0 82 80" fill="none" xmlns="http://www.w3.org/2000/svg" xmlns:xlink="http://www.w3.org/1999/xlink">
<path d="M80.066,41.644C80.066,62.827 62.158,80 40.066,80C17.975,80 0.066,62.827 0.066,41.644C0.066,20.46 17.975,3.288 40.066,3.288C62.158,3.288 80.066,20.46 80.066,41.644Z" fill="#EFEFEF"/>
<path d="M40.068,13.333C43.402,13.333 46.6,14.738 48.957,17.239C51.315,19.739 52.64,23.13 52.64,26.667C52.64,30.203 51.315,33.594 48.957,36.095C46.6,38.595 43.402,40 40.068,40C36.734,40 33.536,38.595 31.179,36.095C28.821,33.594 27.497,30.203 27.497,26.667C27.497,23.13 28.821,19.739 31.179,17.239C33.536,14.738 36.734,13.333 40.068,13.333ZM40.068,46.667C53.96,46.667 66.354,51.812 66.354,59.178L66.925,70.137C66.925,70.137 59.801,75.845 54.354,77.808C49.065,79.715 40.068,80 40.068,80C40.068,80 31.071,79.715 25.782,77.808C20.335,75.845 13.211,70.137 13.211,70.137L13.782,60.274C13.782,52.908 26.177,46.667 40.068,46.667Z" fill="#FFFFFF"/>
</svg>
