<svg width="68" height="98" viewBox="0 0 68 98" fill="none" xmlns="http://www.w3.org/2000/svg" xmlns:xlink="http://www.w3.org/1999/xlink">
<path d="M31.427,70.691C31.002,70.691 30.675,70.691 30.348,70.691C22.138,70.691 13.945,70.691 5.735,70.691C2.169,70.691 0.027,67.67 0.011,62.665C0.011,57.591 0.011,52.518 0.011,47.444C0.011,47.144 -0.006,46.821 0.027,46.521C0.142,45.529 0.55,44.93 1.286,44.861C1.957,44.791 2.546,45.529 2.611,46.521C2.66,47.236 2.627,47.974 2.627,48.712C2.627,53.509 2.611,58.329 2.627,63.127C2.627,65.433 3.707,66.978 5.342,66.978C13.846,67.001 22.351,66.978 30.855,66.978C31.019,66.978 31.166,66.955 31.411,66.932C31.411,63.957 31.362,61.051 31.427,58.145C31.444,57.107 31.607,55.977 31.934,55.054C32.703,52.887 34.404,51.826 36.236,52.333C37.233,52.61 38.182,53.209 39.212,53.694C39.212,53.648 39.245,53.463 39.245,53.256C39.245,50.096 39.228,46.959 39.261,43.8C39.261,43.154 39.147,42.9 38.689,42.67C36.465,41.655 35.058,38.657 35.369,35.728C35.696,32.522 37.642,30.123 40.046,30.1C43.889,30.054 47.733,30.054 51.576,30.1C54.127,30.123 56.204,33.006 56.253,36.489C56.302,39.856 54.274,42.808 51.74,42.969C50.66,43.039 49.581,42.993 48.452,42.993C48.452,46.291 48.452,49.473 48.452,52.748C50.775,51.572 52.704,52.333 54.209,55.193C56.237,53.486 58.216,53.648 60.129,55.885C60.129,43.546 60.129,31.346 60.129,19.099C40.978,19.099 21.86,19.099 2.611,19.099C2.611,19.491 2.611,19.883 2.611,20.298C2.611,26.364 2.611,32.453 2.611,38.518C2.611,38.864 2.627,39.21 2.595,39.556C2.464,40.548 2.039,41.147 1.319,41.171C0.599,41.171 0.158,40.571 0.027,39.579C-0.022,39.233 0.011,38.887 0.011,38.541C0.011,28.555 0.011,18.546 0.011,8.559C0.043,3.624 2.202,0.579 5.702,0.579C13.667,0.579 21.615,0.579 29.579,0.579C29.825,0.579 30.07,0.556 30.315,0.603C30.969,0.741 31.46,1.548 31.427,2.448C31.395,3.416 31.002,4.016 30.348,4.223C30.086,4.293 29.808,4.27 29.53,4.27C21.631,4.27 13.716,4.27 5.816,4.27C3.592,4.27 2.644,5.607 2.644,8.767C2.644,10.912 2.644,13.057 2.644,15.271C21.827,15.271 40.962,15.271 60.146,15.271C60.162,15.017 60.211,14.717 60.211,14.44C60.211,12.48 60.211,10.52 60.211,8.559C60.211,5.653 59.213,4.27 57.136,4.27C51.821,4.27 46.506,4.27 41.191,4.27C40.913,4.27 40.635,4.293 40.373,4.223C39.719,4.062 39.245,3.255 39.294,2.355C39.343,1.387 39.735,0.81 40.406,0.626C40.668,0.556 40.946,0.579 41.224,0.579C46.506,0.579 51.805,0.579 57.087,0.579C60.685,0.579 62.828,3.578 62.828,8.652C62.828,24.519 62.828,40.409 62.828,56.277C62.828,56.738 62.828,57.176 62.828,57.707C63.335,57.753 63.793,57.753 64.251,57.868C66.262,58.399 67.979,60.751 67.996,63.634C68.028,68.731 67.865,73.828 67.718,78.925C67.685,80.055 67.374,81.162 67.113,82.269C66.867,83.33 66.18,83.814 65.51,83.514C64.856,83.238 64.414,82.338 64.643,81.346C65.673,76.941 65.412,72.375 65.444,67.854C65.444,66.747 65.461,65.617 65.444,64.51C65.428,62.804 64.61,61.535 63.531,61.466C62.484,61.397 61.667,62.504 61.519,64.187C61.405,65.387 60.882,66.102 60.162,66.079C59.442,66.032 58.919,65.248 58.903,64.049C58.886,62.965 58.903,61.904 58.903,60.82C58.886,59.114 58.085,57.845 57.006,57.776C55.943,57.707 55.141,58.768 54.978,60.474C54.863,61.674 54.356,62.412 53.637,62.365C52.884,62.342 52.394,61.512 52.361,60.244C52.345,59.713 52.377,59.16 52.345,58.629C52.263,57.107 51.396,55.931 50.382,55.908C49.368,55.885 48.583,56.946 48.436,58.491C48.305,59.875 47.782,60.613 47.013,60.52C46.261,60.428 45.819,59.621 45.819,58.306C45.819,52.956 45.819,47.628 45.819,42.278C45.819,40.871 45.361,39.925 44.527,39.487C43.759,39.095 42.859,39.325 42.418,40.34C42.107,41.055 41.911,41.978 41.911,42.808C41.878,51.065 41.894,59.344 41.894,67.601C41.894,67.901 41.894,68.223 41.894,68.523C41.878,69.861 41.355,70.691 40.57,70.691C39.784,70.668 39.294,69.838 39.278,68.477C39.261,66.125 39.294,63.795 39.261,61.443C39.228,58.698 37.887,56.507 36.007,56C34.698,55.654 34.044,56.438 34.028,58.329C34.028,63.588 33.979,68.869 34.044,74.128C34.126,81.761 36.383,87.896 40.684,92.555C40.897,92.786 41.142,92.97 41.338,93.247C41.862,93.962 41.927,94.815 41.518,95.645C41.109,96.476 40.504,96.637 39.85,96.199C39.654,96.061 39.474,95.876 39.31,95.692C34.24,90.364 31.607,83.238 31.411,74.335C31.411,73.159 31.427,72.029 31.427,70.691ZM39.703,39.233C39.752,39.187 39.801,39.141 39.834,39.095C41.829,34.229 46.294,34.782 47.88,38.887C47.962,39.095 48.207,39.302 48.387,39.302C49.532,39.325 50.677,39.372 51.821,39.279C52.95,39.187 53.767,37.919 53.735,36.512C53.702,35.128 52.884,33.813 51.854,33.813C47.913,33.767 43.955,33.767 40.013,33.813C38.918,33.836 38.067,35.013 38.002,36.35C37.92,37.711 38.607,38.841 39.703,39.233Z" fill="#000000"/>
<path d="M18.952,46.706C15.403,46.706 11.87,46.706 8.321,46.706C6.997,46.706 6.571,46.107 6.571,44.215C6.571,38.496 6.571,32.753 6.571,27.033C6.571,25.142 6.98,24.566 8.338,24.566C15.452,24.566 22.566,24.566 29.68,24.566C31.021,24.566 31.43,25.165 31.43,27.056C31.43,32.776 31.43,38.519 31.43,44.238C31.43,46.13 31.005,46.706 29.664,46.706C26.098,46.706 22.533,46.706 18.952,46.706ZM9.237,28.325C9.237,33.237 9.237,38.081 9.237,42.947C15.779,42.947 22.271,42.947 28.748,42.947C28.748,38.011 28.748,33.168 28.748,28.325C22.222,28.325 15.746,28.325 9.237,28.325Z" fill="#000000"/>
<path d="M18.919,54.086C15.893,54.086 12.867,54.086 9.842,54.086C9.629,54.086 9.4,54.109 9.188,54.086C8.419,54.017 7.879,53.233 7.879,52.241C7.879,51.249 8.419,50.442 9.188,50.419C10.3,50.373 11.428,50.396 12.54,50.396C17.741,50.396 22.958,50.396 28.159,50.396C28.404,50.396 28.649,50.373 28.895,50.419C29.614,50.511 30.121,51.296 30.121,52.241C30.121,53.187 29.614,53.971 28.895,54.063C28.682,54.086 28.453,54.086 28.241,54.086C25.133,54.086 22.026,54.086 18.919,54.086Z" fill="#000000"/>
<path d="M15.075,57.776C16.923,57.776 18.788,57.776 20.636,57.776C21.65,57.776 22.271,58.491 22.271,59.621C22.271,60.752 21.666,61.466 20.636,61.466C16.923,61.466 13.227,61.466 9.515,61.466C8.501,61.466 7.879,60.752 7.879,59.621C7.879,58.468 8.485,57.776 9.515,57.776C11.379,57.776 13.227,57.776 15.075,57.776Z" fill="#000000"/>
<path d="M58.741,96.753C58.382,96.246 57.924,95.83 57.711,95.231C57.417,94.424 57.744,93.709 58.218,93.132C59.314,91.817 60.393,90.48 61.44,89.096C61.816,88.612 62.078,87.943 62.437,87.435C62.928,86.697 63.533,86.605 64.138,87.159C64.694,87.666 64.858,88.796 64.449,89.603C63.108,92.302 61.423,94.516 59.461,96.292C59.314,96.43 59.101,96.476 58.938,96.545C58.872,96.615 58.807,96.684 58.741,96.753Z" fill="#000000"/>
<path d="M36.663,2.47C36.647,3.462 36.026,4.292 35.322,4.269C34.619,4.246 34.03,3.37 34.047,2.378C34.063,1.386 34.668,0.556 35.388,0.579C36.091,0.625 36.68,1.478 36.663,2.47Z" fill="#000000"/>
<path d="M9.188,9.828C9.188,10.82 8.583,11.65 7.879,11.65C7.176,11.65 6.587,10.797 6.587,9.805C6.587,8.813 7.193,7.983 7.896,7.983C8.599,7.983 9.188,8.837 9.188,9.828Z" fill="#000000"/>
<path d="M14.421,7.983C15.125,7.983 15.73,8.837 15.713,9.828C15.713,10.82 15.108,11.673 14.405,11.65C13.702,11.65 13.097,10.797 13.113,9.805C13.129,8.813 13.718,7.983 14.421,7.983Z" fill="#000000"/>
<path d="M20.946,7.983C21.65,7.96 22.255,8.79 22.271,9.782C22.287,10.774 21.699,11.627 20.995,11.65C20.292,11.673 19.687,10.843 19.671,9.851C19.654,8.86 20.227,8.006 20.946,7.983Z" fill="#000000"/>
</svg>
