<svg width="64" height="52" viewBox="0 0 64 52" fill="none" xmlns="http://www.w3.org/2000/svg" xmlns:xlink="http://www.w3.org/1999/xlink">
<path d="M53.541,32.164C56.215,28.868 57.774,24.927 57.774,20.694C57.774,9.162 46.211,-0.22 31.999,-0.22C17.787,-0.22 6.224,9.162 6.224,20.694C6.224,24.927 7.783,28.868 10.457,32.164L0.375,44.095L11.912,42.349L14.063,51.71L23.571,40.459C26.213,41.203 29.049,41.608 31.999,41.608C34.95,41.608 37.785,41.203 40.427,40.459L49.936,51.71L52.086,42.349L63.623,44.095L53.541,32.164ZM16.102,43.885L14.928,38.779L8.636,39.732L12.882,34.707C14.916,36.532 17.34,38.064 20.046,39.219L16.102,43.885ZM9.996,20.694C9.996,10.85 19.867,2.841 31.999,2.841C44.132,2.841 54.002,10.85 54.002,20.694C54.002,30.539 44.132,38.548 31.999,38.548C19.867,38.548 9.996,30.539 9.996,20.694L9.996,20.694ZM49.07,38.779L47.896,43.885L43.953,39.219C46.659,38.064 49.083,36.532 51.117,34.707L55.363,39.731L49.07,38.779Z" fill="#000000"/>
<path d="M27.404,25.287L21.271,20.311L18.604,22.475L27.404,29.616L45.394,15.019L42.727,12.855L27.404,25.287Z" fill="#000000"/>
</svg>
