<svg width="62" height="78" viewBox="0 0 62 78" fill="none" xmlns="http://www.w3.org/2000/svg" xmlns:xlink="http://www.w3.org/1999/xlink">
<path d="M60.906,14.514L31.729,0.171C31.499,0.058 31.251,0 31,0C30.749,0 30.501,0.058 30.271,0.171L1.094,14.514C0.769,14.673 0.492,14.935 0.298,15.269C0.104,15.602 0,15.992 0,16.39L0,57.369C0,57.747 0.093,58.118 0.269,58.44C0.444,58.762 0.696,59.023 0.996,59.195L30.172,75.873C30.429,76.02 30.712,76.097 31,76.097C31.284,76.096 31.564,76.022 31.819,75.879L60.995,59.406C61.297,59.235 61.551,58.974 61.729,58.65C61.906,58.327 62,57.954 62,57.574L62,16.39C62,15.992 61.896,15.602 61.702,15.269C61.508,14.935 61.231,14.673 60.906,14.514L60.906,14.514ZM31,4.283L55.627,16.39L31,28.498L24.599,25.351L34.339,20.562C34.664,20.402 34.94,20.14 35.134,19.806C35.328,19.473 35.431,19.084 35.431,18.685C35.431,18.287 35.328,17.897 35.134,17.564C34.94,17.231 34.664,16.968 34.339,16.808L26.514,12.975C26.284,12.862 26.036,12.804 25.785,12.804C25.534,12.804 25.285,12.862 25.055,12.975L12.234,19.271L6.382,16.39L31,4.283ZM14.588,24.902L18.235,26.695L18.235,35.614L14.588,33.565L14.588,24.902ZM16.776,21.509L25.777,17.089L29.042,18.689L20.059,23.113L16.776,21.509ZM3.647,19.523L10.941,23.109L10.941,34.831C10.941,35.212 11.035,35.585 11.213,35.909C11.392,36.233 11.646,36.495 11.95,36.665L19.244,40.763C19.522,40.919 19.831,40.992 20.141,40.977C20.452,40.961 20.754,40.856 21.018,40.672C21.282,40.489 21.501,40.232 21.652,39.927C21.803,39.622 21.882,39.278 21.882,38.929L21.882,28.479L29.176,32.065L29.176,70.706L3.647,56.113L3.647,19.523ZM32.824,70.724L32.824,32.073L58.353,19.523L58.353,56.31L32.824,70.724Z" fill="#000000"/>
<path d="M42.959,55.798L35.652,59.924C35.22,60.169 34.892,60.596 34.74,61.112C34.589,61.629 34.626,62.192 34.843,62.677C35.061,63.163 35.441,63.531 35.901,63.701C36.36,63.872 36.861,63.83 37.293,63.586L44.6,59.459C45.032,59.215 45.36,58.787 45.512,58.271C45.664,57.755 45.627,57.192 45.409,56.706C45.191,56.221 44.811,55.852 44.351,55.682C43.892,55.512 43.391,55.553 42.959,55.798Z" fill="#000000"/>
<path d="M36.471,55.607C36.754,55.607 37.034,55.533 37.288,55.39L44.491,51.323C44.923,51.078 45.251,50.651 45.402,50.135C45.554,49.618 45.517,49.056 45.299,48.57C45.082,48.085 44.701,47.716 44.242,47.546C43.782,47.375 43.282,47.417 42.849,47.661L35.648,51.729C35.282,51.936 34.988,52.277 34.815,52.695C34.642,53.113 34.6,53.585 34.695,54.033C34.79,54.482 35.017,54.881 35.34,55.167C35.662,55.453 36.06,55.608 36.471,55.607Z" fill="#000000"/>
</svg>
