<svg width="38" height="38" viewBox="0 0 38 38" fill="none" xmlns="http://www.w3.org/2000/svg" xmlns:xlink="http://www.w3.org/1999/xlink">
<path d="M19.002,0.831L18.513,1.268L0.689,19.289L-0.383,20.364L0.691,21.489L15.534,36.332L16.659,37.406L17.738,36.332L35.753,18.509L36.189,18.018L36.189,0.831L19.002,0.831ZM20.32,3.956L33.064,3.956L33.064,16.7L16.658,33.009L4.011,20.362L20.32,3.956ZM28.377,7.081C27.962,7.081 27.565,7.245 27.272,7.538C26.979,7.831 26.814,8.229 26.814,8.643C26.814,9.058 26.979,9.455 27.272,9.748C27.565,10.041 27.962,10.206 28.377,10.206C28.791,10.206 29.188,10.041 29.481,9.748C29.774,9.455 29.939,9.058 29.939,8.643C29.939,8.229 29.774,7.831 29.481,7.538C29.188,7.245 28.791,7.081 28.377,7.081Z" fill="#408A7E"/>
</svg>
