<svg width="26" height="24" viewBox="0 0 26 24" fill="none" xmlns="http://www.w3.org/2000/svg" xmlns:xlink="http://www.w3.org/1999/xlink">
<path d="M22.375,22.01L3.042,22.01C1.043,22.01 -0.583,20.182 -0.583,17.936L-0.583,4.359C-0.583,2.114 1.043,0.286 3.042,0.286L22.375,0.286C24.374,0.286 26,2.114 26,4.359L26,17.936C26,20.182 24.374,22.01 22.375,22.01ZM3.042,3.002C2.377,3.002 1.834,3.61 1.834,4.359L1.834,17.936C1.834,18.686 2.377,19.294 3.042,19.294L22.375,19.294C23.04,19.294 23.584,18.686 23.584,17.936L23.584,4.359C23.584,3.61 23.04,3.002 22.375,3.002L3.042,3.002Z" fill="#408A7E"/>
</svg>
