<svg width="36" height="46" viewBox="0 0 36 46" fill="none" xmlns="http://www.w3.org/2000/svg" xmlns:xlink="http://www.w3.org/1999/xlink">
<path d="M17.752,0.629C13.195,0.634 8.827,2.447 5.605,5.669C2.382,8.891 0.57,13.259 0.564,17.816C0.56,21.54 1.777,25.162 4.027,28.129C4.027,28.129 4.496,28.746 4.572,28.835L17.752,44.379L30.938,28.827C31.007,28.744 31.477,28.129 31.477,28.129L31.478,28.124C33.727,25.158 34.943,21.538 34.939,17.816C34.934,13.259 33.121,8.891 29.899,5.669C26.677,2.447 22.309,0.634 17.752,0.629ZM17.752,24.066C16.516,24.066 15.307,23.7 14.28,23.013C13.252,22.326 12.451,21.35 11.978,20.208C11.505,19.066 11.381,17.809 11.622,16.597C11.863,15.384 12.458,14.271 13.333,13.397C14.207,12.523 15.32,11.927 16.533,11.686C17.745,11.445 19.002,11.569 20.144,12.042C21.286,12.515 22.262,13.316 22.949,14.344C23.635,15.372 24.002,16.58 24.002,17.816C24,19.473 23.341,21.062 22.169,22.233C20.997,23.405 19.409,24.064 17.752,24.066Z" fill="#408A7E"/>
</svg>
