<svg width="66" height="66" viewBox="0 0 66 66" fill="none" xmlns="http://www.w3.org/2000/svg" xmlns:xlink="http://www.w3.org/1999/xlink">
<path d="M32,40.842L54.095,62.938C55.268,64.11 56.858,64.769 58.516,64.769C60.174,64.769 61.765,64.11 62.937,62.938C64.11,61.765 64.768,60.175 64.768,58.517C64.768,56.859 64.11,55.268 62.937,54.096L40.833,32L62.933,9.904C63.513,9.324 63.973,8.634 64.287,7.876C64.601,7.118 64.763,6.305 64.763,5.484C64.762,4.663 64.601,3.85 64.286,3.092C63.972,2.334 63.511,1.645 62.931,1.065C62.35,0.484 61.661,0.024 60.903,-0.29C60.144,-0.604 59.331,-0.765 58.511,-0.765C57.69,-0.765 56.877,-0.603 56.119,-0.289C55.36,0.026 54.672,0.486 54.091,1.067L32,23.163L9.904,1.067C9.328,0.469 8.638,-0.007 7.876,-0.335C7.113,-0.663 6.293,-0.836 5.463,-0.843C4.634,-0.851 3.811,-0.693 3.042,-0.379C2.274,-0.065 1.576,0.398 0.989,0.985C0.402,1.572 -0.063,2.269 -0.377,3.037C-0.692,3.805 -0.85,4.628 -0.844,5.458C-0.837,6.288 -0.665,7.108 -0.338,7.871C-0.01,8.633 0.465,9.323 1.062,9.9L23.166,32L1.066,54.1C0.47,54.677 -0.006,55.367 -0.333,56.129C-0.661,56.892 -0.833,57.712 -0.839,58.542C-0.846,59.372 -0.688,60.195 -0.373,60.963C-0.058,61.731 0.406,62.428 0.993,63.015C1.58,63.602 2.278,64.065 3.046,64.379C3.815,64.693 4.638,64.851 5.468,64.843C6.298,64.836 7.118,64.663 7.88,64.335C8.642,64.007 9.332,63.531 9.908,62.933L32,40.842Z" clip-rule="evenodd" fill-rule="evenodd" fill="#D23B3B"/>
</svg>
