<svg width="28" height="16" viewBox="0 0 28 16" fill="none" xmlns="http://www.w3.org/2000/svg" xmlns:xlink="http://www.w3.org/1999/xlink">
<path d="M22.958,15.918L3.625,15.918C1.626,15.918 0,14.599 0,12.977L0,3.173C0,1.551 1.626,0.231 3.625,0.231L22.958,0.231C24.957,0.231 26.583,1.551 26.583,3.173L26.583,12.977C26.583,14.599 24.957,15.918 22.958,15.918ZM3.625,2.192C2.96,2.192 2.417,2.631 2.417,3.173L2.417,12.977C2.417,13.518 2.96,13.958 3.625,13.958L22.958,13.958C23.623,13.958 24.167,13.518 24.167,12.977L24.167,3.173C24.167,2.631 23.623,2.192 22.958,2.192L3.625,2.192Z" fill="#000000"/>
</svg>
