<svg width="26" height="28" viewBox="0 0 26 28" fill="none" xmlns="http://www.w3.org/2000/svg" xmlns:xlink="http://www.w3.org/1999/xlink">
<path d="M22.375,27.684L3.042,27.684C1.043,27.684 -0.583,26.364 -0.583,24.743L-0.583,3.173C-0.583,1.551 1.043,0.231 3.042,0.231L22.375,0.231C24.374,0.231 26,1.551 26,3.173L26,24.743C26,26.364 24.374,27.684 22.375,27.684ZM3.042,2.192C2.377,2.192 1.834,2.631 1.834,3.173L1.834,24.743C1.834,25.284 2.377,25.723 3.042,25.723L22.375,25.723C23.04,25.723 23.584,25.284 23.584,24.743L23.584,3.173C23.584,2.631 23.04,2.192 22.375,2.192L3.042,2.192Z" fill="#000000"/>
</svg>
