<svg width="84" height="80" viewBox="0 0 84 80" fill="none" xmlns="http://www.w3.org/2000/svg" xmlns:xlink="http://www.w3.org/1999/xlink">
<path d="M9.333,69.917L15.983,69.917L61.6,26.744L54.95,20.45L9.333,63.623L9.333,69.917ZM0,78.75L0,59.979L61.6,1.79C62.533,0.98 63.565,0.354 64.694,-0.088C65.823,-0.529 67.009,-0.75 68.25,-0.75C69.491,-0.75 70.697,-0.529 71.867,-0.088C73.036,0.354 74.048,1.017 74.9,1.9L81.317,8.083C82.25,8.893 82.931,9.85 83.361,10.954C83.79,12.058 84.003,13.162 84,14.267C84,15.444 83.787,16.568 83.361,17.637C82.934,18.705 82.253,19.68 81.317,20.56L19.833,78.75L0,78.75ZM58.217,23.652L54.95,20.45L61.6,26.744L58.217,23.652Z" fill="#000000"/>
</svg>
