<svg width="28" height="28" viewBox="0 0 28 28" fill="none" xmlns="http://www.w3.org/2000/svg" xmlns:xlink="http://www.w3.org/1999/xlink">
<path d="M22.958,27.293L3.625,27.293C1.626,27.293 0,25.973 0,24.352L0,2.782C0,1.16 1.626,-0.16 3.625,-0.16L22.958,-0.16C24.957,-0.16 26.583,1.16 26.583,2.782L26.583,24.352C26.583,25.973 24.957,27.293 22.958,27.293ZM3.625,1.801C2.96,1.801 2.417,2.24 2.417,2.782L2.417,24.352C2.417,24.893 2.96,25.332 3.625,25.332L22.958,25.332C23.623,25.332 24.167,24.893 24.167,24.352L24.167,2.782C24.167,2.24 23.623,1.801 22.958,1.801L3.625,1.801Z" fill="#000000"/>
</svg>
