<svg width="62" height="50" viewBox="0 0 62 50" fill="none" xmlns="http://www.w3.org/2000/svg" xmlns:xlink="http://www.w3.org/1999/xlink">
<path d="M0.639,29.556C-0.224,26.25 -0.224,22.834 0.639,19.527C3.969,19.844 6.879,18.95 7.827,17.091C8.778,15.228 7.503,12.928 4.869,11.241C7.14,8.409 10.117,5.993 13.608,4.15C15.684,6.285 18.522,7.322 20.817,6.55C23.112,5.779 24.213,3.42 23.82,0.718C27.895,0.018 32.105,0.018 36.18,0.718C35.79,3.42 36.891,5.781 39.183,6.55C41.478,7.322 44.313,6.288 46.392,4.15C49.883,5.993 52.86,8.409 55.131,11.241C52.5,12.926 51.222,15.228 52.173,17.091C53.124,18.953 56.031,19.846 59.361,19.527C60.224,22.834 60.224,26.25 59.361,29.556C56.031,29.24 53.121,30.133 52.173,31.993C51.222,33.855 52.497,36.156 55.131,37.843C52.86,40.675 49.883,43.091 46.392,44.933C44.316,42.799 41.478,41.762 39.183,42.533C36.888,43.305 35.787,45.664 36.18,48.366C32.105,49.066 27.895,49.066 23.82,48.366C24.21,45.664 23.109,43.302 20.817,42.533C18.522,41.762 15.687,42.796 13.608,44.933C10.117,43.091 7.14,40.675 4.869,37.843C7.5,36.158 8.778,33.855 7.827,31.993C6.876,30.131 3.969,29.237 0.639,29.556L0.639,29.556ZM6,25.053C9.3,25.795 12.021,27.492 13.371,30.131C14.718,32.772 14.271,35.535 12.585,37.95C12.873,38.198 13.17,38.439 13.476,38.673C16.455,37.305 19.857,36.944 23.112,38.035C26.364,39.13 28.455,41.338 29.37,44.016C29.79,44.025 30.21,44.025 30.63,44.016C31.545,41.338 33.636,39.13 36.888,38.035C40.143,36.942 43.548,37.305 46.524,38.673C46.83,38.439 47.127,38.198 47.415,37.95C45.729,35.532 45.285,32.772 46.629,30.131C47.979,27.492 50.7,25.795 54,25.053C54.012,24.712 54.012,24.371 54,24.031C50.7,23.288 47.979,21.592 46.629,18.953C45.282,16.312 45.729,13.549 47.415,11.134C47.126,10.887 46.829,10.646 46.524,10.411C43.545,11.779 40.143,12.139 36.888,11.049C33.636,9.954 31.545,7.746 30.63,5.068C30.21,5.059 29.79,5.059 29.37,5.068C28.455,7.746 26.364,9.954 23.112,11.049C19.857,12.142 16.452,11.779 13.476,10.411C13.17,10.645 12.873,10.886 12.585,11.134C14.271,13.551 14.715,16.312 13.371,18.953C12.021,21.592 9.3,23.288 6,24.031C5.988,24.371 5.988,24.712 6,25.053L6,25.053ZM30,31.845C27.613,31.845 25.324,31.075 23.636,29.706C21.948,28.336 21,26.479 21,24.542C21,22.605 21.948,20.748 23.636,19.378C25.324,18.009 27.613,17.239 30,17.239C32.387,17.239 34.676,18.009 36.364,19.378C38.052,20.748 39,22.605 39,24.542C39,26.479 38.052,28.336 36.364,29.706C34.676,31.075 32.387,31.845 30,31.845ZM30,26.976C30.796,26.976 31.559,26.72 32.122,26.263C32.684,25.807 33,25.187 33,24.542C33,23.896 32.684,23.277 32.122,22.821C31.559,22.364 30.796,22.108 30,22.108C29.205,22.108 28.442,22.364 27.879,22.821C27.316,23.277 27,23.896 27,24.542C27,25.187 27.316,25.807 27.879,26.263C28.442,26.72 29.205,26.976 30,26.976L30,26.976Z" fill="#000000"/>
</svg>
