<svg width="24" height="22" viewBox="0 0 24 22" fill="none" xmlns="http://www.w3.org/2000/svg" xmlns:xlink="http://www.w3.org/1999/xlink">
<path d="M21.2,19.683L13.733,13.15C13.067,13.617 12.3,13.986 11.433,14.258C10.567,14.531 9.644,14.667 8.667,14.667C6.244,14.667 4.195,13.933 2.517,12.465C0.839,10.997 0,9.203 0,7.083C0,4.964 0.839,3.17 2.517,1.702C4.195,0.234 6.244,-0.5 8.667,-0.5C11.089,-0.5 13.139,0.234 14.817,1.702C16.495,3.17 17.333,4.964 17.333,7.083C17.333,7.939 17.178,8.746 16.867,9.504C16.556,10.263 16.133,10.933 15.6,11.517L23.1,18.079C23.344,18.293 23.467,18.556 23.467,18.867C23.467,19.178 23.333,19.45 23.067,19.683C22.822,19.897 22.511,20.004 22.133,20.004C21.756,20.004 21.444,19.897 21.2,19.683ZM8.667,12.333C10.333,12.333 11.75,11.823 12.917,10.803C14.084,9.781 14.667,8.542 14.667,7.083C14.667,5.625 14.084,4.385 12.917,3.364C11.75,2.344 10.333,1.833 8.667,1.833C7,1.833 5.583,2.344 4.416,3.364C3.25,4.385 2.667,5.625 2.667,7.083C2.667,8.542 3.25,9.781 4.416,10.803C5.583,11.823 7,12.333 8.667,12.333Z" fill="#868686"/>
</svg>
