<svg width="34" height="44" viewBox="0 0 34 44" fill="none" xmlns="http://www.w3.org/2000/svg" xmlns:xlink="http://www.w3.org/1999/xlink">
<path d="M15.753,32.92C16.858,32.92 17.917,32.481 18.699,31.7C19.48,30.919 19.919,29.859 19.919,28.754C19.919,27.649 19.48,26.589 18.699,25.807C17.917,25.026 16.858,24.587 15.753,24.587C14.648,24.587 13.588,25.026 12.806,25.807C12.025,26.589 11.586,27.649 11.586,28.754C11.586,29.859 12.025,30.919 12.806,31.7C13.588,32.481 14.648,32.92 15.753,32.92ZM28.253,14.17C29.358,14.17 30.418,14.609 31.199,15.391C31.98,16.172 32.419,17.232 32.419,18.337L32.419,39.17C32.419,40.275 31.98,41.335 31.199,42.117C30.418,42.898 29.358,43.337 28.253,43.337L3.253,43.337C2.148,43.337 1.088,42.898 0.306,42.117C-0.475,41.335 -0.914,40.275 -0.914,39.17L-0.914,18.337C-0.914,17.232 -0.475,16.172 0.306,15.391C1.088,14.609 2.148,14.17 3.253,14.17L5.336,14.17L5.336,10.004C5.336,7.241 6.433,4.592 8.387,2.638C10.34,0.685 12.99,-0.413 15.753,-0.413C17.121,-0.413 18.475,-0.144 19.739,0.38C21.003,0.903 22.151,1.671 23.118,2.638C24.086,3.605 24.853,4.754 25.376,6.017C25.9,7.281 26.169,8.636 26.169,10.004L26.169,14.17L28.253,14.17ZM15.753,3.754C14.095,3.754 12.505,4.412 11.333,5.584C10.161,6.756 9.503,8.346 9.503,10.004L9.503,14.17L22.003,14.17L22.003,10.004C22.003,8.346 21.344,6.756 20.172,5.584C19,4.412 17.41,3.754 15.753,3.754Z" fill="#408A7E"/>
</svg>
