<svg width="16" height="14" viewBox="0 0 16 14" fill="none" xmlns="http://www.w3.org/2000/svg" xmlns:xlink="http://www.w3.org/1999/xlink">
<path d="M4.302,4.552C3.605,3.696 2.345,3.568 1.489,4.265C0.632,4.963 0.504,6.223 1.201,7.079L4.302,4.552ZM6.49,10.404L4.94,11.667C5.308,12.119 5.855,12.388 6.438,12.403C7.021,12.419 7.582,12.179 7.973,11.746L6.49,10.404ZM15.035,3.946C15.776,3.127 15.713,1.863 14.894,1.121C14.075,0.38 12.811,0.443 12.069,1.262L15.035,3.946ZM1.201,7.079L4.94,11.667L8.041,9.141L4.302,4.552L1.201,7.079ZM7.973,11.746L15.035,3.946L12.069,1.262L5.008,9.062L7.973,11.746Z" fill="#FFFFFF"/>
</svg>
