<svg width="38" height="38" viewBox="0 0 38 38" fill="none" xmlns="http://www.w3.org/2000/svg" xmlns:xlink="http://www.w3.org/1999/xlink">
<path d="M19.002,-0.188L18.513,0.25L0.689,18.27L-0.383,19.345L0.691,20.47L15.534,35.314L16.659,36.387L17.738,35.314L35.753,17.491L36.189,17L36.189,-0.188L19.002,-0.188ZM20.32,2.938L33.064,2.938L33.064,15.681L16.658,31.991L4.011,19.344L20.32,2.938ZM28.377,6.063C27.962,6.063 27.565,6.227 27.272,6.52C26.979,6.813 26.814,7.211 26.814,7.625C26.814,8.039 26.979,8.437 27.272,8.73C27.565,9.023 27.962,9.188 28.377,9.188C28.791,9.188 29.188,9.023 29.481,8.73C29.774,8.437 29.939,8.039 29.939,7.625C29.939,7.211 29.774,6.813 29.481,6.52C29.188,6.227 28.791,6.063 28.377,6.063Z" fill="#408A7E"/>
</svg>
