<svg width="26" height="8" viewBox="0 0 26 8" fill="none" xmlns="http://www.w3.org/2000/svg" xmlns:xlink="http://www.w3.org/1999/xlink">
<path d="M2.97,0.787C1.896,0.528 0.816,1.189 0.557,2.263C0.299,3.337 0.96,4.417 2.034,4.676L2.97,0.787ZM9.699,4.463L9.231,6.408C9.524,6.478 9.829,6.482 10.123,6.418L9.699,4.463ZM23.718,3.474C24.797,3.24 25.483,2.175 25.249,1.096C25.015,0.016 23.951,-0.67 22.871,-0.436L23.718,3.474ZM2.034,4.676L9.231,6.408L10.167,2.519L2.97,0.787L2.034,4.676ZM10.123,6.418L23.718,3.474L22.871,-0.436L9.276,2.509L10.123,6.418Z" fill="#FFFFFF"/>
</svg>
