<svg width="70" height="62" viewBox="0 0 70 62" fill="none" xmlns="http://www.w3.org/2000/svg" xmlns:xlink="http://www.w3.org/1999/xlink">
<path d="M52.4,1C53.298,1 54.186,1.204 55.012,1.6C55.838,1.995 56.584,2.574 57.207,3.303L57.607,3.816L67.773,18.111C70.297,21.662 68.22,26.864 64.307,27.231L63.867,27.25L60.667,27.25L60.667,57.25C60.666,58.206 60.34,59.125 59.757,59.82C59.174,60.515 58.377,60.933 57.529,60.989C56.68,61.045 55.845,60.735 55.194,60.122C54.542,59.508 54.124,58.638 54.023,57.689L54,57.25L54,27.25L47.333,27.25L47.333,53.5C47.334,55.392 46.699,57.215 45.555,58.602C44.411,59.989 42.844,60.839 41.167,60.981L40.667,61L14,61C12.318,61 10.699,60.285 9.467,58.998C8.234,57.712 7.479,55.949 7.353,54.062L7.333,53.5L7.333,27.25L4.133,27.25C0.093,27.25 -2.22,22.176 -0.034,18.513L0.233,18.111L10.396,3.816C10.957,3.027 11.653,2.374 12.444,1.895C13.234,1.416 14.102,1.122 14.996,1.03L15.606,1L52.4,1ZM17.333,27.25L14,27.25L14,53.5L40.667,53.5L40.667,27.25L37.333,27.25L37.333,42.25C37.333,43.245 36.982,44.198 36.357,44.902C35.732,45.605 34.884,46 34,46L20.667,46C19.783,46 18.935,45.605 18.309,44.902C17.684,44.198 17.333,43.245 17.333,42.25L17.333,27.25ZM30.667,27.25L24,27.25L24,38.5L30.667,38.5L30.667,27.25ZM52.4,8.5L15.6,8.5L7.6,19.75L60.4,19.75L52.4,8.5Z" clip-rule="evenodd" fill-rule="evenodd" fill="#000000"/>
</svg>
