<svg width="26" height="28" viewBox="0 0 26 28" fill="none" xmlns="http://www.w3.org/2000/svg" xmlns:xlink="http://www.w3.org/1999/xlink">
<path d="M22.374,27.684L3.041,27.684C1.042,27.684 -0.584,26.364 -0.584,24.743L-0.584,3.173C-0.584,1.551 1.042,0.231 3.041,0.231L22.374,0.231C24.373,0.231 25.999,1.551 25.999,3.173L25.999,24.743C25.999,26.364 24.373,27.684 22.374,27.684ZM3.041,2.192C2.376,2.192 1.833,2.632 1.833,3.173L1.833,24.743C1.833,25.284 2.376,25.723 3.041,25.723L22.374,25.723C23.039,25.723 23.583,25.284 23.583,24.743L23.583,3.173C23.583,2.632 23.039,2.192 22.374,2.192L3.041,2.192Z" fill="#000000"/>
</svg>
