<svg width="70" height="44" viewBox="0 0 70 44" fill="none" xmlns="http://www.w3.org/2000/svg" xmlns:xlink="http://www.w3.org/1999/xlink">
<path d="M52.4,0.341C53.298,0.341 54.187,0.489 55.012,0.774C55.838,1.06 56.585,1.478 57.207,2.004L57.607,2.375L67.774,12.698C70.297,15.263 68.22,19.019 64.307,19.284L63.867,19.298L60.667,19.298L60.667,40.962C60.666,41.652 60.341,42.316 59.757,42.818C59.174,43.32 58.377,43.622 57.529,43.662C56.681,43.703 55.846,43.479 55.194,43.036C54.543,42.593 54.124,41.964 54.024,41.279L54,40.962L54,19.298L47.334,19.298L47.334,38.254C47.334,39.62 46.699,40.936 45.555,41.938C44.412,42.94 42.844,43.554 41.167,43.656L40.667,43.67L14,43.67C12.319,43.67 10.7,43.153 9.467,42.224C8.235,41.295 7.48,40.022 7.354,38.66L7.334,38.254L7.334,19.298L4.134,19.298C0.094,19.298 -2.22,15.634 -0.033,12.988L0.234,12.698L10.397,2.375C10.957,1.805 11.654,1.333 12.444,0.988C13.235,0.642 14.103,0.429 14.997,0.363L15.607,0.341L52.4,0.341ZM17.334,19.298L14,19.298L14,38.254L40.667,38.254L40.667,19.298L37.334,19.298L37.334,30.13C37.334,30.848 36.982,31.537 36.357,32.045C35.732,32.553 34.884,32.838 34,32.838L20.667,32.838C19.783,32.838 18.935,32.553 18.31,32.045C17.685,31.537 17.334,30.848 17.334,30.13L17.334,19.298ZM30.667,19.298L24,19.298L24,27.422L30.667,27.422L30.667,19.298ZM52.4,5.757L15.6,5.757L7.6,13.882L60.4,13.882L52.4,5.757Z" clip-rule="evenodd" fill-rule="evenodd" fill="#408A7E"/>
</svg>
