<svg width="28" height="28" viewBox="0 0 28 28" fill="none" xmlns="http://www.w3.org/2000/svg" xmlns:xlink="http://www.w3.org/1999/xlink">
<path d="M26,15.712L16,15.712L16,25.712C16,26.242 15.789,26.751 15.414,27.126C15.039,27.501 14.53,27.712 14,27.712C13.47,27.712 12.961,27.501 12.586,27.126C12.211,26.751 12,26.242 12,25.712L12,15.712L2,15.712C1.47,15.712 0.961,15.501 0.586,15.126C0.211,14.751 0,14.242 0,13.712C0,13.181 0.211,12.673 0.586,12.298C0.961,11.923 1.47,11.712 2,11.712L12,11.712L12,1.712C12,1.181 12.211,0.673 12.586,0.298C12.961,-0.077 13.47,-0.288 14,-0.288C14.53,-0.288 15.039,-0.077 15.414,0.298C15.789,0.673 16,1.181 16,1.712L16,11.712L26,11.712C26.53,11.712 27.039,11.923 27.414,12.298C27.789,12.673 28,13.181 28,13.712C28,14.242 27.789,14.751 27.414,15.126C27.039,15.501 26.53,15.712 26,15.712Z" fill="#FFFFFF"/>
</svg>
