<svg width="28" height="16" viewBox="0 0 28 16" fill="none" xmlns="http://www.w3.org/2000/svg" xmlns:xlink="http://www.w3.org/1999/xlink">
<path d="M22.376,15.293L3.043,15.293C1.044,15.293 -0.582,13.973 -0.582,12.352L-0.582,2.547C-0.582,0.926 1.044,-0.394 3.043,-0.394L22.376,-0.394C24.375,-0.394 26.001,0.926 26.001,2.547L26.001,12.352C26.001,13.973 24.375,15.293 22.376,15.293ZM3.043,1.567C2.378,1.567 1.835,2.006 1.835,2.547L1.835,12.352C1.835,12.893 2.378,13.332 3.043,13.332L22.376,13.332C23.041,13.332 23.585,12.893 23.585,12.352L23.585,2.547C23.585,2.006 23.041,1.567 22.376,1.567L3.043,1.567Z" fill="#000000"/>
</svg>
