<svg width="60" height="60" viewBox="0 0 60 60" fill="none" xmlns="http://www.w3.org/2000/svg" xmlns:xlink="http://www.w3.org/1999/xlink">
<path d="M6.667,53.333L11.417,53.333L44,20.75L39.25,16L6.667,48.583L6.667,53.333ZM0,60L0,45.833L44,1.917C44.667,1.306 45.403,0.833 46.21,0.5C47.017,0.167 47.863,0 48.75,0C49.637,0 50.498,0.167 51.333,0.5C52.169,0.833 52.891,1.333 53.5,2L58.083,6.667C58.75,7.278 59.237,8 59.543,8.833C59.85,9.667 60.002,10.5 60,11.333C60,12.222 59.848,13.07 59.543,13.877C59.239,14.683 58.752,15.419 58.083,16.083L14.167,60L0,60ZM41.583,18.417L39.25,16L44,20.75L41.583,18.417Z" fill="#000000"/>
</svg>
