<svg width="26" height="8" viewBox="0 0 26 8" fill="none" xmlns="http://www.w3.org/2000/svg" xmlns:xlink="http://www.w3.org/1999/xlink">
<path d="M2.747,0.787C1.673,0.528 0.593,1.189 0.335,2.263C0.076,3.337 0.737,4.417 1.811,4.676L2.747,0.787ZM9.477,4.463L9.009,6.408C9.301,6.478 9.606,6.482 9.9,6.418L9.477,4.463ZM23.495,3.474C24.575,3.24 25.26,2.175 25.026,1.096C24.793,0.016 23.728,-0.67 22.648,-0.436L23.495,3.474ZM1.811,4.676L9.009,6.408L9.945,2.519L2.747,0.787L1.811,4.676ZM9.9,6.418L23.495,3.474L22.648,-0.436L9.053,2.509L9.9,6.418Z" fill="#FFFFFF"/>
</svg>
