<svg width="26" height="16" viewBox="0 0 26 16" fill="none" xmlns="http://www.w3.org/2000/svg" xmlns:xlink="http://www.w3.org/1999/xlink">
<path d="M22.372,15.293L3.039,15.293C1.04,15.293 -0.586,13.973 -0.586,12.352L-0.586,2.547C-0.586,0.926 1.04,-0.394 3.039,-0.394L22.372,-0.394C24.371,-0.394 25.997,0.926 25.997,2.547L25.997,12.352C25.997,13.973 24.371,15.293 22.372,15.293ZM3.039,1.567C2.374,1.567 1.831,2.006 1.831,2.547L1.831,12.352C1.831,12.893 2.374,13.332 3.039,13.332L22.372,13.332C23.037,13.332 23.581,12.893 23.581,12.352L23.581,2.547C23.581,2.006 23.037,1.567 22.372,1.567L3.039,1.567Z" fill="#000000"/>
</svg>
