<svg width="28" height="40" viewBox="0 0 28 40" fill="none" xmlns="http://www.w3.org/2000/svg" xmlns:xlink="http://www.w3.org/1999/xlink">
<path d="M22.958,38.01L3.625,38.01C1.626,38.01 0,36.182 0,33.937L0,4.067C0,1.821 1.626,-0.006 3.625,-0.006L22.958,-0.006C24.957,-0.006 26.583,1.821 26.583,4.067L26.583,33.937C26.583,36.182 24.957,38.01 22.958,38.01ZM3.625,2.709C2.96,2.709 2.417,3.318 2.417,4.067L2.417,33.937C2.417,34.686 2.96,35.294 3.625,35.294L22.958,35.294C23.623,35.294 24.167,34.686 24.167,33.937L24.167,4.067C24.167,3.318 23.623,2.709 22.958,2.709L3.625,2.709Z" fill="#408A7E"/>
</svg>
