<svg width="52" height="50" viewBox="0 0 52 50" fill="none" xmlns="http://www.w3.org/2000/svg" xmlns:xlink="http://www.w3.org/1999/xlink">
<path d="M18.784,0.49C13.952,1.897 9.656,4.728 6.457,8.614C3.258,12.5 1.305,17.259 0.852,22.272L12.28,22.272C12.946,14.644 15.158,7.232 18.78,0.486L18.784,0.49ZM12.28,26.736L0.852,26.736C1.304,31.749 3.256,36.509 6.455,40.395C9.653,44.281 13.948,47.113 18.78,48.522C15.158,41.776 12.946,34.364 12.28,26.736ZM24.509,49.475C20.179,42.608 17.524,34.818 16.759,26.736L34.741,26.736C33.976,34.818 31.321,42.608 26.991,49.475C26.164,49.516 25.336,49.516 24.509,49.475ZM32.723,48.518C37.554,47.11 41.849,44.278 45.048,40.393C48.246,36.507 50.199,31.748 50.652,26.736L39.223,26.736C38.557,34.364 36.345,41.776 32.723,48.522L32.723,48.518ZM39.223,22.272L50.652,22.272C50.199,17.259 48.247,12.499 45.048,8.613C41.85,4.726 37.555,1.894 32.723,0.486C36.345,7.232 38.557,14.644 39.223,22.272ZM24.509,-0.468C25.337,-0.509 26.166,-0.509 26.994,-0.468C31.323,6.4 33.977,14.19 34.741,22.272L16.762,22.272C17.537,14.14 20.198,6.343 24.509,-0.468Z" clip-rule="evenodd" fill-rule="evenodd" fill="#408A7E"/>
</svg>
